<svg xmlns="http://www.w3.org/2000/svg" width="461.2" height="384.3" viewBox="0 0 461.2 384.3"><g fill="#E2E2E1"><path d="M323 211.4c-1.2-.8-11.4-7.6-11.2-7.9 1.1-1.6 2.2-3.3 3.3-4.9 3.8 2.6 7.6 5.1 11.4 7.8-1.2 1.6-2.3 3.3-3.5 5zM418.5 343.1c-4.7-.4-9.3-1.2-13.9-2.1.3-1.6.6-3.2 1-4.8.2-1.2-.1-1.3 1.3-1.1 2 .4 3.9.7 5.9 1 1.8.3 3.6.5 5.5.7 1.2.1.8.3.7 1.4-.2 1.7-.3 3.3-.5 4.9zM433 342.9c-.2-1.6-.5-3.2-.7-4.8-.2-1.2-.5-1.2.8-1.4 1.6-.3 3.2-.7 4.7-1.4 1.2-.6 2.3-1.3 3.1-2.3.7-.9.5-1.1 1.4-.5 1.5.9 3 1.8 4.6 2.7-2.9 4.8-8.5 6.9-13.9 7.7zM391 337.8c-4.5-1.2-8.9-2.5-13.3-3.9.4-1.4.9-2.8 1.3-4.2.1-.3.3-1.5.5-1.7 2.1.7 4.1 1.3 6.2 1.9 2 .6 3.9 1.1 5.9 1.7 1.3.4.9.4.6 1.5-.3 1.5-.7 3.1-1.2 4.7zM441.4 321.4c-.4-1.2-5.6-11.7-6-11.5 1.7-1.1 3.4-2.3 5.1-3.4 2.7 4 5.1 8.3 6.7 12.8-1.9.8-3.9 1.5-5.8 2.1zM427.3 299.3c-.9-1.1-9-10.1-8.8-10.3 1.4-1.4 2.9-2.7 4.3-4.1 3.2 3.4 6.3 6.8 9.3 10.4-1.6 1.3-3.2 2.6-4.8 4zM408.7 279.5c-1-1-10.1-9.2-9.8-9.5 1.3-1.5 2.7-2.9 4-4.4 3.4 3.1 6.8 6.2 10.1 9.5-1.4 1.4-2.9 2.9-4.3 4.4zM367.2 243.8c-1.1-.9-11-8.2-10.7-8.5 1.2-1.6 2.4-3.2 3.6-4.7 3.7 2.8 7.3 5.6 10.9 8.4-1.2 1.6-2.5 3.2-3.8 4.8zM345.4 227.3c-1.1-.8-11.2-7.9-11-8.2 1.1-1.6 2.3-3.2 3.4-4.8 3.8 2.7 7.5 5.4 11.2 8.1-1.2 1.5-2.4 3.2-3.6 4.9z"/></g><path fill="#E2E2E1" d="M44.2 344.7c-12.9 0-24-10.4-24.8-23.3-.8-12.9 8.8-24.6 21.7-26.2 12.8-1.6 25.1 7.3 27.5 20C71 328 62.9 340.8 50.3 344c-1.9.5-4 .7-6.1.7zm0-43.4c-10.2 0-18.7 8.5-18.7 18.7s8.5 18.7 18.7 18.7 18.7-8.5 18.7-18.7-8.5-18.7-18.7-18.7z"/><path fill-rule="evenodd" clip-rule="evenodd" fill="#F3D0B4" d="M55.1 319.3c0 5.9-4.9 10.9-10.9 10.9-5.9 0-10.9-4.9-10.9-10.9 0-5.9 4.9-10.9 10.9-10.9 6 .1 10.9 5 10.9 10.9zM397.2 255.3c0 5.9-4.9 10.9-10.9 10.9-5.9 0-10.9-4.9-10.9-10.9 0-5.9 4.9-10.9 10.9-10.9s10.9 4.9 10.9 10.9z"/><path fill="#E2E2E1" d="M386.4 280.7c-12.9 0-24-10.4-24.8-23.3-.8-12.9 8.8-24.6 21.7-26.2 12.8-1.6 25.1 7.3 27.5 20 2.4 12.7-5.7 25.5-18.3 28.7-2 .5-4.1.8-6.1.8zm0-43.5c-10.2 0-18.7 8.5-18.7 18.7s8.5 18.7 18.7 18.7 18.7-8.5 18.7-18.7c-.1-10.2-8.6-18.7-18.7-18.7z"/><path fill-rule="evenodd" clip-rule="evenodd" fill="#50565F" d="M203.1 333.4c0 4.6 7.2 5 10.3 4 3-1 3.7-3 3.7-5.8 0-4.7.6-9.9 0-14.5 0-4.6-7.2-5-10.3-4-3 1-3.7 3-3.7 5.8v14.5z"/><path fill="#50565F" d="M251.1 348h-79.6c-1.6 0-1.4.1-1.4-1.6v-11.7c0-1.1.9-.7 1.9-.7h77.7c1.9 0 1.4.3 1.4 2.4V348z"/><path fill="#EBB65C" d="M208.7 318.2c-8.7 0-17.4-.9-25.9-2.6-4.1-.9-8.2-1.9-12.3-3.2-3-.9-9-1.7-9.7-5.5-.5-3.1 2.6-5.6 5.5-4.6 4.1 1.5 8.3 2.8 12.5 3.9 8 2 16.2 3.3 24.5 3.6 31.1 1.4 62.2-9.6 85.6-30.1 22.2-19.4 36.7-47 40.5-76.3 4-31.4-4.8-63.8-24-89-8.4-11-18.7-20.6-30.3-28.2-5.9-3.8-12.1-7.1-18.5-9.9-2.5-1.1-6.9-1.8-8-4.7-1.2-3.2 2.1-6.4 5.3-5.2 26.2 9.7 48.8 27.8 63.9 51.3 17.3 27 24.3 59.9 19 91.6-4.8 28.9-19.4 55.8-41.2 75.4-23.7 21.3-55.1 33.5-86.9 33.5z"/><g fill-rule="evenodd" clip-rule="evenodd"><path fill="#50565F" d="M205.6 81.6c51.1-.9 97 35.7 107.4 85.7 5.2 24.9 1.3 51.4-11 73.7-11.8 21.5-31 38.7-53.8 47.9-23.6 9.6-50.6 10.5-74.8 2.4-23.3-7.8-43.6-23.7-56.8-44.5-13.7-21.5-19.2-47.6-15.7-72.8 3.4-24.6 15.6-47.5 33.8-64.3 19.3-17.5 44.8-27.6 70.9-28.1 59.5-1.1-59.4 1.1 0 0z"/><path fill="#54C4CD" stroke="#54C4CD" stroke-width=".324" stroke-miterlimit="10" d="M284 211c-1 .2-1.4 1.6-2.4 2.1-.2.3-.7.2-1 .7-.1.1-1.9 1.6-2 1.7-1.4.1-1.4 2.4-3 1.6-1.4-.7-1.2-1.5-2.2-2.5.3.6-1-.3-1.2-.6-.9 0-2-.6-2.8-1.1-.2.9-1-.1-1.3-.2 0 .3.4.5.2.8-.9-.7-1.7-3.4-3.2-3.8-.5-.1-1.4-.1-1.9-.5-.5-.5-.2-.9-.6-1.3-.7-.7-1.5-3.6-2.5-3.4-.2-.2-.9-.2-1.2-.2-.5 0-1.5-1.3-.8-1.7-1.4-1-3.9-2.2-4.5-4-.6-.6-1.1-1.4-1.9-1.7-.9-.3-1.9-1.2-2.2-2.1.5.1 2.3 1.3 2.6 1.7 2.2 2.7 1-2.1 1.4-2.6 0 .6.1 2.4.8 2.2.7-.2 2.2 1 2.8 1.5 1.3 1 2.2 1.9 3.2 3.2.8-1.2 3.2 1.2 3.2 2.3 0 2.2 3.6 2.3 4.7 3.9 1.7.5 3.4 2.2 3.7 4.2.9.7 2 4.2 3.3 2.7.6-.7.9-.9 1.3-1.9 1-.2 2-.7 2.4-1.7.3-.8.4-.3.8-.8.1 0 1-1.6 1.2-1.8.9-.9 1.5-1.6 2.4-2.5.3-.3 0-.9.2-1.4.2-.7.9-.6 1.2-1.2.4-.6 1.2-.9 1.4-1.4.2-.6-.4-2 1-1.8.2-1.3-.1-1.6 1.2-2.5-.7-.9-.7-1.7-.3-2.8-.1.3 0 .4.3.3.1-.9.9-3 .3-3.7-.5 0-1-.4-1.3-.8-.6-.6-.4-.2-1.1-.2-1.5 1.3-3.5-1.9-3.4-3.1-.3.2-1.3 4.4-1.2 4.6-.6.9-1.6.6-2.2 1.5-.8.2-1-.3-1.7-.6.7 0-.3-2-.8-2.3-.2.9.3 1.4.2 2.3-.6-.7-1.3-1.3-1.6-1.9-.4-.6-1.8-1.1-1.8-1.7-1.2.5-1.8-1.5-3-1.9 1.2-1.8-1.2-1.5-2.7-1.6.7-.3 2.7-.5 3.6.3.3-.2.1-.5 0-.8.8.6.9-.3 1.8-.1.5 1 1.3 1.1 1.5 1.8.3-.4.7.5 1.2.8.7-.1 1.2-.1 1.9-.3-.2 1.2 2.3.4 3.1.6.8-1.5 1.5-2.6 2.8-.8.8 1.2 3.1-.4 4.3-.4-.1-.2-.1-.4.1-.4.4.8 1-.4 1.4 0 .3-.9 1.8-1.2 2.4-1.5.1-.4.6-.7 1-.9 1.2-.7.6.3 1.2.3.8 0 .7.1 1.1.9.5.3.6-.1 1 .2.2-.2.3-.5.5-.7-.5 1.7 1.8 1.5 1.7.3.7.6-.5 1.8-1 1.8.5.7 2.3 2.2 2.8.9.4-1.1.2-1.8 0-2.9.2.2.2.2.5.1-.2 1.7 1.3 5.1 2.2 6.7 1.5 2.8 3.2 5.7 4.3 8.7.9 2.4 1.5-2 1.5-2.9.7-.5 0-4.1-.4-5.1-.6-1.8.3-2.5.5-4 .1-.7.8-5.1.6-5.1 0-.2.1-.3.1-.5.1.2.1.2.2.3.1-1.5.3-2.8.3-4.3.1.3 0 .6.1.8 0-.1.6-.4.5-.9.2.5 0-.5 0-.6 0 .2.1.3.2.4.1-.3 0-.7-.1-1 .1 0 .1.2.2.2-.1-.2-.1-.3-.2-.5l-.1.3c0-.4-.1-.5-.1-.9.3 0 0 .8.5.1.5.9.6 2 1.2 2.8.1 0 0-.6 0-.6 0 .2.1.5.1.7 0-.2.5.9.6 1.3.4 1 .3 2.1.6 3.3v-.7c0 .3 0 .6.1 1v-.4c.1 0 .1.2.1.3v-.6c.1.4 0-.9 0-1.2.1.5 0-.9 0-1.1.3 1.3.6 2.6.8 4.1v-.4c.3 1.4.2 2.8.3 4.2v-.3 2c0 .5.1 1.5.1 2.5v-2.5-1.3-.5c0-1.5-.2-3-.1-4.5 0 .3.1.6.1.9v-.3c.1.3.1.5.1 1-.1-3.9-.5-7.9-1.1-11.7-2.8-16.8-9-33.3-19.2-47.5-4.8-6.6-10.3-12.7-16.5-18.1-1.4-1.2-17.6-13.2-17.9-12.6.2.1.4.2.5.3-.6-.4-1.2-.7-1.9-1.1.2.1.5.3.7.4-.1.1-1.4-.7-1.5-.8.1.1.2.1.3.2-.2-.1-.4-.2-.7-.3.2.1 1.5.7 1.4.8-.1-.1-.3-.1-.4-.2.3.2.4.3.6.5-.2-.1-.4-.1-.6-.1.2.3.6.4.9.6-.5-.1 0 0-.1.2-.3-.3-1.4-1-1-1-.2-.2-.5-.3-.7-.5.1 0 .2.1.3.1.1-.2-1.3-1-1.5-1.1.2-.4-3.1-1.8-3.5-2 .4.2.7.3 1.1.5-.2-.4-2-1-2.3-1.1.2.1.5.2.7.3-1.1-.5-2.2-1-3.4-1.4.1 0 .1.1.2.1-.4-.2-.3 0-.8-.3 0 0 .9.4 1 .5 0 0-3.3-1.2-3.7-1.2 0-.1.1-.1.1 0-.6-.4-1.7-.7-2.5-.9.5.2 1.5 1 1.5 1 .5.2.9.4 1.4.5-.1.3 1.3.4 1.6.6-.2 0-2-.5-2-.3.7.3 1.7.3 2.2.9.1-.1-1.3-.6-1.6-.6-.1.2.1.1.3.2h-.3c.1.1.3.1.4.2-.2.1-.3 0-.4-.1.1.1.1.1.1.2l-.6-.3c.1.1.2.2.3.4-.8-.3-1.2-.5-2.2-.6.2 0 .2.1.2.2-.1 0-.2-.1-.3-.1-.1.5.9.3 1.2.5-.4.2-.4.2-.9.3.1.1.2.1.3.2-.4-.1-.5.1-.9.1.1.1.3.1.2.3-.4-.2-.1.4 0 .5h-.6c.2.2.5.2.8.2 0 .1-.1.2-.3.1.5.2.3.4.6.7-.4-.2-.9-.4-1.2-.5.5.4 1.4.9 2.1.7-.1.3-.5 0-.7.1.4.2 3.6.9 2.6 1.5.3.2.7.4 1.1.5-1.7.1-.8-1.3-2.3-.8.1.1-2.2.9-2.6.9.8.6 1.8.9 2.5 1.7.8.2 2.1.1 2.5.7 1.2.5 2 .5 3.1 1.5.1.1 3.2 2.1 2 1.8.8.4 2.1.5 2.8 1.1-.6.9-3.7-1.9-4.2-2.1.3.4.1.5.6 1-.6-.1-2.2-1.8-1.9-2-.5-.3-.4-.5-1-.5-.4-.2-1.2.3-1.7 0-.6-.3-1.1-.3-1.7-.5-.5-.2-1-.2-1.5-.2-.1.4.1.5-.3.7.5.3.9-.1 1.6.6-.7.3-1.1-.1-1.7-.2-.2.6.9 1 1.4 1.2 1.2-.1 2 .4 3.2.5-.7.1-2-.4-2.2.2-.4-.2-3.5-.7-3.2-1.4-.2-.1-2.2-1.9-2.4-1.3.5.4 2.3 1.2 1.4 2 .8.4.6 1 1.5 1.3.9.2 2.1.6 2.5 1.5.6 1.4 2.3 1.9 3.5 2.1.2-.5.1-.9 1.1-.5.1-.3 2.3.7 2.4.6 1 .8 1.3 2.2 2.9 1.6-.7 1.2-3-.6-2.8-1-.7-.3-1.3-.7-2-1-.7 0-1.1.8-.7 1.4.4.5 1.1.5 1.6 1s.2.8.5 1.3c.5.8.4 1 .4 1.9.3.3.6.9-.1.5-.6-.2-1 .2-1.7.2-1 0-1.5-.3-2.3-.3.4-.7 1.7-.5 2.3-.6.1.2.1.3-.2.3.8.5 1-.3.3-.8.8.1-.2-.5.3-.8-.1 0-.3 0-.4-.1.3-.6-1.4-2.5-1.4-2.5-.4-.4-5.3-2.4-4.9-3.3-.9-.7-1.9-1.1-2.7-1.6-1-.7-1.5-1.7-2.7-2.6.5-.1-1.4-.3-1.7-.4-.8.4-1.4.3-1.9.2.6 1 1.5 2.4 2.3 3.1-.6 1.8.8 1.8 2 2.3-.6.3.3.7.6.9 0 .1-.1.2-.3.2.4.3.7.6 1.1 1 .3-.6.8.3 1.1-.4.5.6 1.1.8 1.9 1.1.2-.5.3-.1.7-.3-.4.3.3 1.3.5 1.7-.8.1-1.9-1-2.8-1-.3 0-2.9-.7-2.5.1-1.7-1.3-3.4 0-5.2-.4.2.3.5.4.1.7 1.2.7 1.5.8 2.8 1.4-.2 0-.5 0-.7-.1.1.8-.4.3-.6.8.2.1.4.3.6.4-.4 1-1.7-1-1.7-1-.6.3-1.1.9-1.2 1.5-.9.2-1.1.4-2 .6.1.2.3.5.4.8-.6-.3-1.2.5-2 .5.1-.4 0-.3.4-.5-.6-.6-.4-.5-1.1-.7.3-.3.6-.3.7-.7-.5.2-.7.4-1.1.8.2.2.7.3.3.6-.3-.1-.5-.2-.4-.6-.1.2-.3.4-.4.6.2.1.5.2.7.3-.1.1-.2.3-.2.4-.6-.3.1-.3-.5-.4-.5-.3-.4.5-1 .5s-.3 1.8-1.3 1.8c.3.3.6.4 1 .5-.7 0-.9.1-1.6.4 2.5 1.8-2.2 3.2-2.9.9.7.1 1.8-2 .1-1.5-.6-.4-.5-.4-1.3-.4-.7.2-2.1.1-2.6.4 1 .5 1.6.8 2.5 1.5-.2.1.4 1.5.7 1.6 1.3-.5 1.7 1.9 2.5 2.6-.5-.3-1.6-1.3-1.2-.1-.6-.7-.7-.4-1.7-.5-.3-.1-1.2 1.5-1.3 2 0 1.1-.7 1.2.5 1.8 1 .5.6.9 1.4 1.3-1-.1-2 .2-3 .3.3-.5-1-.4-1.6-.5-1.5-.3 0 .5-.7.9.4.6 1.1.6 1.8.9.7-.7 1-.2 1.5.6-.6.3-.4.7-1.1.5-.7.1-1.1.2-1.5-.3-.9-.2-.9.3-2-.1-.1-.8-1.3-1.8-2-1.4.1-.4.1-.6.5-.5-.4-1.6-1.8-1.5-3-1.1.1-.2.3-.4.4-.6-.7-.2-.8.2-1.5.4.2-.2.4-.5.6-.7-.9.1-1.2-.6-1.9-.6 1.3-.6 2.6.6 3.7.2.6-.2 1.2.2 1.6-.1.4 0 .7.2.8-.2.1-.3 1.2 0 1.7-.1.9-.2 1.4-.7 2.2-.9.8-.3.4-1.8.6-2.4-.6-1.2-2.5-1.4-3.9-2.1 0 .2.1.4.3.5l-1.5-.3c0 .1.1.2.2.3-.7-.2-5-1.2-4.7-.8-.7-.3-1.4.1-2.2.1.5.3-.1.3-.3.4.1.5-.3.6-.2.9-.2-.4-.2-.2 0-.6-.3 0-.6.2-.4-.3-.2.1-.4.6-.4.2-.3.1-1.1 0-1.2.2-.2-.3-.3-.2-.3-.6.4-.1.7.3 1.2-.2-.5-.2-1.2-.1-1.7-.2-.1.2.2.6.2.6-.3.4-.2.1-.3.6-.2-.1-.8-.7-.7-.2-.2-.2-.4-.2-.7-.2.1.1.1.2.2.3-.4 0-.1-.4-.5-.3.1.1.1.3.1.4-.2-.1-.4-.1-.5.2-.2-.6-1.9-.4-1.9-.6 1.7-.3 1.7-.7 2.9-1.7-.7-.3-1.2-.1-1.8.3.1-.2.2-.4.2-.5-.5 0-.6 0-.8.5-.2-.2-.2-.2-.4 0-.1-.2-.1-.3 0-.4-.4-.2-.4-.1-.8 0 .1.3.3 1.1.2 1.4-.4-.5-.4-.2-.9.1.2-.4.3-.5.3-.9-.2.1-.4.2-.5.4-.1-.1 0-.3.1-.3-.1-.1-.3-.1-.4-.1 0 .1.7-.5.7-.7-.4-.1-.6.4-.7-.2-.3.5-.5-.1-.7.4.1.1.4.2.3.4-.3-.1-.3-.2-.5.2 0 .4.4-.2.5.2-.7.4.5 1.2-.7 1.5 0-.2.1-.5.1-.7-.5 0-.3-.3-.5-.8-.8.6.1 2-.4 2.8-.5-.7-.4-1.4-.2-2.2-.3.1-.3.1-.7-.1v.5c-.3-.3-.3-.3-.8-.2.1.2.1.3.1.5-.2 0-.3-.1-.5-.1.2.2.6.4.6.6-.4 0-.4.1-.2.4-1.3.5-.4.9-.2 1.6-.8.1-.6-.6-1.1-.4-1 .3-1.1.1-1.8.6.6.5 1.4-.1 1.6.9-.4-.1-.6-.2-1-.4-.2.4-.1.7-.4.4 0 .2-.1.4-.2.6.2.1.4.2.6.2-.4 0-.9.5-.8 1-.1-.6-.1-1-.3-1.6-.7 0-.3 1.2-.4 1.6l-.3-.9c-1 .7.4 1 .5 1.6-.3-.5-1-.8-1.5-.4.3.3.4.2.8.2-.1.2-.2.2-.4.2 0 .1.1.3.2.3l-.9-.6c.2.9.1.6-.5 1.3.2 0 .4-.1.5-.1-.2.2-.9 1.2-.7 1.5-.3.1-.4 0-.4.3.3.1 1.2-.3 1.4-.7.4.2-.1.6.2.9-.5-.2-.6-.3-1.1 0 .4.2.1.3-.2.2.4.2.4.7.7 1.1-.4-.1-.7-.5-.9-.9-.1.2-.2.4-.4.6-.1-.4-.2-.1-.4.1.3.2 1.2-.4 1 .4-.1-.1-.2-.1-.3-.2-.4.7-.5.1-.5 1.1.2-.4.2-.6.7-.5-.3.4-.1.6.4.8-.5.2-.4.2-.9-.1-.1.5-.1.2.1.5-.1.1-.3.1-.4.2l.3.3c.3-.5.7-.2 1.1 0-.9 0-1.5.6-2.1 1.2.2.1.4.1.6.2-.5.2 0 .4-.4.8.1 0 .2.1.3.1l-.5.5c.4 0 .7.1.9 0 0 .6-1.1.4-.9.9.4-.1.5 0 .8.2-.7.1-.5.4-.2.8-.3 0-.3-.1-.4.2.3.1.4 0 .4.3-.1 0-.3 0-.4-.1.3.3 0 1 .7.3 0 .8-.9 1.6-1.3 2.2h.4c-.2.2-.3.4-.4.6-.1-.1-.1-.2-.2-.3-.3.2-.7.5-.2.9-.7.2-.4 1.2-.7 1.7.1-.1.3-.2.4-.3-.3 1.2.8.1 1.1-.3-.7.2.7-1.6 1.1-1.8-.4.4-.6.9-1 1.3h.6c-.2.7-.4.5-.7 1.1.5 0 .3.1.3.5-1-.2-.6.1-1.2.7 0-.4-.4-.5-.7-.9-.1.2-.3.3-.4.5.1.1.3.1.4.2-.3.4-.7.3-1 .6.1 0 .3.1.4.1-.2.3-.2.4-.5.4.3.3.3.2.7.1-.2.3-.1.3.2.3-.5.2-.8 0-1.3-.2.4.4.5.5 1.1.6-.4 0-1.5.1-1.8-.1-1.2.6.5.4.2.8.3-.2.5-.3.8-.4-.9 1-1.2.4-2.2 1 .5.1.9.2 1.4.2-.2.4.2.2-.1.6-.5-.7-1-.2-1.2.3.2-.1.3 0 .3.2-.5.3-.5-.1-.9.1.1.1.1.2 0 .4-.1 0-.2-.1-.3-.1.4.7 1.4.1 2.2-.2-.6.9-1.5.6-2.2 1.3.4.1.6-.1.4.4.4 0 .6-.3.9-.5-.2.4-.6.6-.9.9.1 0 .3-.1.4-.1-.1.1-.2.3-.3.4.5.4 1.8-.5 2-.9.3.3.5-.1.8-.4.1.2 0 .3-.1.4.7-.2 0-.4.3-.8.2.7.4 1.4-.6 1.7.2-.2.2-.3 0-.5-.4.3-1.5 1.2-2.2 1.1.2.1.2.2.1.4.3-.1.3-.2.5-.4-.1.4 0 .6-.3.9.5.4.4-.4.9-.7-.2.8.1 1 .4 1.7.1-.5.6-2.1 1.3-1.5-.5 0-.4.5-.3.8-.1-.1-.2-.2-.4-.3-.1.2-.4 1.1-.1 1.4.1-.1.2-.1.3-.2-.1.8-.6.7-1 1.1 0 1.1.7.3.9-.2.2.4.3.8.6 1.3.2-.2.3-.3.6-.4-.3.3-.5.3-.2.6-3-.2.5 1.2 1.3 1.6.1-.2 0-.3-.1-.4.6-.2.7.5 1.2.1.3-.2.5-.7.5-1 .1.1.1.3.2.4.5-.2 1-.9.4-1.2 1 .3 1.1-1.8-.1-2.3.6.2 1.9 1.4 1.4.2 1.2.4 0-1.3.3-1.4-.2-.4-.4-.4-.1-.8.9.7.2 1.7 1.9 1.4-.6.8.5 2.5.9 1.4.1.4.2.3.5.5-.2.5.2.8 0 1.3 1.1.2 1.9 2.3 3.1 1.5.1.5.2.8-.2 1.1.4.4 1.3.7 1.1 1.5.4 0 1.7-.5 1.7-.8.1-.6-.7-.8.2-1.3.1-.6 1.4-.7 1.8-.6-.1-1.2-.6-2.6-.4-3.5-.1 0-.3 0-.4-.1 0-.4-.2-.7-.5-1 .3.1.3.2.6-.1-.3-.3-.3-.5-.7-.7.2-.1.3-.2.5-.3-.2 0-.5 0-.7-.1.1-.3.2-.3.6-.4 0-.3-1.1-.2-1.4-.2.3 0 1.3-.3 1.5-.1 0-.4 0-.9.3-1.1 0 .2.1.4.3.4-.1-.6.6-.6.1-1.1-.6-.6.5-1.3-.4-2.3-.5.1-1.4-.8-1.7-.4-.5-.2-.5 1.2-1 1.2 0-.4.4-1 .7-1.3-1.1-.1-.9-1.3-1.6-2.1.2 0 .3.1.5.1-.1-.5-.5-1.5-1-1.8.5-.3.9-1.8.7-1.8.5-.7.8-.8 1-1.8.1.1.1.3.2.4.3-.6.5-1 .6-1.5.5-.2.3-1.4.6-1.9-.3.1-.6 0-.4-.3-.2-.1-.4-.1-.5-.1.4-.6-.4-1-.6-1.4.1.1.2.1.4.2.2-.2.1-.3-.2-.3.2-.2.4-.3.6-.6-.4 0-.4 0-.7-.4 1 .5.5-.2.8-.6.1.1.3.2.4.3 0-.2 1.6-.8 2.1-.8.4-.1 1.3 0 1.6.2.1.6 1 1.3 1 1.5-.7-.2-2 .7-1.2 1.2-.7.2-.9 2.1-.6 2.6-.9-.2-.5.8-.8 1.5-.6-.1-.8 1.1-.5 1.5.5.5.6 1.2 1.3 1.7.7.5.6 2.2 1.2 2.1 0 .4-.2.5.1.8.5-.3 1.9-.8 2.2-.1.1-.2.2-.3.3-.5.3.4.6 1.2 1 1.4 0-.2.1-.5.1-.7.2.2 2.5-1.5 2.2-2.4.1.2.2.7.4.8.2-.2.2-.3 0-.5h.4c-.3-.1-.4 0-.4-.4.3.1 1 .3.8-.2.1.1.3.2.4.2.1-.7 1.4-.1 1-.9.4 0 .4.2.7.3 0-.3.2-.4-.1-.6.3-.1.5-.3.8-.4 0 .2.1.4.2.5-.2 0-.4-.1-.6-.1.8.4 2.8.1 3 .7-.7.1-.8-.1-1.4.4-.1.2-.6 1-.6 1-.1-.1-.3-.1-.4-.2-.1 1.1.6.9-1.2 1.4-.5-.2-1.5.3-1.8.1-.1 1-1.3.4-1.6 1.5-1.1-.3-.5 1.1-.2 1.6.1-.2.3-.3.5-.2-.7.6.2.9.8 1.2.1-.2.3-.5.4-.7.2.9 1.5 2.9.4 3.5-.5.3-1.7-.8-2-1.2-.4.8-1.4.5-1.1 1.5-.1.3-.1 1.3 0 1.7.2 1.2 1.1 1.6 1.1 3.1.1-.4.1-.6.3-.9.2.5.6 1.6-.3 1.3-.4-.2-1.2.6-.9 1.1.3-.3.4-.4.8-.5-.2.4-1 1.5-1.4 1.6 0-.2.4-.7.5-.9-.9 1.3-2.2.3-1.4.2-1.3-.4-2.3 1-3.2 1.7-.1.8-1.2 1.3-1.7 1.8-.1 1.1-1.6 1.4-1 .6-.4-.1-2.3-.2-.9-.5-.4-.3-.5-.3-1-.3.1.1.2.2.3.2-.4.4-.4.6-1 .9.1-.1.3-.4.3-.5l-.6.3c.1.1.2.2.2.3-.2.4-1.4 1.1-2.2 1.4.3-.4.7-1 .1-1.3.3.8-.4.7-.9.6-.1.3-.1.6-.4.5 0-.1.1-.3.1-.4-.2.1-.4.1-.6.2.1-.2.1-.4.2-.7-.3 0-.6-.1-1-.1 0 0-.2-1-.6-1.1l.6-.6c-.1 0 .3-.7 0-1.5.6-.2 1 .2.7-.8-.7.3-.9 0-1.4.2.4-1-.3-1.8-.2-2.9-.3.5-1.2 2.1-1.7 2.3-.7.8-1 1 .1 1.3-.7-.7.6-1.7 1.3-1.5-.3.4-.6.3-.9.5.4.3.4.6.8.8-.2 0-.4.1-.6.1-.1-.4 0-.3-.3-.6-.2.9.1.9-1 .8.1.4.1.4.5.7-.1.2.4 2.2.5 1.8.8.1 1.1 1.2 1.9 1.6-.3.2-.5.2-.4.6.1-.1.2-.3.3-.4.2.6.4 1 .9 1.1-.2.3-.1.3-.6.2-.1.4.1.8.2 1.3-.4-.3-.3-.6-.7-.6.3.4.5.4.1.8-.3-.3-.4-.3-.4-.7-.7.2-.9.4-1.4.9.5.4.6.1 1 .8-1.4-1.1-2.9.5-3.7 1.6-.4.6.1 1.6-.2 2.4.3.4-.4.7.7 1.1H189l.9.3c-.7.5-1.9.8-2.2 1.9.1.9.4 1.9-.5 2.4-.6.3-1.5.9-.5 1.2-.7.8-2 1.1-2.5.3-.6.3-.8.2-.6.9.7.4.6 1 1.2 1.3-.6.4-1.3.5-1.7 1-1-.5-.9-.3-1.7.5-.5-.1-1.1.4-1.2.9.3-.1.6-.1 1 0-.3 0-.5 0-.5.3h.5c-.9 1 2 .6 2.6.2 0 .2.5.1.7.7.4-.2.5-.4.9-.3-.4.1-.3.1-.5.4h.4c-.1 1.1 2.7.9 2.1 1.8-.2-.1-.3-.2-.5-.2.7.6 1.4 1.1 2.4 1.5-.6-.1-.9-.6-1.5-.8-.4.4.1 1.5.5 1.8-.4.6.2 1.8.1 2.6-.8.7-1.5.2-2.1.9-1.7 0-3.8.9-5.1 1.5-.9.1-1.9 0-2.4 1 .4.4-.7.7-.9 1.1-.5 1 .5.3.5 1.2l.3-.3c.1.4 0 .7.4.6-.4.6.2 2 .8 2.5 0 .5.1 1.3.2 1.8.2.5 0 1.4-.2 1.9.3 2 .5.3 1.1.7-1 1.2.2.5.5.6-.3.5.5 1.9.5 2.6 1.4 0 3.1-2.1 4.1-.4.7.4 1.4 1 1.9.2 0-.4.8-1.5 1.2-1.6 1.1-.5 3.2-.7 3.4-1.7.1-.7.4-.9.9-1.3.5-.6.2-.7.3-1.5.1-1 .1-.8.6-1.6-1.8-1.1-1.2-1.9-.8-3.8.4-.4.4-.4.2-.9.4-.4 1.4-.9 1.5-1.3.2-.5.7-.8.6-1.3-.1-.4-.4-.6-.3-1 .1-.5-.4-.8-.4-1.3 0-1.4.7-1.7 1.9-1.6.8-1 2.1.6 3-.6.4-.5 1.6-2.4 1.8-3.3 1.1-1.4 2.8-.3 3.8.7.8.5 2.1.8 2.8 1.4.8.7 2 .7 2.9 1.1.7.4.8-.6 1.6 0 .3.2.9.4 1.4.3.3-.1 1.1.5 1.3.7.4.3.5-.3.9 0 .5.3 1 1.3 1.4 1.8.3.5-.4 1.8 0 2.1.9.8 1.1-1.5.9-2.1.4-.6.4-.7.2-1.4-1.5-.4-1.3-.6-1.1-2.1 1.3-.2 1.3.1 2.4.6-.2-2.6-3.3-1.1-5-1.9.1-.4.3-.5.1-.9-2.5.9-3-.4-5.1-1.5-.9-.4-2.2-.5-2.8-1.2-.5-.6 0-1-.7-1.4.4-.8.7-1.6 1.6-1.7.5.1.5 1.3 1.4 1.6 0-.5.1-.9 0-1.3 1.2.3 1.9.9 3 1.4-.2.1-.4.1-.6.2.1.8 3.2.9 3.9 1.1l-.9.3c.6.2.9-.3 1.6-.1 1-.3 1.4.3 2.1.1.9.7 2.7 1.4 2.2 2.9.2.4.4.9.8 1 .5-.1 1.4.4 1.6.8.3.5 2.6 1.9 2.7 1.4.8.3 1.9-.3 2.6-.2-.3.3-2 .6-2.4.5-.3.9-.2.9.7 1.2.7.2.4.9 1.2 1.2 0-.1 0-.3-.1-.4.6-.2.8.5 1.1.7-.2-1 0-.9.9-.8-.5-.4-.9-.9-1.5-1.3h1.5c-.5-.3-.8-.5-1.3-.7.6-.4.9-.2 1.5-.3-.6-1.2-1.5-1.5-2.8-1.4-.1-.2.1-.4.3-.6-.1-.1-.3-.1-.4-.2.2-.3.4-.5.6 0 0-1.2-3-1.3-1.6-2.9.1.3.2.3 0 .5.6.1.9.5 1.5.5-.4-.1-.5-.1-.6-.5.6-.2.6.3 1.1.1-.2-.3-.3-.3-.7-.4.3-.4.6-.3 1-.1-.2-.4-.8-.2-1.2-.5.2-.2.6-.9.7-1 .4-.4.9.3 1-.6.5.3 2.1.1 2.7-.1-.2.6-.5.5-.3 1.1.4-.7 1.1-2.1 1.7-2.4.6-.1 1.3-.5 1.4-1.1-.8-.1-1.7.1-2-.8-.2-.5-.7-.8-1.2-.9-.1-.5.3-.7.1-1.2-.5-.9.8-.9.3-2.1-.2-.7-.9-1.7-.6-2.4 1.6 1.2.6-1.1.3-1.7l.3.3c.4-.8.5-1.1.7-1.9-.4-.4.4-.7.6-1.2l.3.3c.2-.4.2-.6.6-.4-.2.4-.2.4-.5.6.4 0 1.1-.1.8.3.6 0 2-.2 2.2-.6.2.4.2.4.6.6-.6.5-.8.7-1.1 1.5.7-.2 2.3-.4 1.7.9.9.2 2-.9 2.4-1.7.3-.7 1-.4 1.5-1-.1-.3-.2-.5-.1-.8-.5.2-.8.2-.8.8-.5-.1-.5-.1-.7.3-.3-.1-1.6-1.2-1.8-1.1.1.6 1.2.9 1.7 1.2-.3.5-.9 0-1.1-.3-.1.1-1.8-.2-2.1-.4.2-.2.4-.2.6-.2 0-.1-.1-.2-.1-.4.6.2 1.5-.4 1.1-1.1.6.3-.1.5.3.8.4-.5.2-.8-.2-1.3.9.5 2.4-.7 2.6-1.6.1-.4 1.7-1.2 2.3-1.4.3.7-1.4 1.4-.2 1.6-.3.3-.6.4-1.1.5.5.4.8.5 1.4.4-.3.3-.3.3-.3.7-.4-.4-.4.7 0 1-.3.9-.7.1-1 .5.3.4.2.3-.1.6 1 .1 1.8.3 2.8.5 1.4-.4 2.9 1.5 4.4 1.2 1.3-.3 3.4 1.8 2.6 3.2-.7 1.2-3.1 2.3-4.5 2.2-.3.3-1.7.1-2.2.3-1-1-.7-.5-1.6-.1-.7-.3-.9-1-1.3-.2-1.4.4-1.8 1-3 1.6-.8.4-.9 1.2-1 1.9-.5.2-1.7.6-1.9.5-1.3-.3-1.9 1.1.1 1.1-.7.8-1.6.4-.7 1-.4.7-1.2.2-1.7.8-.1-.7-.3 0-.6.2-.3.1-.5-.1-.9.1-.6 1.1-.2.9-.3 1.9 0 .7 1-.5 1.3-.2-.3.5.1 1.5.5.8.2.4-.1.5-.3.8.5.2.1.1.3.5-.4.1-.5-.3-.7-.2.1.4.2 1.4.7.9.6.3 1.1-.1 1 .9.4 0 .6.5 1.1.4-.1.3-.2.2-.3.5.4.1 1-.3 1.4-.5-.3.5-.7.6-1 1.1.5.1.5-.1.9-.4.2.1.1.2-.1.3.8-.1 1.3-1.6 1.9-.2 1.1 0 2.9-.6 1.9-1.9 1.2-.4 2-.6 3 .1.8.1 1.8-.3 2.2-1 .4-.1.6-1.1.8-1.5.4 0 1 .1 1.4-.1.1-.3.1-.6.5-.7.3.7-.4.9.3 1.5-.1.7 0 .7.7 1.4.6 1.4.1 2.9.5 4.5h-.4c.8 2.4-.3 4.5-2.8 4.3.2.3.4.4.5.7-.4-.2-.5-.3-.9-.3 0-.4-.3-.3.3-.3-.7-.2-2.9.6-2.9 1.5-.1 1.1-3.5 1.4-4 1-.8.3-1.7.6-2.5.7-1.2.5-1-.4-2.2 0-.8.2-1.8.8-2.2 0-.9-.2-1.5-.1-2.2.2-.4 0-1.3.7-1.7 1.1-1.2 1-.5 2.3.4 3.1.1 3.3-2.7 1.8-4.7 1.7-1.2-.1-1.9.9-2.9 0-1.1-1-.7-1.4-2.5-.9-1.6-.7-4.3 2-5.7.1-.4.8-1 .3-1.9-.1-.2-.9 1.1-1.7.7-2.5 0-1-1.3-.8-1.5-1.5-.2-.6.4-1.2 0-2-.2.4-.4.8-.6 1.1-.4-.3-.7-.5-.9-1-.8.4-1.4.6-1.8 1.6-.4-.5-2.5.9-3 1.1-.6-.5-.9.1-1.1.6-.3 0-.6.4-.9.6-.4.2-1.2 0-1.9.2-1.8.6-3.4 2.2-5.1 3.3 0 .9-.8 1-1.6 1.7-.1 1.3-1.6 1.9-2.6 1.2-.6.8-3.4 2.1-3.8.5-1.2.9-.2 2.2-.7 3.6-.5 1.4-1.9 2.3-2.6 3.6-.5 1 .5 1 .1 2.1-.4 1-.4 1.2.2 1.9.1.7.4.8.6 1.5-.4 1-.4 2.1-1.3 2.8-.5 1-1.8 1.5-2.1 2.5-.2.7 0 1.5-.5 1.9-1.5 1.5-.2 3.1-1.2 4.6-.8 1.2-.2 2.5-.5 3.7-.2.9-.2 1.6.4 2.7 0-.1.1-.3.2-.4l.3.3c.1-.1.2-.2.2-.3.4.3 1.3 1.4.6 1.7 1.6 1.2 1.7 2.6 1.8 4.5.4 1 .4 1.3 0 2.3-.3.9.5 1.2 1.4 1.3-.1.3.2.6.5.9-.7-.1-.1.6.1 1 .3-.3.4-.2.8-.1-.2.3-.2.3-.5.3.6 1.3 1.9.2 3 .4-.3.1-.5.3-.8.4.2.2.3.2.5 0-.1.1-.2.3-.3.4.2-.1.3-.1.5-.2 0 .2-.1.3-.3.3.1.2.9-.1 1.3.2.6.3.6 1.2 1.5.7.6.6 1.5.7 2.1 1.4-.2 1 2.3 1.4 2.2 2 .8-.2 1.5 0 2.3-.1-.3.3 2.7 1 3 1.2.8.5 3.4.7 4-.1.6-.2.9-.7 1.3-1.1.8-.3 1.9-.5 2.6-1.1 1-.8 1.4-.2 2.4-.4 1.5-.3 2.8-1.1 3.7-2.5 1.7-.9 3-1.9 4.8-2.8 1.1.1 1.9.1 2.7 1 .8.8 1.1 1.1 2.2.6.4-.2 2.8-1.1 2.6-1.6.5.1.8-.3 1.2.1.5.6.7.4 1.2 0 1 1.2 1.2 2.5.8 4.2.9 0 .2.8 1.1.7-.4.3-.4.3-.9.2.1.6.7 1.8-.4 1.4.5.5 1.9.8 1.9 1-.3.2-.5.1-.9.1.7.5.9.8 1.9.7-.2.1-.3.2-.5.3 1.1.3 2 .6 3 .9 1.1.3 1.6 1.8 2.6 1.5-.5.5-.2.7.4.9.7.3.7 1 1.4 1.4 0 .7-.2.7.2 1.3.3.4 1.3 1.4 1.6 1.4.5 1.8-1.4 2.4-1.1 3.8.2 1-.4 2.2.1 3.3-.1-.1-.2-.1-.3-.2.3.1.4.7.5.9.2.9 1.4.9 2.2 1.4.9.7 2.1 1.7 3 2-.1.1-.2.2-.3.1.7 1.4 1.8 3.3 3.2 3.5 1.1.2 1.4.9 2.5 1.3 1 .4.5.5.2 1.1.2 0 .6.2.8.2-.1.2-.2.3-.1.5-.1-.1.9-.4 1-.2 2.5-.8 5.1-2.7 7.2-3.8 0-.1-.1-.1-.1 0 .3-.5 1.1-.7 1.6-1.1.9-.7 1.7-1.5 2.4-2.3.8-.9 3.6-3.8 3.6-5 0 .1.8-1.7.6-2-.2.2-.3.2-.5 0 1.1-1.1 2.8-2.3 3.4-3.8-.1-.1-.2 0-.3.1-.3-.3.6-1.1.1-1.7v.4c-.1 0-.8-2.1-1-2.2.8-.2 2.6-2.4 2.5-3.2.5.5 3.5-4.2 3.9-5-.1-.1-.2 0-.3.1.2-.4 1-1.3 0-1.2.8-.7-.5-2.7 0-3.6-.1-.8-1.3-.5-1.3-.8-.4-.7-1-1.2-.5-1.9-.7-.1-.3-.8-.1-1.2-2-.7-.7-2.6-.3-4.2-.2-1.2 1.3-1.8 1.2-2.9.8-1 .7-2.9 1.8-3.7.9-1.9 2-3.6 3-5.4 1-1.7 1.5-3.5 2.1-5.3-.2-1 1.1-3.1.4-3.9 1.9-3.1 1.5-6.1 1.1-7.7zm31.1-15.8c0 .7-.1 1.4-.1 2.2 0-.5-.3-2.7 0-2.7.1-.5 0-.1.1-.5-.1-.1 0 .9 0 1zm-138.6 97.1c-15.4-4.6-29.7-12.7-41.5-23.6.1 0 .1 0 .1.1.2.2-1.6-1.5-1-1-.4-.4-.9-.8-1.3-1.3l.2.1-.3-.3c.2.1-.3-.3-.4-.7-.2-.5-.7-.8-1-1.2-.8-.9-2.5-2.3-2.9-3.3.1.1.2.1.2.2-.1-.1-.6-.8-.3-.3-.3-.3-.5-.6-.8-.8-.1.1.4.6.1.5.2.3.4.5.6.7-.1-.1-.1-.1-.1 0 0 0-.6-.7-.7-.7l.3.3c-.5-.5-.9-1-1.4-1.5l.3.3c-.7-.7-1.2-1.4-1.8-2.1.2.2.4.5.6.7-.2-.2-1.2-1.4-1.2-1.4s-3.4-4.5-3.5-4.6c.4.4.2.1.2.1.3.4.6.7 1 1-.1.1-.1-.2-.2-.2.1.1.1.1 0 0l.3.4c.1 0-.1-.2-.2-.3 1 1 1.4 1.9 2.2 2.9 0-.1-.3-.5-.4-.5.9 1.2 1.9 2.4 3 3.5l-.2-.3.7.7c-.1-.1-.2-.3 0-.4.7.7 1.5 1.4 2.2 2 .1 0-.6-.7-.6-.7.3.2-.5-.6.1-.4-.2-.2-1.1-1.2-.7-1.5.2.2.4.3.5.5.1-.1-.4-.5-.3-.6.6.2.6-.2.3-.6.3.1.2-.1.1-.2 1 .6 1.2 3 2.5 3.3-.1-.8-1.1-1.1-1.2-1.9.2 0 .5-.1.7-.2-.4-.3-.6-.2-.7-.9.6.4.6.9 1.3 1 .1 0 .9.4.7.6.6.6.7.2 1.4.4.6.1.9.7 1.4.2.5-.5.9-.2 1.6-.3-.3.3-.4.1-.6.3.3.2.5.3.7.6-.3-.4 2.6 1.4 1.6 1.3.8.3.9-.1 1.9.4.6.7 1.4.8 1.8 1.7.4-.5 1.4.1 1.8.7.4-.4 2.7-.3 2.9.3.6-.8 2.8 1.2 2.7.8.2.1.8.4.5.7.2-.3.1-.3-.1-.5.4.2 2.9 2.5 2.9 2.5-.1-.1-.3-.2-.4-.3.2.3 1.1.9 1.3 1-.3.5-.6 1.8-.1 2.5-.1-.3-.2-.3 0-.6.2.1.3.5.4.7-.3-.6.4-.7.5-.6-.3-.2-.3-.2-.3-.6.4.1 3-.1 2.3.9-.1 0-.3 0-.4-.1 1.1.5-.6.7-1 .8.4.1.9.1 1.2-.1.3.8.2 1 .9 1.6-.3-.4-1.1-1.7-.4-1.9 0-.7.5-.7.6-.7.1-.2 2.5.4 2.5.3.1.2.3.3.4.5-.1-.9 1.6.8 1.8 1.2.1-.2 0-.2-.1-.3.1-.3.3 0 .4.1-.2-.5.3-.1.1-.4.1 0 .2.1.3.1l-.2-.2c.5-.1 1.4.1 1.9.2-.1-.1-.1-.1 0-.2.1.1.2.1.3.2-.1-.1 2.5-.1 3.2.1.7 0 4.3 1.1 4.4 1.7.6-1.4 3.3 1.2 3.9 1.6-.2.6.1.4.2 1.1.1.7-.2 1.5-.4 2-.9.7.2 1.4-.7 2.3-.2-.1-.2-.2.1-.3-.1-.1-.3-.1-.4-.2.2.3.2.3-.1.2.3.4.4 1.1.8.9.1.5 2.1 3 2.3 3.3-.1.1 1.2 2.5 1.2 2.5-.2 0-1.1.2-.5.4-.3.1-1.5-.1-1.3-.1-.4-.1-.5.1-1 0-.1.1 0 .2.2.2-.3 0-.3-.1-.6-.1l.5.2c-.1 0-.7 0-.4.3-.7-.3-1.4.6-1.7.4-.1.2.8.3.1.2.2.1.3.2.5.3 0 0-.6-.3-.6-.2.6.3 1.2.5 1.7.8-.6-.2.2.1.2.2-.2 0 .2.5.4.8-.2 0-.4 0-.5-.1h.3c-.3-.1 0 0 0-.1-.1-.1-.6-.2-.1-.1-.4-.2-.8-.3-1.2-.4.5.2.6.3 1 .5-.1 0-.3 0-.4-.1.3.1.3.1 0 0 .1.8 1 1.1.9 1.1zm-56.7-40.7c-1-1.4-2-2.9-2.9-4.3 0 0 .1 0 .1.1 0-.1-.1-.1 0-.1 0 .2.1.2.2.2 0-.1-.1-.1-.1-.2.4.6 1.6 2.4 1.5 2.5.1.1.6.9.6.9-.1-.2-.3-.4-.4-.6 0 .1.3.5.2.3.3.4.5.8.8 1.1-.1-.1-.1 0 0 .1zm-8.1-13.3c-10.1-19.7-13.6-42.4-10.8-63.9v-.3.1s.3-2 .2-1c.1-.5 0 .2 0 .3v-.2c0 .2-.1.4-.1.6.1-.3.1-.6.1-.8-.1.6-.3 2.2-.3 2 0 .2 0 .4-.1.5 0-.2.1-.4.1-.5-.1.6-.1.8-.2 1.3.1-.9.3-2 .4-3v-.1s.4-2.3.5-2.7c-.1.2-.1.5-.2.7.1-.6.2-1.1.3-1.7l-.1.5c.1-.3.1-.6.1-.8 0 .1-.1.2-.1.3 0-.2.1-.4.1-.5 0 0 0 .3-.1.3.1-.5.3-1.8.5-2.6 0 .1 0 .2-.1.3.2-.7.3-1.5.5-2.2 0 .1 0 .2-.1.3.1-.3.2-.7.2-1 0 .1-.1.3-.1.4.1-.5.3-1 .4-1.6 0 .2-.1.4-.2.6 0-.1 0-.1 0 0 0-.1.1-.2.1-.3 0 .1 0 .1 0 0-.3 1.4-.4 2.7-.8 4v-.3c0 .2-.1.4-.1.6.1-.4-.2 1.3-.2 1.1v.3s.1-.6.2-.6c0 .1 0 .2-.1.3.1-.2 0 0 .1-.3-.2 0-.4 2.6-.5 3.2.3-1.2.3-1.8.6-3 0 .6-.6 4.7-.3 4.7.1-.2 0-.4.1-.6 0 .1 0 .1.1.1.1-1.3.5-2.7.7-4 .1.5.3-1.1.2-.9 0-.6.1-1.5.3-1.9.1 0 0 .1.2-.3.3.1-.1.2.2.3.1-.3.1-.2.3-.4-.1.2-.1.3-.1.5v.5c.2 0 0-.3.3-.3-.1.4-.3.7-.4 1.1.3-.4.1 1.1-.4 1v1c0-.1 0-.1.1-.2-.5 1.6 0 3.4-1.1 5.1.1-.5 0-.8.1-1.3 0 .1-.1.2-.1.3v-.5c-.1.2-.2.4-.2.6 0-.1.1-.2.1-.3 0 .5.1 1 .1 1.5-.2 0-.2-.3-.2-.3-.1.2 0 .4 0 .6 0-.1 0-.4-.1 0v-.7c-.3.8-.1 2.9-.9 4-.1-.4-.1-.7-.2-1.1 0 .1-.3.6-.3.6s.1-.2.2-.2c0 .4 0 .7.1 1.1.1-.1.2-.4.4-.4 0 .8-.5 3.4-.7 3.4v-.4c0 .3 0 .6-.1.9v-.6 2c0-.2-.1-.3-.1-.5-.1.4-.2-.4-.2-.4v1.5c0-.3.1-.5.1-.7.3 0-.1 1.8-.1 2-.1 0-.1-1.1-.1-1.2 0 .6.1 1.2 0 1.8 0 0-.1 0 0 .1v-.3 1.2c0-.3-.1.7-.1 1v1.7c.1.1 0 1.8 0 2.1 0 .6.1 2.4.1 2.3.1.6.1 1.2.1 1.8 0-.5-.1-1.1 0-1.6.1 1.2.3 2.5.2 3.8 0-.1 0-.9.1-.3 0-.3.1-.5.1-.8.5.6.6 1 .8 2v-.3c.5.6.6.9.6 1.6.1-.5.5-.8.5-1 .1 0 .2.1.2.2-.1-.2 0-.3.2-.2.2 2 .9 4.1.8 6 .1-.2.2-.2.4-.3.3.6.3 1.2.3 1.9 0-.2.1-.4.1-.6.3-.1.4.6.5.8-.1-.6-.4-1.2-.2-1.8.1.4.2 1.2.6 1.2-.4.1-.5-1.2-.6-1.5.4-.1-.8-3.7-.4-3.7-1.3-1 .3-3.8.4-5.4 0 .2.1.3.3.1 0-.2-.1-.4-.3-.6v.4c-.1-1-.9-4.4-.9-4.2-.4-.8.1-2.1.1-2.9.1 0 .1.2.2.2 0-.4 0-.7.1-1.1-.3 0-.2-.7-.1-1-.3 0-.2-.3-.1-.6-.5.3 0-1.5 0-2.1 0 .1 0 .1-.1.2-.1-1-.4-2.4.9-2.2-.1.1-.1.3-.1.4.1-.2.2-.4.2-.6.1.1.2.2.3.2 0-.4.2-.5.4-1 .5.5.5.6.5 1.3.3-.4.4.2.2.4.2-.2.2-.1.2-.4.3.6-.2.5.1 1.1 0 0 .5-.2.8-.4.1.4-.2.3.1.8.1-.3.1-.6.2-1 .2.8 0 1.7 0 2.4.1.2-.7.3-1.1.9 1-.8 1.6.3 1 1.1l.3-.3c.1.3.1.5.1.9-.2-.3-.2.4-.2.4 0-.1-.1-.3-.2-.4 0 .3 0 .5-.1.8.9-.6-.1.1.3.1.4-2 .8.3.5 1.3.4-.5.2-1.2.5-1.8-.1.4 0 .8-.1 1.2.1 0 .1-.8.1-.9.1.4 0 1 .2 1.4-.2-.5.2-1.4.3-1.9 0 .1.1.2.1.3 0-.4.1-.9.2-1.4.3.3.3.6.3 1.1.1-.4-.1-1.1.1-1.1 0-.1 0-.7.1-.4 0-.2-.4-1.1 0-.6 0-.3-.3-.7.1-.3 0-.2-.1-.3-.1-.5.1 0 .2 0 .3.2-.3-.9.2-1.8 0-3 .3.3.4.7.2 1.1.1-.1.2-.1.3-.1-.1.3 0 1.6.3 1.8 0-.1 0-.2.1-.3.4.4.3.7-.2.9 0 .1.1.2.1.3.2-.3.3-.3.5-.6 0 .2 0 .4-.1.6.1 0 .2 0 .2-.2.1.5.1.9-.4.8v.7c.2-.3.5-.6.7-.9.1.6-.2 1-.4 1.5.2-.3.3-.5.6-.7.1.2 0 .3-.2.5.1.1.4-.1.7-.1-.4.3.2 1-.6 1 .3.3.3.1.7.1 0 .2-.1.3-.1.5 1.2-.6-.4 1.4-.3 1.3.7 0 .6.8.2 1.1.4-.2.3-.3.6-.6.2.2.3.6.3.8.2-.7.4 0 .4.4 0-.3.1-.6.1-.9.1.8 0 1.3 0 2.1.1-.3.1-.6.3-.8 0 .2-.1.4-.1.6.1-.4.2-.7.4-1 0 .2.1.3-.1.6.1-.1.2-.2.2-.3.2.3-.2 1-.3 1.3.2 0 .6-1.1.7-1.3 0 .2.1.4.1.6.7 0 .8-.6 1.4.1-.4 0-1.4 1.3-1.7 1.8.2 0 .2-.2.5-.4.1 0-.1.7-.2.7-.2-.3-.7.7-.8.7.5.5.1.4.1.9.6-.4.9-2.8 1.7-2.8-.2.1-.3.1-.3-.1 1.1-.4 1 .2.7 1.1l.3-.3c0 .2 0 .3.2.3 0-.3.1-.5.3-.7.3.3.4 0 .6.3-.1-.1-.1-.1-.2 0 .1 0 .4.4.5.4-.2.3-.4.4-.4.7.1-.1.2-.1.3 0-.3 0 .2.6-.4.7.3.1.6 0 .8.3-.2.1-.3.1-.5 0 .3.4.6 0 .5.7-.1 0-.8 1.8-.9 1.9-.3-.3-.6 0-.7.4-.1-.1-.2-.1-.2-.2 0 1.2-.9 3.6-2.3 3.8.1-.1 0-.2-.1-.3-.4.3-.7.5-1 0 0 .2-.1.3-.2.5-.1-.1-.2-.1-.2-.2-.1.3-.2.5-.5.3-.1.5-.5.1-.8.6-.1-.1-.3-.2-.4-.3-.1.8-.3 1.5-.2 2.5-.6.5-.6.9-.9 1.5-.1 1.3-.2 3.3-.8 4.4.7-.8 1.3-7.3 3.4-5.8.4-.1.4.9.3 1.1-.4 1.2-1 .4-1.3 1.3.5-.4.7-.2.9.3.1-.4.1-.6.5-.7 0 .5 0 .9-.1 1.4.6-.1.3 1.6 1.4 1.4 0 .2 0 .3-.1.4.6.3 1.3.3 1.5-.5.1.1.1.2.1.4.4-.1.7 0 .5.4.1 0 .3.1.4.1 0 .3-1.5 1.9-1.8 2 0-.1 0-.3-.1-.3-.4.5-.1 2.4-.6 2.6-.2-.2-.2-.3-.3-.5-1.1.3 0-2.5.3-3 .1.1.1.2.2.2s.4-.6.5-.6c-.4.1-.6.4-1 .4 0 0 .1-.9.1-1-.1.3-.1.3-.1 0 0 .7-.4 1-.6 1.5-.1 0-.2-.1-.3-.2.1.4-.1.3-.3.7-.2-.3-.2-.2-.5-.2.8.6.3 1.1 0 1.6-.2-.4-.3.1-.4.3-.1-.1-.1-.2-.2-.4 0 .4 0 1.4-.3 1 0 .2-.4 4.3.6 4 .1-.2-.1-.5 0-.5.1.2.3.9-.1 1 0 0 0-.3-.2-.2v.6l-.3-.6c.2.9-.5 1.2-1 2 .2.4 1 3 .5 3.2.1 0-1-1.3-.6-1.5 0 0 1 3.8 1 4.3-.2-.4-.2-.9-.3-1.3 0 .4-.2-.2-.2-.2 0-.1-.6-1.6-.7-2.1-.3.1.5 2.1.6 2.3-.3-.3-.4-.3-.6-.7 0 .5.6.8.8 1.3l-.2-.2c0 .1.7 1 .2.6 0 .1.1.3 0 .4.8.3.7 1.3.8 1.8l-.3-.3c.1.2.1.4.1.6.1-.1.2-.3.3-.3.1.2.1.3.2.5.1 0 0-.4-.1-.4.1.1.4.9.2.9-.1-.1-.2-.1-.3-.3.1.3.2.4-.1.2.1.1.7 1 .2.6 0 .1.1.2.2.3.2-.1.1-.3.2-.3.2.5-.3 1.1-.2 1.8.4.7-.2 2.7.4 3.9 1.1 2.3 2.5 4.4 3.5 6.8-.1-.1-.1-.1-.1.1-.1 0-.2-.1-.2-.1s-1.1-1.6-1.3-2.1c0 .1 0 .1.1.2-.3-.4-.5-.9-.7-1.3-.1 0-.1.1 0 .2-.4-.6-.8-1.4-1-2 0 0-.6-.7-.7-1-.1 0 0 .4.1.4h-.1c-.3-.6-.4-.6-.7-1-.1 0-.1.1-.2-.1.3.6-.1-.1 0 .2-.1-.2-.3-.4-.4-.7l.3.6c-.4-.6.1.2-.2-.1.3.8.5 1 .9 1.7-.1-.3-.3-.5-.4-.8.1.2.2.3.2.5 0 0-.3-.6-.1-.1.4-.3-.1-1.3.1-.9zm-10.5-65.7s-.1.7 0 0v.2c.1-.7.2-.8.3-1.5 0 .1-.1.2-.1.3 0-.2 0-.7.1-.8 0 .2-.1.4-.1.5.1-.5.1-.9.2-1.4 0 .1-.1.6-.1.3l-.3 2.4zm.4-2.7c.1-.1.1-.3 0 0zm1.3-5.9l.1-.4c0 .1-.1.2-.1.4zm.1-.7zm.6-2.3c-.2.9-.4 1.4-.5 2.1.2-.6.6-2.3.6-2.3s.1-.6.2-.6v.2c.4-1.2 1-2.8 1.4-4.4-.1.2-.2.5-.3.7 0-.1.1-.2.1-.3-.1.2-.1.4-.2.6 0-.1.1-.2.1-.3-.5 1.4-1 2.9-1.4 4.3zm3.3-10.1c.3-.8.7-1.7 1-2.5 0 .1-.3.8-.1.3-.1.2-.1.3-.1.1 0 .1-.1.2-.1.3.1-.3 0 .1 0 .1 0-.1.1-.2.1-.3-.1.2-.1.3 0 .1-.2.5-.5 1-.4 1-.1.3-.3.7-.4 1 .1-.2.2-.4.2-.6 0 .1-.1.2-.1.3.1-.1.1-.3.2-.4.1.1-.1.5-.3.6.1-.1.2-.4.3-.5-.1.3-.2.5-.3.8l.3-.7c0 .1-.1.3-.1.4 0 0 .1-.3.2-.4v.2c.1-.2.1-.3.2-.5 0 .2-.1.4-.2.6.2-.4.3-.5.6-1.2v.2c.2-.5.5-.9.7-1.4.1 0-.1.1.1.1.1-.1.4-.9.5-.8l-.1.4c.1-.1.1-.2.2-.4 0 .2-.1.4-.2.6 0 0 .1-.3.2-.3 0 .6-.6 1-.6 1.6.1-.2.1-.3.3-.5-.2.6-.2.6-.3.6-.2.9-.6 1.4-1 2.1 0-.1 0-.2.1-.3l-.2.4c.1-.4.2-.9.3-1 0 0-.5 1.8-.7 1.7l.1-.5c-.1.2-.1.4-.2.6l.1-.4c0 .1-.2.8-.3.8.1-.1.1-.3.1-.4 0 .1-.2.6-.2.6l.1-.4c-.1.3-.1.5-.3.7.1-.1.1-.2 0-.2-.1.4-.1.2-.2.5 0-.2 0-.1-.1.1.1-.4.3-.7.4-1.1-.1.2-.1.4-.2.6l.1-.4c-.1.2-.4 1.2-.5 1.2.1-.3.2-.6.3-.8-.1.3-.2.5-.3.8-.4 0 .7-3 .8-3.4zm1.6-3.9c.2-.4-.1.4 0 0zm.2-.3c.1-.3.3-.6.4-.9-.1.2-.4.9-.4.9zm1.5-3.5c.3-.7.6-1.3 1-2-.2.5-.2.5-.5 1.1.1-.2.2-.3.2-.5-.2.5-.9 2-.7 1.4zm1-2c0 .1-.1.2-.1.3l.9-1.8c-.1.1-.1.3-.2.4.5-1 1-1.8 1.4-2.6-.1.3-.3.6-.5.9.1-.2.2-.5.3-.7-.6 1.2-1.2 2.3-1.8 3.5zm2.2-4.1l-.9 1.8c-.1 0-.1-.1.1-.2l-.3.6c.3-.4.6-.9.9-1.4 0 .1-.6 1.2-.7 1.2.3-.4-2.2 3.4-1.9 3.5-.1.1-.1.3-.2.4.2-.3.4-.7.6-1-.1.3-.2.5-.4.8.4-.7.7-1.4 1.1-2.1-.4.7-.5 1.1-.8 1.7.1-.1.1-.2.2-.3-.2.4-.4.7-.5 1.1.1-.1.1-.3.2-.4-.2.4-.2.3-.4.8.1-.2.2-.3.2-.5-.1.2-.2.5-.3.7.6-.7.8-1.6 1.3-2.4-.1.2-1.3 3-1.6 2.9 0-.1.4-.9.3-.9-.2 0-.8 1.8-.8 1.8.1-.1.1-.2.1-.3l-.2.5.1-.2s-1.5 3-1.7 3.6c.2-.4.3-.9.5-1.3 0 0-.5 1.1-.4 1.1.1-.2.2-.5.4-.9l-.2.6.3-.9c.1 0-.2.7-.2.7.4-.5.1-.1.1-.1.2-.3.3-.7.4-1.1 0 .1 0 .2-.1.3.1-.3.3-.7.4-1 0 0-.2.6-.2.7.3-.4.3-.9.6-1.3-.1.3-.3.7-.3 1 .3-.5.4-1 .6-1.5l-.1.5c.3-.4-.1.3-.1.4.2-.2.2-.2.3-.5 0 .3-.3.6-.3.8h.1c.1-.1 1-1.9 1-1.9 0 .2-.1.3-.1.5.3-.6.6-1.3.8-2-.1.1-.5.8-.5.8.1-.2.1-.3.2-.5-.1.1-.1.2-.2.3.1-.3.3-.6.4-1-.2.3-.3.5-.5.8.1-.1.2-.3 0-.3 0 .1-.4.8-.4.8.2-.6.4-1.1.7-1.7-.1.2-.3.7-.1.8.3-.4.5-.8.8-1.3 0 .1-.1.2-.1.3.5-.6 1.2-2 1.2-2.2.3-.5.6-.8.8-1.4-.2.2-.2.3-.4.4.1 0 .8-1.1.9-1.3-.5.4.1-.3-.3.2.1-.1 1.3-1.6 1.1-1.7-.1 0-.2.1-.3.2.1-.1.1-.2.2-.3 0 0-.1 0-.1-.1-.1.1-.5.6-.4.6.1-.1 0-.1-.1-.1.2-.3.6-.4.8-.9-.2.2-.4.4-.5.6.1-.3.4-.5.6-.8 0 .1 0 .1-.1.2.3.2.6-.8.7-1-.3.4-.7.6-1 1 .1-.1 0-.1-.1 0l.4-.6c-.2.5.3-.3.3-.4-.1.1-.1.2-.2.2.3-.6 1.1-.9 1.4-1.9l-.4.4c.2-.2.3-.4.4-.6.1 0 .1.1-.1.2.1-.1.2-.1.2-.2-.2.7 1-.9.8-1 0 .2-.1.2-.1.2.2-.3.4-.5.6-.8-.1-.1-.5.4-.6.5.1-.2.2-.4.3-.5-.1.4.6-.6.7-.8-.1-.1 0-.2.1-.4.1.1-.1.2-.1.3.1.1 4-5.3 4.3-5.8-.9 1-1.9 2-2.7 3.1.1-.1.1-.1 0 0 .5-.9 1.4-1.6 2.1-2.5-.2.2-.4.4-.7.5l.3-.3c.1-.1 4.5-4.6 4-5-.2.2-.4.5-.7.7.4-.7.5-.8.9-1.4-.2.2-.4.5-.6.7.1-.2.2-.3.3-.4l-.5.6c-.1-.1 0-.1.1-.2-.7.6-1.3 1.4-1.9 2.2.6-.7 1.2-1.5 1.9-2.2-.3.2-.5.4-.7.7-.1-.1.2-.3-.3.2-.1-.1-.2.4-.3.3.1-.1.3-.4.3-.4s-.9 1-.8 1c-.2.2.2-.3.2-.4-.4.5-.8.9-1.2 1.4 0 0 .2-.3.2-.4-.6.7-1.1 1.5-1.7 2.2.1-.2.3-.4.4-.5-1.9 2.5-3.7 5.2-5.4 7.9.1-.1.2-.3.3-.4-.6.9-1.1 1.8-1.6 2.7l.9-1.5-.2.3c.2-.3.3-.5.5-.8-.1.1-.7 1.4-.8 1.4l3.2-4.8c-.1.2-1.7 2.5-1.6 2.5.2-.4.5-.6.7-.9-.4.7-1.1 1.4-1.5 2.1 0 0 .3-.4.4-.4-.6 0-1.8 2.7-2 3.2.1 0 .2-.2.2-.2l-.3.6c.1-.3-.1.1-.1.1s.3-.8.4-.9c-.5.7-.9 1.5-1.2 2 .4 0 .3.1.3.2zm64.7-39.5c.3 0 1 .2.8-.3-.2.1-1 .3-.8.3zm.9 2.6c1.4.2 2.8-.6 3.7-.2.7-.2.6-.6 1.2-1 1 0 .5-.3.7-.8.8-1 .7-1.5-.6-1.4-.6.2-3.1.3-2.2.9-.4 0-1.2-.7-1.4-.3h.3c-.1.1-.5 0-.4.2.6.1.2.5.8.6-.1.4-1.1.2-.8-.2-.4 0-.6.5-1 .4-.4 0-.7-.1-1.1-.1.2-.2.2-.2-.1-.2-.4.7.2.2.4.8-.2.1-.3.1-.4-.1-.1.3.2.4.3.6-.4-.1-.9-.2-1.3.1.3.2.2.2.5 0 .1.3-.1.2.3.2-.2 1.3 2.8-.5 3.2-.7.1.5-.8.6-1.1.8.1 0 .7-.2.8-.1-.3.2-1.7.4-1.8.5zm-6.6 4.7c.2.5 1.5 1.2 2 1-.2-.4-1.7-1.2-2-1zm8.1 3.2c0 .2 0 .3-.2.3-.2-.5-.3-.5-.8-.6-.4-.1.3-.5.2-.7-1.1.4-1.5.3-2.6-.1-1.2-.4 1.2-.8 1.5-1.2-.2-.1-1.2.4-1.3.1.4-.1 1.9-.9 1.8-1.2-1.1.3-2.6 2.3-3.2.9.8-.6 1.7-1.3 2.6-2.2-.3 0-.5.3-.8.3-.1-.2 0-.3.1-.4-.1-.2-.3-.2-.4-.1.1.4-.2.9-.6 1-.2-.5 0-.6-.4-.9-.1.5.1.2 0 .7-.1-.2-.3-.3-.6-.2.7.9.5 1.3-.6 1.7.3-.4-.9-.4-1.1-.5.2 0 .4-.1.5-.3-.5.1-.8.1-1.4 0 .2-.3-.3-.2-.6-.4.5 0 .8.2 1-.3-.7.3-.8 0-.6-.6-.2.1-.2.2-.4.1.1.4.2.4-.1.6-.2-.6-1-.2-.4-1.1.5-.7-.4-.2.8-.4-.1-.2-.2-.2-.4-.2 0 0 1.4-.9 1.8-.7-.3.3-.8.4-1 .9.1 0 .8-.6.9-.4l-.3.3c.6-.3.5.2 1.1.3-1.4-1.6 1.3-1.6.9-.2.3 0 1.1.2 1.3 0-1-.7-2-3.3-.6-2.1.5-1.2 1.1.9 1.4.9.4-.5-.7-1.2.7-.7.5.7.7.2 1.4.5.6.2 1.5-.3 1.7.4-.3.2-.9.5-1.3.7.1 0-.2 1.2.4 1.4-.2.2-.2.2-.5.2.1.4.4.4.5.8.1.4-.8.7-.2.7-.5.7 1 2.9-.2 2.7zm-.3-7c.3.2.5.1.8 0-.1-.3-.6-.2-.8 0zm3.1 1c-.2-.3-.2-.4 0-.7-.7-.1-1.6.2-1.9.9.4-.1 1.1 0 .8.4.4 0 .7-.3 1.1-.6zm1.8 2.2c0-.1-.1-.7-.1-.9-.7.4-.9.9-1.7 1.3-.3-1.1.7-1.4-.8-1.6.3-.4.6-.5 1.1-.8.4-.5 1.3-.4 1-.1-.4.1.2.4.4.4.4.1.9-.3 1.6-.3-.8.4-1 2.3-1.5 2zm1.8-4.5c-.2 0-.4 0-.4-.3-.2.2 0 .4.2.6.2 0 .2-.1.2-.3zm.5-.5c.1-.7.8-.7 1.4-.8-.2.2-1.5.6-1.4.8zm-2.4-2.8c.1.3.2.2.4 0-.2-.1-.3-.1-.4 0zm3.2-1.1c.3-.3.8-.8 1.2-.7-.4.3-.7.9-1.2.7zm12.1-6.6c-.2 0-.3.1-.3-.1.3-.2.5.1.3.1zm-1.1 1.3c.4.1.7.2 1-.1-1.5-.4-2.1.4-3.2 1 .4.3 1.6.2 1.4 0 .3-.1.5.1.8.1 0-.4-.7-.4-.9-.5.3-.3.5-.4.9-.5zm2.1 1.3c-.3 0-.4-.2-.7-.3.1.8-.6.2-.9 0 0-.3.4-.3.6-.4-.6.1-.8 0-1.3-.2.6-.3 1.8 0 1.7-1 0 0-.6.1-.6 0 .3-.2.3-.4.6-.1 0-.2.1-.4.3-.5 0 .4.2.2-.1.6 0-.4 1.2 0 1.4 0-.2.2-.9.3-.9.6.3 0 .4-.1.6.1l-.9.3c.6.1.4.7.2.9zm1.4-.6c0-.5-.3-.4-.7-.4 0 .4.5.4.7.4zm.3.1c0 .3.8 0 1-.1 0-.2-.9-.4-.9-.3.4.5-.1.2-.1.4zm.5-4.4c.1-.1.3-.2.4-.2 0-.4-.7-.1-.9 0 .2.1.2.2.5.2zm2.4.1c.3-.1.3 0 0 0 .1 0 0 0 0 0zm-2 0c-.5-.1 0-.1 0 0-.1 0 0 0 0 0zm.5.1c-.3.3-.9.4-1.2.2.3-.1.8-.3 1.2-.2zm.5.2c-.1 0-.2 0-.3-.2.5-.1.3 0 .3.2zm-.7.6l.2-.5c-.3 0-.9 0-.9.4.2-.1.3-.1.5 0-.3.1-.5.2-.7.3.3.1.6-.1.9-.2zm.7-.1c-.1 0-.5.2-.5 0 .2 0 .5-.5.5 0zm1 .1c-.2 0-.7.1-.7-.2.4.1.7-.1.7.2zm.1.3c.2-.1.3-.2.1-.3.3 0 .4 0 .4.3h-.5zm-.3 0c0-.1.1-.1.1-.3-.2.1-1.8-.1-1.8.2.6 0 1.2.1 1.7.1zm-.4.3c.3 0 .5.1.8 0-.7-.5-2.2-.2-3 0 0 .2 2.3.2 2.2 0zm.1.5c-.1 0-.2 0-.3-.1.4-.2.7-.3 1.1-.1-.3.2-.6 0-.8.2zm-1.1 0c-.3-.1-.5 0-.7-.1.3-.2.9-.3 1.3-.2-.2.2-.4.3-.6.3zm.1.8c-.2-.1-.3-.1-.4-.3 0 .3.4.3.4.3zm.4-.2c-.3-.1-.5 0-.7-.2.3 0 .4 0 .7.2zm.2-.2c-.5-.2.2-.1.3-.1 0 .2-.2.1-.3.1zm.1.3c.2 0 .3-.1.1-.2-.3 0-.3 0-.1.2zm.9-.3c.1 0 .2-.1.3-.2-.2 0-.3 0-.3.2zm-.4.1c0-.3.1-.1 0 0 0-.1 0 0 0 0zm.1.3c.2-.2.3-.2.5-.1 0 0-.5.2-.5.1zm-.2.3c-.2-.1-.3 0-.3-.2.1 0 .3 0 .3.2zm-1.1.3c.3-.2.2-.2-.1-.2.1 0 .8-.2.8 0-.3.3-.3.2-.7.2zm2.1-1.7h.6c-.3-.3-.3-.1-.6 0zm1.3.9c-.5-.2-.8-.7-1.4-.2 0 .6 1.1.3 1.4.2zm.6-.2c0 .4-1.4-.5-1.4-.5.5 0 1-.1 1.6-.1 0 .2-.9.4-.2.6zm.9.2h.6c0 .2-.5.1-.6 0zm0-.2c0 .2.9 0 1-.1-.4-.2-.7-.3-1 .1zm-1.7-1.6c0 1.3 2.1.5 2.6.3-.5-.1-.9-.1-1.3-.4 0 0 .6-.1.6-.2-.3-.1-.6-.1-.9-.2 0 .4-.6.5-1 .5zm-.6-.3c.1 0 1.2-.6 1.2-.2 0 .5-.8.3-1.2.2zm-.6-1.2c.2 0 .9.1.9-.2-.3 0-.5.1-.9.2zm2 .5c-.4.1 2-1 2-.1-.2.1-.4.1-.6.2.1 0 .2.1.3.2-.1.6-1.5-.2-1.7-.3zm14.1.4c.4.1.6.2.9 0-.2-.1-.9-.1-.9 0zm-2.7-1.9c-.6-.2.7-.2.9-.1 0 .2-.7.2-.9.1zm4.9-1c.3-.1.6-.1.9.1-.4 0-.6-.1-.9-.1zm3.9.9c0 .1 2.6 0 2.8 0 .1-.2-4.7-1.1-4.7-1.1.1.1.3.1.4.2-.1 0-.2.1-.2.1.3.1 1.7.6 1.7.8zm.6.3c.7.1 1.8-.2 2.3.4-.3.2-.5.1-.8 0 .1 0 .4.1.4 0-.6-.1-1.2-.2-1.9-.4zm6.7.9c.1 0 .4.1.4.1-.4-.1-3.4-1.1-3.4-.9.6.2.7.2 1 .5-.6-.1-1.4-.6-2.2-.7.2.1-.5.1-.5.3.4.1 1.3.4.9.5 1.4.3 4 .7 5.6 1-.4-.6-1.2-.6-1.8-.8zm5.4 1.9c-.8-.2-1.9-.7-2.6-1.1.1 0 .2.1.3 0-.7-.2-1.3-.5-1.9-.7 0 0 .5.1.6.2l-.7-.2c.1-.2 1.6.5 1.6.5l-.6-.3c1 .3 3 1 4 1.3h-.4c.3.2-.4 0-.5 0 .6.3-.1-.1.2.3zm-122.9 55c.1-.3.5-.5.8-.4-.1.2-.6.4-.8.4zm.3 1.5c.1-.2.1-.3.4-.3 0 .1-.1.2-.1.3-.1-.1-.1-.1-.3 0zm-.1.6c.1-.2.2-.2.2 0 .1-.1.1-.2 0-.3-.1.2-.5.3-.2.3zm.3.6c-.1 0-.1-.2 0-.3.1.1 0 .2 0 .3zm-.1.9s-.3.2 0 0zm.1 0c.2.1.2-.3 0 0zm-.1 1.1s.4-.7.3-.7c-.2.1-.7 1.1-.3.7zm.2-.2c.1-.1.1-.2.2-.4 0 .1-.1.5-.2.4zm-.1.2c.1.1.1.1 0 0zm-.2.2c-.3.6.3-.3 0 0-.1.1 0 0 0 0zm-.3 1.2c.1-.3.2-.5.4-.7 0 .4-.3.7-.4.7zm0 .6c-.1.3.4.2 0 0-.1.1 0 0 0 0zm1.5.4c-.4-.2.3-.6.4-.7-.2.2-.3.5-.4.7zm-.3.6c0 .2.2.9-.3.7 0-.1 0-.8.3-.7zm.3-.2v.4c.3.1.3-.6.3-.7-.1.1-.2.1-.3.3zm.5.7c0 .3.3.2.3-.1-.5-.1-.1.1-.3.1zm.2.6c.1.4.5-.4 0 0 0 .1 0 0 0 0zm.2 2.6c.1-.5-.2-.7.3-.9-.1.3-.1.7-.3.9zm-2.4-1.2c-.1.3 0 .2.2.3-.1-.3 0-.2-.2-.3zm.9 2.9c.2-.3 1.7-2.6.5-1.7-.3-1.7-2.2 0-1.1.4-.4.2-.4.8-.1.6 0 .3-.1.1-.2.4.2.1.4 0 .6 0-.2.2-.3.1-.3.4.1 0 .6-.1.6-.1zm.4 1.5c.2 0 .2-.1.2-.2-.2-.1-.2 0-.2.2zm.2-.3c.2.1.2 0 .3-.3-.1 0-.2.1-.3.3zm-.5.1c.1-.2.3-.3.4-.4.1.2-.1.5-.4.4zm-.2.5c.2.1.2-.1.3-.3-.1.1-.2.1-.3.3zm-.1.3c.1.4.2 0 .4-.2-.2.1-.3.2-.4.2zm-.5 2.2c.1-.2.1-.3.2-.4 0 .1 0 .5-.2.4zm-.1 1.8c.1.3.3.1 0 0 0 .1 0 0 0 0zm-.1.5c.2.1.2 0 .3-.3-.2.1-.3.2-.3.3zm.3-.1c0-.2.1-.4.3-.3-.1.2-.1.2-.3.3zm0 .3c.2-.3.2-.2 0 0 .1-.1 0 0 0 0zm.1 1.9c-.1-.1 0-.3.1-.4 0 .1.2.5-.1.4zm.2.7c.4.1-.3-.1 0 0zm1.4 2.5c.1-.2.2-.5.3-.7 0 .1-.2.7-.3.7zm-.2-.1c.2 0 .4-.5.2-.5l-.2.5zm.7 2.9c0-.3.2-.4 0 0 0-.1 0 0 0 0zm.5.4c0-.2-.1-.4.1-.3 0 .2 0 .3-.1.3zm.4 1.2c.1-.5-.2 0 0 0 0-.1 0 0 0 0zm.1 0c.2-.1.1 0 0 0zm.7 1.8c.2-.3.2.1 0 0 .1 0 0 0 0 0zm-.2.2c.1-.1.2-.2.2-.3-.1 0-.2.1-.2.3zm1.2 1c-.4-.1-.3-.2 0-.4-.1.1.2.5 0 .4zm.9-.8c-.2.2-.2-.1-.1-.2.2-.1.3-.1.1.2zm.3-.2c0-.2.1-.3.3-.4 0 .2-.1.4-.3.4zm1.2 1.3c-.2-.3-.2-.4.1-.6.1.3-.1.3-.1.6zm1.3.2c0-.2.1-.4.3-.4.2.3-.2.4-.3.4zm-.2-.8c0 .3 0 .3.1.5.1-.1.2-.5-.1-.5zm.3-.1c.2.2.3.2.5 0-.2-.1-.4-.1-.5 0zm.8-2.3c0 .2.1.2.2 0-.1-.4 0 0-.2 0zm0-4.6c.4.1.3.2.7-.1-.1-.2-.6-.1-.7.1zm.5-2.4c0 .3.4.2.6.3.1 0-.4-.2-.6-.3zm.8-3.6c.4.1.1.6.5.8.2-.5-.2-.8-.4-1.1-.2 0-.2.1-.1.3zm3.5-3.6c-.3-.1-.2-.3 0-.4.1.3.3.3 0 .4zm-.6.4c-.8.1-.2-1.3.4-.3-.3.3-.4 0-.4.3zm11-19.4c-.1-.1-.2-.2 0-.3.1.1.1.5 0 .3zm-.9 2c0-.2.1-.2.3-.2 0 .3-.1.3-.3.2zm-1.6.8s4.1-1.3 2.2-2.8c-.6.8-2.2 1.8-2.2 2.8zm2.3-7.8c0-.1.1-.2.2-.3 0 .2 0 .5-.2.3zm.6-.4c.5-.3 2.8-.6 2.4.1-.4-.1-.7-.2-.9.2.6-.1.8 0 .7.6-.8 0-1.9.1-2.2-.9zm-.1-.3c.8-.5 1.5-1 2.5-1-.1.3-.2 1.3-.9.7-.1.1-1.5.4-1.6.3zm1-1.1c-.4.3-.8.2-1.2.4.4.4 1.5-.4 1.9-.5-.5.9-1.9.9-2.7 1 .2-.8 1.1-1 2-.9zm1.8-.6c0-.1.1-.2.2-.2 0 .1.1.5-.2.2zm-.4-3.3c.5-.3.6-.4 1.2-.5.8.9-1 1.1-1.3 1.2-.1-.4 0-.5.1-.7zm2.8-1.9c-.1-.1-.1-.2.2-.3 0 .1-.1.2-.2.3zm-.5.5c-.2-.2.1-.4.2-.5 0 .2 0 .3-.2.5zm0-2.3c.3-.2.6-.7 1-.6-.1.4-.2 0-.4.4.1.2.3.2.5.4.1-.2 0-.3.3-.4.6.6-.9 1-1.4.9.2-.2.1-.4 0-.7zm-1.4 1.7c.1-.1.3-.1.4-.2.1.3.1.3 0 .7-.3 0-.3-.2-.4-.5zm1-5c.4.4.2 1.2.6 1.6-.2-.8-.3-1.2-.6-1.6zm-1.1 1.2c0 .2 0 .2.2 0 0-.1 0-.2-.2 0zm-.1.3c.2.2.4-.2 0 0zm-.3.1c.4 0 .1 0 0 0 .2 0 0 0 0 0zm-.1-.4c-.2.9.7-.4 0 0 0 .1 0 0 0 0zm-.4-.1c.3.2.5-.3 0 0 .1.1 0 0 0 0zm2.9-4c-.2-.2-.1-.5.1-.9.1.3 0 .8-.1.9zm-1.4.2c-.2 0-.4-.1-.5-.2.1-.1.1-.2.2-.2 0 .3.6.1.3.4zm.4-.9c-.1-.2 0-.3.1-.5.1.2-.1.3-.1.5zm0-.7c-.2-.3.2-.2 0 0zm.8-2.4c-.4-.1 0-.6.2-.8.2.1 0 .6-.2.8zm-1.2-2.2c.1-1.1 1.1-.6 0 0 0-.1 0 0 0 0zm.9-4.4c.1.1 0-.4 0 0zm.4-.2v-.4c-.2.3-.1.2 0 .4zm.6-.8c-.2-.2-.1-.5.1-.7l-.1.7zm-1.2.5c.1-.2.2-.3.4-.4 0 .3-.1.7-.4.4zm-10.4 2.3c-.2.1-.2 0 0-.2 0 .1.2 0 0 .2zm-.1.2c.1-.1.4-.2.3-.3l-.3.3zm-.8.5c.2.2.5-.1.4-.2-.2.1-.3.1-.2 0l-.2.2zm-.4.5c-.3.3.4-.2 0 0-.1 0 0 0 0 0zm-2.8 2.4c-.1.4.5-.4.6-.4-.1 0-.7.4-.6.4zm-.3.3c.2.2.3-.3 0 0 0 .1 0 0 0 0zm-.9.6c.1.1.4-.2.5-.3-.2.2-.2.1-.5.3zm-.8 1.3c.1.1-.1.4.3 0-.1-.1-.4-.1-.3 0zm-.1 1.2c.1.1.5-.2.5-.3l-.1-.1c-.1 0-.4.4-.4.4zm.1.3c0 .6.4.1.4-.2-.1-.2-.3.1-.4.2zm-2.2.5c0 .1.2.1 0 0 0 .1 0 0 0 0zm-.4.2c-.1.3-.3.7 0 1 .1-.1.1-.3.2-.4-.4.1-.1-.6 0-.8 0-.1-.2.1-.2.2zm-5.7 6.3c.2-.2.1 0 0 0 .1-.1 0 0 0 0zm-3 3.5c.1-.1.1-.3.2-.2-.2.4.1-.1-.2.2zm-5.8 9.7c.2-.2.3-.5.5-.7-.1-.1-.1.1-.2 0 2-2.6 3.9-5.2 5.7-7.8-.1-.1-.2.2-.3.2.2-.4.5-.7.8-1-.1 0-.1-.1 0-.1-.5.6-.9 1.1-1.5 1.7.1-.4.3-.7.6-1-.2-.1 1.1-1.5 1-1.5.1-.1 1.2-1.6 1.2-1.6.1.1-.1.8-.2.9.7-1.4 1.5-1.7 2.1-3.2-.1 0-.1.1-.1 0 .4-.5.6-1.1 1.1-1.6-.1.1 0 .2.1.1-.1.3-.2.5-.3.7.1.1.3-.3.2.1.4-.3.1-.7.4-1.1-.3-.3 1.4-1.6 1.8-2 .1.1.1.1 0 .3-.1 0 1.1-1.2.7-.9l.9-.9c-.3.5-.4 1.1-.8 1.6.2.2-1 1.3-.8 1.6.4-.7.9-1.4 1.4-2.1-.1.3.3.1.2.5.9-.6 1-1.4 1.6-2.4-.2-.2.6-.9.8-.7.5.5.1.9.3 1.5.3-.2 1.1-1 .9-.7.4-.3.6 0 1-.5-.7.3-1-.6-.9-1.3-.5-.5 1.1-1 1.3-1.2-.4-.4 1.4-.8 1.3-.8-.2.3 0 .3-.1.6.2-.1 1-.5.9-.6-.3.1-.4.1-.6.3-.2-.2-.1-.6.1-.8-.5.1-.6.3-1.1.5.1-.3.1-.3.3-.5-.1 0-.2 0-.2-.1.3-.4 1-1 1.5-1.4-.1.1-.2.3-.3.4.1-.1.3-.2.4-.4 0 .2 0 .2.2 0 0 .1-.3.3-.2.4.2-.2 1.3-.7.7 0 .3-.3.3-.4.1-.6.3-.1.7-.1 1-.3-.1-.2-.3.2-.5 0 .2-.4.6-.5 1-.8-.1-.1-.1 0-.2 0 .1-.1.2-.3.4-.4.4-.2 1.9-1.4 2.7-2.1.4-.3 3.5-1.9 3.8-1.6-.3.4-4.2 2.9-4.3 2.8l.3-.3c-.2.1-1 .6-.4.5-.1-.2-2 1.9-2.2 2.1l.8-.8c.1.1-.2.2-.1.3 1.1-1.7 4.5-3.7 6.6-4.5-.1.1-.1.2-.2.2.9-.1-1.4.8-.6.9-.1 0-.5.2-.4.3-.2-.3 3.5-1.4 3.8-1.5.6.9-6.9 4.7-7.6 5.3l.4-.2c-.5.8-1.7 1.2-2.2 2.1.2 0 .2 0 .2.2-.1-.1 2.2-2 2.1-1.8 1.1-.8 2.1-1.6 3.5-2.2-.2.8-1.1 1.1-1.5 1.8 0 0 2.1-1.3 2.4-1.4.4-1 .5-1.3 1.7-1.7-.2 1.2-1.3 1.8-1.8 2.8-.3.6-2.7 2.8-2.3 3.3.8-.9 1.4-2.3 2.6-3 .5-.9 1.9-1.6 2.5-2.7.2.3.3.3.2.6.2-.3.1-.5.3-.8 0 .4 1.2-1 1.5-1.2.3-.3 2.4-1.5 2.7-1 1.8.4-.9 1.7-1.5 2.4.1 0 .4.2.5.3-1.4.8-2.8 1.5-4 2.5.6-.2 1.2-.6 1.8-.9-.1-.2 1.7-.4.9 0-1.2.7-2.4 1.6-3.6 2.5.2-.1.3-.1.5-.2.2.2-.1.3-.1.5.9 0 1.4-1.4 2.5-1.5-.3.4-1.9 2.5-1.6 2.9-.4 1 .1 1.7-.6 2.4.3 0 .2 1.8-.6.8-.2.1-.4.3-.5.4.2 0 1.2.5 1.7.7-.1.2-1.6.3-.8.5-.5.4 0 .1-.1.5.7-.4.2.1.7.1.1-.2.3-.4.3-.6.1.2.5 0 .7 0 0 .6-.3 1.2-.1 1.8-1.5-.2-1.5 0-2.7.5.2-.1.4-.1.5-.1-.4.4-.4.8-.9.6-.1.4.3.3 0 .7.3-.1-.4.4-.4.5.2-.1.4-.1.5-.2 0 .1.1.3.1.4.4-.5 1.1-.4 1.3-.8.6.6-1.2 1.4-1.3 1.2 0 0 1.6-.3 2.1 0-.3-.3.2 2-.6 1.8 0-.1.1-.2.1-.4-.9.6-1.2-.5-2-.3.1.1.2.2.4.3-.2.4-.4.2-.8.1.3.3 1.9-.1 1.8.5-.8.2-.8 1.1-1.5.4.6 1 .6.1 1.3-.1.1.5.1.7-.1 1.1.5-.3 1.1-.5 1.5-.6 0 .2.3 1.9-.5 1.3-.7-.5-1.2-.2-1.9-.1.4.4-.1.6-.3.9.6 0 .1.5-.1.7.4 0 .4.3.7.2 0 0-.1-.6 0-.5.8.4.6-.2 1.4-.2 1.1 1-3.1 4.2-3.4 2.2.6-.2 1 .1 1.5-.4-.2-.1-1.3.3-1.6 0-.4.4-.2.5-.1 1-.5-.1-.8-.3-1.1-.7-.1.1-.2.2-.2.3.4.1.6.2.9.5-.4.9-1.4 1.6-2.3.9-.1.6.4.3.8.7-.3.4-.8.4-1.1.8.1.1.2.1.3.1.4-.8 1.5-1.2 2.3-1.1-.6.9-1.6.8-2 1.5.2.2.3-.4.6-.2-.2.2-.4.3-.4.5.2.2.4-1 .6-.1.3-.1.8-1.3 1.4-.9.4 1-.8.8-1.2 1.4.3-.1.7-.4.9-.3-.2.3-.3.4 0 .6.7-1.3 1.5-1 2.8-.6-.1.4-.4.6-.3 1 .2-.2.3-.6.5-.7-.1.1-.1.3-.1.4.1-.1.4-.4.3-.5-.1-.1-.1 1.4-.1 1.5.2-.4.1-.8.5-1 0 .1-.2.6-.2.7.6-.4-.1.7 0 .7.6-.4.8 1.2.3 1.6 0-.1-.1-.2-.1-.4-.1.1-.2.2-.4.3-.3-.2-.2-.7-.4-1-.5.4.7 1.8-.8 1.4-.7-.2-1.6-1-1.4-1.8-.7.8-1.1-.3-1.5.1-.5.5-1.5.4-1.7-.4-.2.4 0 .5-.3.8.4-.1.5-.1.7.2-.3.1-.4.4-.7.5.6.4.8-1.1 1.1-.3.6-.8 2.1-.8 1.3.5-1 .7-1.1.7-2 .8.3.5.1.4-.3.7 1.3.1-.8 1.6-.9 2.2.6-.8 1.9-1.3 3-1.5-.2.7-1.6 1.1-2 1.6.4.3 2-1.1 2.3-1.4.7-.3.7-.9 1.3-.8 1.1-.2 1.6-.3 2.6-1-.2.5-1.1 1.1-.7 1.4 0 .2-.2.2-.4.1.1.3.1.4-.1.6 0-.1 0-.2-.1-.3-.1.1-.2.2-.3.2.2.2-.5 1.4-.8 1.1.1.5-.3 1.4-.9 1.3.2.8-3.2 3.6-3.4 3.5-.5.6-1.3.4-1.5 1.2-.9.6-1.4.4-1.9-.6-.2.6.5.7.3 1.2.9-.1-.9 2.6-1.1 2.5 0 .3.6.4-.1.5.1.3-.3 1.7-.5 2.1-.1-.1-.1-.2-.1-.3-.2.5 0 1.3-.6 1-.2.5-.4.1-.7.3.9-.1-.1 1.2-.4 1.3.1-.2 0-.3-.2-.3-.1.5 0 .7-.6.7 0-.3-.1-.4-.1-.6-.1.4.1.6 0 1-.6-.5-.6-.5-.2-1.2-.9.1-.6.4-.6 1.5-.1-.1-.2-.3-.2-.5 0 0-.2 2.6-.8 1.4 0 0-.2 1-.5.3-.5.9.3.4.2 1-.1-.1-.2-.1-.3 0 0 .2 0 .3.2.4-.5-.2-.4.9-.9.1-.1.4-.2.3-.5.2.2.6.3.6.5 1.2.4.9-.6.5-.8 1.1.3.1.8.3 1 0 0 .5.1.7 0 1.2-.6 0-.7-.4-1 .2.3-.1.6 0 .9-.1.2.5-.4.6-.7.6-.9-.3.2.8.2.8-.2-.1-.5-.1-.7-.1.1.4.2.2.6.3.1.8-.6 0-.8.1 0 .6.2-.1.3.6.2-.1.3-.2.5-.3.3.9-.7.5-.9.6.1.8-.2.3-.6.7.3.4 1.1-.3 1.1.6-.3-.1-.7-.3-.9-.1 0-.1 2 2.1.1 1.6.2.3.2.2.5 0 .1.4-.2.2-.4.5.7.2.2.2-.1.5 0 .1.7.9-.3.7.1.4.5 0 .7-.1.5.5-.2.6-.6.7.1.2.3.2.5.2 0 .1 0 .2-.2.2h.4c-.1.2-.2.3-.5.3.2.1.2.1.5-.1-.1.9-.6.2-1.1.6.2 0 .4.1.7.1-.1.4.1.3.4.3-.8.8-.7.1-1.2 0-.2.2-.2.4-.1.6-.2-.1-.3 0-.3.2-.1-.3.1-.6 0-.9-.1.3-.2.6-.2 1-.2 0 0-.8 0-1.1-.1.2-.2.5-.4.7 0-.3.1-.4 0-.7-.1.3-.2.5-.2.8-.1-.1-.2-.3-.1-.4-.1.2-.2.3-.3.4 0-.2.7-1.3.6-1.4-.3 0-.2.8-.7.7.1-.1 1-1.3.7-1.4-.3.3-.3.7-.6 1.1.3.1.1-1 0-1.1 0 .1-.2 1.1-.3.5-.3.6-1.1 1.6-1.4 1.7-.3-.4 0-.4.2-.7-.4-.5-.5-.5-1-.1-.2-.1-.2-.2 0-.4-.5-.1.2-.3.1-.6-.4-.1-.4.6-.8.6 0-.4.3-.8.4-1.2-.2.1-.4.3-.5.5 0-.4.3-.6.3-1-.2.1-.3.5-.5.4 0-.4.1-.4 0-.8-.1.1-.2.1-.2.2 0-.2.1-.3 0-.4-.3-.1-.1.3-.4.2.2-.6.2-1 .3-1.3-.2-.1-.1.2-.2-.1-.1.1-.2.3-.3.4-.1-.3 0-.4.1-.7-.4-.1-.3.3-.6.2 0-.3.4-.5.5-.7-.3.1-.5.4-.7.4.1-.3.8-.8.2-.6.1 0 .5-.4.4-.6-.2.3-.6.7-.9.8 0-.1.3-.9.4-.8-.1 0-.2.1-.3.2-.5-.1.9-1.2.9-1.4-.4.2-.5.4-.9.7.2-.4.4-.9.8-.9-.1-.2-.2-.2-.4-.1-.3-.1.8-.3.7-.2 0-.2-.1-.5-.2-.9-.4.8-.5-.6-.2-1 .2 0 .2.1.2.3.2-.8-.7-.2-.6.3.1.6-.1 1.4 0 1.1-.2.4-.4.7-.5 1.2-.8-.2.2-1.6.4-1.9-.3-.1-.4.6-.6.7-.1-.2-.1-1.5-.4-.8-.1 0 .8-2 1.3-1.9-.1-.2-.2.1-.3-.3-.4.6-.7 1-.9 1.6-.1-.3-.3-.1-.2-.5-1 .2.6-1.2.6-1.3-.2-.1-.8.7-.9.9-.4-.1 1.5-2.8 1.6-3.1-.9.5-1.3 2.1-2 2.9-.2-.9.1-.9.7-1.3-.3-.1-.4.1-.6 0 .2-.3.6-.2.6-.6-.1.1-.2.2-.3.2-.1-.7.5-.2.4-.9-.2.2-.4.4-.8.2.3-.5.7-.8 1.3-1.2-.5-.1-1.3.9-1.5.9.1-.6.4-1.4 1-1.7.5-.5 1.6.3 2-.5-.2-.1-.5.4-.8 0 .2.1.6-.7.5-.9-.2.3-.2.6-.6.5l.2-.3c-.6-.2-.1 1.1-.9.9-.4-.1-.8.7-1.1 1.1-.6-.2.9-1.5.9-1.5-.2-.1-.7-.1-.7-.4.2 0 .4.1.6.2.1 0 0-.4 0-.4.1.3 1.3 0 1.5-.1.1-.3-.4-.4-.6-.3 0-.2.2-.6.3-.9-.4.3-1 .8-1.3 1 .1-.9 1.2-1.2 1.5-2-.2-.1-.2.1-.3.3 0-.3 0-1 .2-1.2 0 .3.1.1 0 .4.2.1.7-.2.8-.3-.3-.1-.2 0-.5.1-.2-.1.4-.4.4-.4-.1-.1-.3.1-.3-.1-.1.3-.1.1-.3.3 0-.5.4-.8.6-1.2-.1 0-.3.2-.4.1.2-.4.7-1.2.4-1.4-.4.5-1 .6-1.5.8 0-.3-1.6-.6-1.4-.8-.1-.9 1.3-.9 1.8-1.2.2.5 1 1.3 1 .2-.2.4-.3.2-.6.1.1 0 .5-.2.4-.2-.1-.3-.7 0-.4-.5.1.1.2.1.3 0-.1-.1-.4-.2-.6-.3 0-.4.5-.2.8-.5-.4-.2-.5.3-.8.2.2-.4.5-.4.4-.8-.2-.1-.4 1-.7.8.2-.6.4-.8.7-1.3-.3.3-.5.6-.9.7.1-.6.7-.8.9-1.4-.1 0-.5.6-.9.4.1-.1.3-.8.2-.8-.2.3-.2.7-.5.9.1-.5-.1-1 0-1.5-.1.5.2 1.8-.3 1.6l-.3.6c.3-.2-.1.9-.4 1.1-.1 0 0-.2-.2-.3-.1.1-.1.2-.1.3-.2-1 .6-1.5.9-2.6-.3.3-.3.8-.7 1.1-.4-.2.2-1.2.4-1.4-.1 0-.1-.1-.1-.1-.1.1-.3.4-.4.3.1-.8.7-1.2.8-2.1-.2.2-.4.1-.6.3-.1-.1.7-.8.2-1.1 0-.1 0-.3.1-.3-.4-.2.3-1.6-.1-1.8l-.5.7c.1-.3.9-2.4.2-1.7 0-1.1-.2-.6-.1-1.7-.1.1-.1.2-.2.2.1-.2.4-.8.3-.9-.2-.1-.8 0-.8 0 0-.3-.2-.3-.3-.1.1-.2 0-.3-.2-.4-.5.6-.9.7-1.4 1.5 0-.2.1-.4.1-.6-.2.2-.2.5-.4.7 0-.1 0-.2-.1-.3-.2.3-.2.6-.4.8 0-.3.1-.5.2-.7-.2.2-.3.4-.4.6l-.1-.3c.2.1-.7 1.2-.7 1.3-.3-.9-.1-.8.4-1.9-.1-.1-.4.4-.6.3.1-.3.2-.6.4-.9-.2.3-.3.7-.6 1 0-.2.1-.3.1-.5-.1-.1-.1 0-.1.2-.5-.3 2.1-2.3 2.2-2.4-.1.2-.9.7-1 .7.1.1 1.3-1.5 1.4-1.7-.1-.1-.1.1-.2 0-.3.3-1.2 1.4-1.4 1.3 0-.1.4-.6.4-.6-.1.1-.4.5-.4.5.1-.3.3-.5.5-.8-.2.3-.3.5-.6.8l.2-.5c-.7.4-.9.2-.9.2zm-.3 1.6c.1-.1.4-.5.5-.4-.1.2-.2.2-.5.4zm-.5.7c.1-.1.3-.6.5-.5-.1.2-.3.6-.5.5zm-1.2.4c.2-.3 0 0 0 0zm2.3-4.1c-.2-.4.4.3 0 0zm-3.1 3.8c0-.1.4-.8.4-.8 0 .1-.4.8-.4.8zm-3.9 8.5c.1-.3.2-.5.3-.8-.1.3-.4.8-.3.8zm1.8-1.7c.2-.4.3-.8.6-1.1-.2.4-.6 1.2-.6 1.1zm-.2-.2c.2.2-.1 0 0 0 0 .1 0 0 0 0zm-4.1 9.1s.1-.5 0 0zm-3.9 14.7c0-.1.1-.3.1-.4 0 .1 0 .3-.1.4.1-.2.1-.5.1-.7 0 .2 0 .5-.1.7zm.1-.5c0 .2-.1.4-.1.5l.1-.5zm1.7-4.3c-.1 0-.2.2-.2.5.1-.2.1-.3.1-.1.1 0 .2-.4.1-.4zm.6 0c-.1 0 0 0 0 0zm.1 0c.2-.6 0-.1 0 0 .1-.1 0 0 0 0zm.1-.2c.2 0 .1-.4 0 0 .1 0 0 0 0 0zm124.4 83.4c.4-.4.2-.6.5-1.1.3.4.2.6.2 1.1 0 .1-.7 0-.7 0zm-52.9-1.6c-.1.2 0 .2.2.2 0-.1 0-.2-.2-.2zm-.8.2c.3.2.5.8.8.3-.3-.1-.6-.3-.8-.3zm.5-1.6c0 .3 0 .2.3.4 0-.5.1-.5-.3-.4zm-.3-1c-.1.1-.1.2.1.3.1-.1 0-.2-.1-.3zm-1.4.7c.1.2.2.2.4 0-.1 0-.3-.1-.4 0zm-.5.2c.2.2.3.2.5 0h-.5zm-.9-.1c.2-.4.3.3 0 0 0-.1 0 0 0 0zm-.7-.1c.3.2.5.1.5-.3-.3.1-.4.3-.5.3zm-17.7-32.9c.2.2.2-.1 0 0zm.9 0c-.3-.1-.3-.3-.6 0 .2.3.3.2.6 0zm.3-.5c-.2 0-.4-.2-.4.1.1 0 .2 0 .4-.1zm.7-.5c.5.3.2-.1 0 0 .1.1 0 0 0 0zm2.5 1.3c.2-.2.4-.2.6-.2-.1-.1-1-.2-.6.2zm15 4.7c.2-.2.6-.4.8-.1-.3.2-.4.2-.8.1zm2 7.5c-.1-.2-.3-.3-.4-.5.3-.3.5.3.4.5zm.2 1.2c-.2.2-.1.4.2.4-.1-.2-.1-.3-.2-.4zm.7-.8c.2.1.2-.2 0 0 0 .1 0 0 0 0zm.9 0c-.2-.1-.4-.2-.7-.3.2-.3.8-.6 1.2-.6-.1.4-.4.4-.5.9zm1.8-.1c0-.1-1.2-.5-.4-.7.5-.2.5.3.4.7zm1.8-2.8c0-.3.2-1 .6-.5-.3.2-.4.3-.6.5zm-.6 1.7c.4-.5.2-.9.7-1.3.3.6.1 1.3-.7 1.3zm134.7-29.8c.1.1.1.1 0 0zm.1-.2s0 .1 0 0zm.1-7.5s0-.6 0 0zm0 .2c0-.4 0-.3 0 0 0-.1 0 0 0 0zm-1.1-3.4c.1-.3.1 0 0 0zm1.1 2.5c-.1 0 0 0 0 0zm.1 2.8c0-.4 0-.4 0 0 0-.2 0 0 0 0zm.1 2.2v-.5.5zm.1.7c0-.3 0-.1 0 0 0-.1 0 0 0 0zm0 1.1v-.2.2zm-.1-4.7c.2-.1-.1-.1 0 0zm.1.4s0-.6 0 0zm-.1-3.7s.1.5 0 0zm-.3 13.4c.1-.8 0 .3 0 .5v-.5zm.1-.7c0-.6 0 0 0 0zm-.1-.4v0zm-.3-3.5c.1-.6 0 .3 0 .4v-.4zm0-.2c0-.8-.1.2 0 0 0-.3 0 0 0 0zm-.1-.8c0-.1 0-.4 0 0 0-.1 0 0 0 0zm0 .3c0-.4.1 0 0 0 0-.1 0 0 0 0zm-.1-.5s.1.5 0 0zm-56.7-98.5c.1-.1-.4-.3-.5-.3 0-.1 1.4.7 1.5.8-.3-.2-.6-.4-1-.5zm-14.3-6.2c.1.1.6.2.7.2-.2-.1-.7-.3-.7-.2zm-.3-.1l-.3-.1c0-.1.6.2.3.1zm3.2 1.2c0-.1.4.2.5.2 0 0-.4-.2-.5-.2zm-.2-.1c-.4-.1-.3-.1 0 0-.2 0 0 0 0 0zm-2.2.5c.3 0 .4 0 0 0 .1 0 0 0 0 0zm.9.8c.5.1.5-.2.9.2 0 0-.9 0-.9-.2zm-.3-.5c0-.2.3 0 0 0 0-.1 0 0 0 0zm-.8 0c.1-.3.5.1.5.1-.2-.1-.3-.1-.5-.1zm-.7 0c.4-.1.4 0 0 0 .1-.1 0 0 0 0zm-.9-.6c-.3-.4.4-.1.1-.4.1 0 .3.1.4.2-.2 0 0 0-.1.2-.3-.1-.1 0-.4 0zm-4.3-1.1c.2.2.2.1 0 0 .1.1 0 0 0 0zm-.1.7c.1 0 .5.4.6.2 0-.2-.6-.2-.6-.2zm.2 2.8c.1-.2.4-.1.7-.1-.1.1-.6.1-.7.1zm-.4 0c.2.1.4.1.6.1-.1 0-1 0-.6-.1zm5.9 1.3c.3 0 .2-.2.7 0-.1.2-.5-.2-.1.1-.2 0-.3 0-.6-.1zm-.3.3c.3-.1.3-.1.5 0-.2.1-.3.1-.5 0zm1.4.5c-.2-.1-.2-.2 0-.2.2.1.4.1 0 .2zm-.2.1c-.4-.2.1-.2 0 0-.1 0 0 0 0 0zm-.3.2c-.1 0-.3-.1-.4-.1.4-.3.1-.1.4.1zm1.2.4c.1-.2-.1-.1.3-.1-.1.1-.2.2-.3.1zm-.6.4h.4s-.4.1-.4 0zm-1.2-.2h.5c0 .2-.2 0-.5 0zm-.4 0c.2 0 .5-.1.3.2-.1 0-.2-.1-.3-.2zm-3.3-1.7c-.4-.2-.6-.2-.9-.4.4 0 .1-.1-.1-.2.5-.2.8.3 1 .6zm-.3 1.2c.4 0 .4 0 .7.2-.3 0-.5-.2-.7-.2zm-19 2c-.3-.2.2-.4.4-.5-.1.2-.3.3-.4.5zm2 5.9c0-.2-.4-.4-.1-.7.1-.1.7-.4.7-.4-.9-.3-.9.9-1.8.4.7-.6-.4-1.6 1.6-1.2-.1 0-.1-.1-.1-.2-.4-.1-.9 0-1.3-.1 0-.2.3 0 .3-.2-.3-.1-.4.1-.7 0 .2-.1.5-.2.7-.4 0 .1-.8-.1-.9-.1 0-.3.5-.3.8-.5-.5-.5-1.5.4-2-.7 1.1.4.5-.5 1.6-.5.1-1-1.2 0 0-1-1 0-.1-.8.3-1-.1 0-.3 0-.4-.1 0 0 .2-.3.2-.4.2.1 0 .2.2.3.1-.1.2-.2.2-.3-.1-.1-.3-.2-.4-.2.5-.5 1.5.1 1.2-.5.7.3 1.1-.9 1.8-1.1-.7-.4-.2-1.2.6-1.1.7-.5 2 .6 2.4 1.2-.8.2-1.3 1.1-1.9 1.7-.4.4-.2.8-.7 1 .4.7-.3.8-.4 1 0 .2.4.2.5.2-.2.3-.3.3 0 .5-.3.2-.3.1-.6.2.1.1.3.2.4.2-.3.1-.6-.1-.9 0 .3.5.3.1.5.5-.2 0-.4-.1-.6 0 .8.3.9.5 1.2 1.1-.3-.1-.6-.2-1-.3.3.4.8.5 1.1.9-.3 0-.6-.2-1-.2 0 0 1 .4 1.2.5-.4.4.3 1.5-1.1.7 0 .2.2.3.3.3-.6.2-1.3.4-1.9.5zm4.9 5.2c.1 0 .1-.6.2-.9-.6-.3-1.1.4-1.6-.6-.1 0 0 .5 0 .6-.2 0-.9-.3-.8-.6-.1.4.6.6-.1.9-.6.2-1-.2-1.5-.4-.3-1.1-.6-.8.5-1.2-.5-.2-.5-.3-.1-.6-.2 0-.4 0-.5-.2.1-.1.2-.2.2-.3-.4-.1-.3.1-.6.3 0-.1 0-.3.1-.4 0-.1-.4.3-.4.3-.4-.5-.4-.7.2-.9-.6-.7-.5-.1-.4-1 .4-.2 3.1-1 2.4-.3 1.2-.5 0 .9 0 .8.5 0 2.1 1.1 2.6 1.9.8 1.2 2.9 1.1 4 1.5-.1.3-.1.4-.3.5.3.1.6 0 .5.4-.4.1-.6-.3-1.1-.3.1.1.3.2.4.3-.4 0-.6 0-.9-.2.2.6-.6-.3-1.1 0 .4.1.6.1.7.5-.5 0-.7-.3-1.1-.5.2.6-1 .7-1.3.4zm-1.9-.4c.3-.3 1.5-.3 1.3.4-.4-.4-.8-.2-1.3-.4zm27.3-6.3c-.2-.1-.3-.1-.4-.3 0 0 .5.1.4.3zm.8.8c-.1-.1-.6-.5-.6-.6.3 0 1.1.9.6.6zm-9.7-4c.1-.2-.1-.4-.2-.7.4.3.8.5 1.3.8-.1.3-.8 0-1.1-.1zm.5 1.4c.2-.5-.6-.9.5-.8-.1.3 0 .9-.5.8zm-3.3-1.6h.7c-.1.3-.5.1-.7 0zm-1.2-.1c0-.1-.1-.2-.2-.3.2-.1.3-.1.5-.2-.1.1 0 .2.1.3-.1.3-.3-.1-.4.2zm1.1 1.1c-.3 0-.4-.1-.6-.4.2-.1.3-.1.5 0-.3.1.2.3.3.4-.1.2 0 .1-.2 0zm-3.9.6c-.4-.2-.5-.5-1-.8.4-.2.3-.1.4-.4.4.1 1.1.3 1.4.6-.2.1-.8.6-.8.6zm-.5 9c-.3 0-1.7-.3-1.6-.1-.6-.2-1.2-.2-1.7-.7.2.1.3.1.5.1 0 0-.3-.4-.4-.6.5-.4 3.1.6 3.2 1.3zm-3.8 4.5c.1-.3.4-.2 0 0 0-.1 0 0 0 0zm.6-.1c-.2 0-.3-.1-.2-.3.4 0 .4.1.2.3zm-4 .8c.1-.2.3-.2.5-.2-.1.3-.2.2-.5.2zm7-4.1c-.1 0-1-.2-.9-.4.2 0 .9.1.9.4zm-1.1 1.5l.6-.3c-.1.3-.3.3-.6.3zm-1.3.2c.3-.2.2 0 0 0 .1-.1 0 0 0 0zm-.8 0c.3-.1.3 0 .6.2-.1-.1-.7 0-.6-.2zm-.5.2c.3-.2.4 0 0 0 .1-.1 0 0 0 0zM204.6 131c-.5-.2 0-.4.2-.5 0 .1-.1.4-.2.5zm52.9 27c.4 0 .2.2 0 0 .1 0 0 0 0 0zM218 195.3c.3-.1.5-.3.5.1-.2 0-.3-.1-.5-.1zm7.2-83c-.3-1.5 2.1-1.2 2.2-.1-.1-.2-.1-.3-.3-.5-.2.7.1 1.4-.8 1.6 0 0-.9-.7-1.1-1zm-28.1 5c-.1-.6.8 0 .3-.6.2.1.3.1.5 0 0 .1-.1.2-.2.3.3 0 .3-.2.5-.1-.2.6-.7.2-1.1.4zm-.8 0c.3-.2.5.1 0 0 .1-.1 0 0 0 0zm-.6.6c.1-.2.2-.2.4 0-.1.3-.2.3-.4 0zm0 .8c-.3 0 .5-.4.6.1-.2 0-.3.1-.4.2 0-.1-.1-.2-.2-.3zm-.5.8c.5-.7.9-.1.5.4-.1-.2-.3-.3-.5-.4zm-1.3 0c.2-.2.5 0 .4-.4.4.2.4.3.3-.1.5.2.3-.2.6-.5.2.8-.6 1.3-1.3 1zm.8.5c.4-.5.5-.3.8.1-.3 0-.6 0-.8-.1zm-1.7 1c.2.1.8.3.6.6-.4.1-.9-.1-.6-.6zm-1.3.2c.3-.2.5.4.9.4-.3.3-.8.1-.9-.4zm-.3.5c-.2-.1-.1-.2.1-.4.1.2 0 .3-.1.4zm-.3.7c-.1-.4-.1-.3.2-.6.1.3 0 .4-.2.6zm.3.1c-.1-.5.6-.5.7-.5-.4.4.1.3-.3.7-.1 0-.3-.1-.4-.2zm-.7 1.1c.6-.3.4-.9 1.2-.7-.2.6-.5.9-1.2.7zm-.3 1.8c-.1-.4-.7.1-.2-.5-.1 0-.3.1-.4.1.1-.1.1-.2 0-.3.2-.1.3-.1.5-.2-.2-.1-.2-.1-.5 0 .1-.6.1-.1.5-.3l-.3-.3c1.2.4 1.3.5.4 1.5zm.4.2c-.4-.1 0-.3 0 0-.1 0 0 0 0 0zm-.2.4c-.1-.1-.1-.2 0-.3v.3zm-2.1.4c-.1-.3 0-1.2.4-1.3.3.3-.1 1-.4 1.3zm.4 1.3c.1-.5-.3-1.1.2-1.5.1.3.2.5.2.8.4-.3 0-.4.6-.6-.8-.4 0-.9.2-.3.4.5-.3 1.4-.7 1.6-.1-.1-.2-.2-.1-.3-.1-.1-.3.8-.4.3zm-.6-.4c-.1-.2.1-.2.2-.4-.4-.1-.4.2-.5.5-.5-.6.4-.4.2-1.1.3.2.8 1.2.1 1zm.2.2c-.1 0-.3.2-.3 0 .1-.1.2-.1.3 0zm-.5 1c.1-.2.6-.9.6-.9.1.3 0 .2.1.6-.4-.1-.3.2-.7.3zm-.4.6c-.6-.2-.1-.7.3-.6 0 .2-.1.4-.3.6zm-.4.3c-.2-.1-.2-.2-.1-.4.5.2.1.1.1.4zm-.3.7c0-.2 0-.6-.1-.8.4.1.2.5.1.8zm-.1.5c.2-.2.3.1 0 0 .1-.1 0 0 0 0zm2.4.5c-.1-.4.5.1 0 0zm-.4.4c-.1-.2.3-.3 0 0-.1-.1 0 0 0 0zm-.2.7c.2-.1.5-.1 0 0 .1 0 0 0 0 0zm-.1.2c.2-.1.3 0 .3.1-.1.1-.2.1-.3-.1zm.1.7c-.2-.1-.2-.2 0-.2.2.1.2.2 0 .2zm.3.5c.2-.1.4-.3.5 0-.2.1-.4.1-.5 0zm-.4.1c.2-.5.1.2 0 0zm-.2.7c-.3-.2.1-.3 0-.6.3.4.2.3 0 .6zm.3.2c-.1-.3 0-.4.3-.3 0 0-.2.6-.3.3zm-.3 1c-.1 0-.3-.1-.4-.2.2-.1.2 0 .3-.1.2.1.2.2.1.3zm.4.1c.2 0-.3.6 0 0zm0 1.3c.1-.3 0-.3.3-.5 0 .3-.1.3-.3.5zm-.5.2c.2-.2.3-.4.5-.6-.1.3-.2.6-.5.6zm-.3.9c.1-.2.1 0 0 0zm.2-.1s.3-1 .4-.7c-.1.3-.1.5-.4.7zm-1.2 3c-.1-.3.1.1 0 0 0-.1 0 0 0 0zm-.3.4c.1.3.1.2 0 0 0 .1 0 0 0 0zm-1 .6c.3-.3.3-.3.3-.7.1.1.2.2.3.2-.1.2-.4.5-.6.5zm.3.4c0-.4.5-.7.8-.6-.2.5-.5.3-.8.6zm.1.5c-.1-.2.1.3 0 0zm-.6-.1c-.1-.1-.3-.1-.4-.2.2 0 .8-.1.4.2zm.3.4c.2-.7.3.1 0 0 0-.1 0 0 0 0zm-.6.4c-.1-.3 0-.4.3-.2 0 .1-.1.2-.3.2zm-.8 1.1c.1-.2.1-.3-.1-.4.4 0 .4.2.1.4zm-.7.5c0-.3.1-.4.4-.3-.2.1-.3.2-.4.3zm0 .5c.1-.1.2-.1.3-.1-.1.2-.2.2-.3.1zm.1.4c.2 0 .3.1.3.3-.2 0-.3-.1-.3-.3zm-.4.3c.1-.2.1-.2.3 0-.1.1-.3.1-.3 0zm-.5.6c-.1-.2.1-.3.2-.4 0 .1.1.2.2.3-.2 0-.3 0-.4.1zm0 .8c-.1-.2 0-.3.3-.1 0 .1-.1.2-.3.1zm.1.5c-.2-.3 0-.5 0 0-.1-.1 0 0 0 0zm.3.3c-.3-.1-.1-.1 0 0-.1 0 0 0 0 0zm.1.3c-.1-.2.1-.1 0 0zm.2.4c-.1 0-.2-.2 0 0-.1 0 0 0 0 0zm-.3.5c-.1-.2-.1-.3.1-.4 0 .1-.1.3-.1.4zm.4.2c-.3-.2-.2-.2 0-.4v.4zm1.3 1h-.5c.2-.3.1-.3.5-.4.1.2.1.3 0 .4zm.1 1.1c.3 0 .3 0 .3.3-.2 0-.3-.1-.3-.3zm.6 1.3c.2 0 .2.1.2.3-.3 0-.3-.1-.2-.3zm99.2 56.6c.1-.2.2-.2.4-.1-.1.2-.2.2-.4.1zm-167.3-3.3c.4.7.8.4.9-.3 0 .2.3.5.3.1.2.3.4.1.4-.2.3.7.6-.4 1.1-.1 0-.1-.1-.3-.2-.4.2 0 .2-.1.3-.3 0 .2.1.7.4.8.1-.2.1-.3 0-.5.4.1.3 0 .6-.2-.1.7-.5 1.1-.8 1.8.8.4 1.1-1.7 1-2.4.9.3.3 1.5.6 2.2.2-.3.2-1 .6-1.1-.2.5-.1.7.2 1.2 0-.6.6-1.5.1-2.7 0 .3-.1.6-.2.9-.2-.6 0-.8 0-1.4-.3.4-.5.8-.5 1.3-.3-.1-.3-.3-.5-.5.2 0 .3 0 .3-.2-.1-.1-.2-.2-.3-.2.5-.5.7-.9.6-1.6-.3.6-.4.5-.5 1.3 0-.2-.1-.2-.3-.2.5-.5-.3-3.3-.5-1.3-.1-.3-.1-.4-.2-.8-.1.3-.1.5-.1.7-.3-.3-.3.3-.5-.2-.4 0 .1.4-.2.5v-.4c-.2.3-.4.2-.6.4l.1-.6c-.5.5.1-.4.3-.6-.4-.1-.4-.3-.7.1.1-.3.1-.2 0-.5-.1.5-.3 1-.4 1.5-.3-1.5.6-2.5.4-3.6-.1.2-.2.1-.3-.1.3-.4.6-.1.4-.8-.2.3-.3.3-.3 0-.3 1.3-1.7 3.4-.8 4.8-.3 0-.3 1.4-.5 1.9 0-.1-.1-.2-.2-.2-.1.3-.2.5-.1.7.1-.2.3-.3.4-.4.1.6-.1.9-.3 1.6zm-.3 4.9c.1-.5-.6-.8.2-1-.1.4-.2.5.1.7.3-.7.3-.8.4-1.4-.4.1-.3 0-.3.4-.4-.4-.5-1.1-.5-1.6-.7.1-.4 2.6.1 2.9zm-2.9-1.1c.1-.2.6.8 1.1.3.1.3 0 .2.2.4.1 0 .2-.8.3-1-.4.1-1.3.2-1.2.4-.3-.4-.3-.7-.4-1.1 0 .4-.1.6 0 1zm-1.1-5.8c.5.1.7.5 1 .7.2.1 1.5.1 1-.4-.3-.3-2.3-1.3-2-.3zm-6.3-48.8c0-.1 1.3-.8 1.4-1.5 0 0-.1-1.1-.2-1.5-.1.1-.6.9-.7.5-.2.5-.6 2.5-.5 2.5zm-.3.8c0 .1 0 .3-.1.4.1-.2.1-.3.1-.4zm.3-.2c0 .2.1.3 0 0 0 .1 0 0 0 0zm1.9.5c-.1-.1-.1-.2 0-.3.2 0 0 .2 0 .3zm-.2.7c-.2-.1 0-.3 0-.4.2.1 0-.1.2 0-.1-.1-.3.4-.2.4zm.3 1c-.2-.5.1-.4.3-.7-.1.3-.2.5-.3.7zm1.6 1.9c0-.2.1-.3 0 0 0-.1 0 0 0 0zm-.4.1c.1-.1.1-.4.3-.3 0 .1-.1.4-.3.3zm.4 3.1c.2.1.3-.3 0 0 .1.1 0 0 0 0zm1.1.7c.1.4.2-.3.1-.4 0 .2 0 .3-.1.4zm.8.8c0-.3 0-.4.2-.5 0 .1-.1.5-.2.5zm-.1 3.5c.4.1.2-.2 0 0 .1.1 0 0 0 0zm-1.7 4.3c.2.5.2 0 0 0 .1.1 0 0 0 0zm-8.4-4.9c.1-.6 0 0 0 0 0-.1 0 0 0 0zm0 .9l.1-.4c-.1.1-.1.2-.1.4zm0-.1c-.2.6 0 0 0 0-.1.1 0 0 0 0zm.1 2.9c.2 0 .2-1.5.2-1.6-.1.5-.3 1.1-.2 1.6zm8.1.9c.1 0 .2-.3.2-.6-.1 0-.2.6-.2.6zm.6 1.5c-.1-.2-.1-.3-.1-.5-.1.2-.3.5.1.5zm0 .2c0 .3 0 .5.2.8-.2-.3 0-.7-.2-.8zm-.4 3.3c.1-.1.2-.1.3 0 0-.1.2-.6 0-.6-.1.2-.2.3-.3.6zm-4.3-10.8c0-.5-.2-.1-.3-.4-.4 1-.8 2-.8 3.1.8.2 1-2.2 1.1-2.7zm.1.1c0 .2.1.3.1.6.2-.6.1-.7.2-1-.1.2-.2.3-.3.4zm.3-1c-.3 0 .4 0 0 0zm-.3.4c0-.1.2-.9 0-1v1zm-2.1-.4c.2-.2.1-.4 0 0zm.6-1c.1-.2.3-.5.3-.7-.3-.1-.3.3-.3.5.1-.3 0 .2 0 .2zm.6-.4s.4-.7.2-.7c-.1.2-.2.4-.2.7zm-.6 1.9c.4-.4.6-1.2.6-1.7-.1.1-.7 1.7-.6 1.7zm1-1.3c.2 0 .2-.7.2-.9-.3.3-.3.6-.2.9zm-1 2.1c.1-.2.1-.2.1-.4-.1-.1 0 .3-.1.4zm-.1.5c.2.6.2-.7 0 0 .1.1 0 0 0 0zm5.2 11.5l-.2-1.4c0 .1-.1.3-.1.4 0-.2-.1-1-.3-.5-.1-.4-.4-1.1-.6-.8-.2-.7-.6-.9-.2-1.4.1.3.1.2.3.4 0-.1.1-.3.1-.4.2.5.4.5.7 1 .1 0-.1-.7-.1-.8.2.3.2.5.2.8.5.1.2-.2.2-.5.1.2.2.5.2.1.1.2.1.3.2.5 0-.1 0-.2.1-.3.1.3 0 .5.2.8.4-.3-.3-.7.1-1.1 0 .2.1.2.2.2 0-.5-.6-1.7-.4-2.1.2.4.2.7.4 1.1 0-.8-.3-1.2-.1-1.8-.3.2-.2-.2-.5-.3.2-.2.2-.4.3-.6-.2 0-.1.3-.4.2 0-.2.3-.7-.1-.7 0 .4 0 .1-.3.4.1-.4.2-.3-.1-.6 0 .2 0 .5-.1.7-.2-1-.3-1-.2-2-.1.1-.4.6-.5.6.1-.3.2-.6.2-.9-.5.4.2-.5-.3 0 .1-.3.1-.4.1-.7-.2 0-.4.1-.5.2.2-.2.3-.3.3-.5.2.4.4 0 .4.7.6.1.3-1.3.1-1.3 0 .2 0 .3.2.2 0-.4 0-.8.4-1 0 .2-.1.4-.1.6 0-.1.1-.1.2-.1-.1.2-.1.3-.1.5 0-.1 0-.2.1-.3 0 .1 0 .3.1.3.2-.3.3-.7.4-1 0 .5-.2.9-.4 1.3.3.1.8-1.3 1-1.6-.1.2-.7 1.9-.6 1.9 0-.1.1-.2.3-.2-.1.1-.1.5-.2.6.1 0 .2-.3.3-.4-.1.3-.3.6-.3.9.1-.1.3-.2.4-.3-.2.4-.3.5 0 .8 0-.2.1-.3.1-.5v.6c.2 0 .2-.2.3-.3-.1.5 0 .3.2.6.1-.3.3-1.5-.1-1.6.2-.2.1-.5.2-1 .1.2.1.3.1.5.2 0 .2-.2.2-.4 0 .1 0 .2.1.3.1-.1.3-.6 0-.7.1-.1.2-.1.3.2.3-.4.1-.6-.2-.8.3.1.8.3.6-.3-.3.1-.3.2-.5-.1.3.1.4-.3.1-.4.1-.1.1-.1.3-.1 0 .1 0 .2.1.3 0 0 .7-.5.5-.6-.1.1-.2.2-.3.1.3-.2.1-.2.2-.5-.1-.1-.2 0-.3.1 0-.1.1-.2.1-.4.2 0 .3.1.2.3.2-.2.2-.9-.1-.6.1-.1.1-.3 0-.4-.1.1-.1.2-.2.2 0-.1.1-.3 0-.3-.1.3-.3.4-.1.8-.1-.1-.1-.3-.2-.4 0 0-.2.6-.2.7-.1-.3.1-.7.1-1l-.4 1.1c-.1-.5.3-1.1.4-1.6-.3.2-.4.7-.5 1.1.1-.2.1-.4.2-.7-.3.3-.7.6-.8 1 0-.4.2-.6.5-.9-.1 0-.5.2-.5 0l.5-.2c0-.2 0-.3-.2-.2.2-.3.1-.4 0-.7-.1.2-.2.3-.2.5 0-.2-.1-.2-.2.1.1-.4.2-.7.3-1.2-.3.5-.3 1-.5 1.5 0-.4.1-.8.1-1.2-.3.4-.3 1-.4 1.4 0-.2.3-1.1.1-1.2-.1.2-.2.4-.2.7-.1-.3 0-.4 0-.8-.2.2-.2.3-.3.5-.1 0 .2-.6.2-.6-.4-.1-.2.6-.4.5.1-.2.1-.3.2-.5l-.3.3c.1-.5.5-.6.6-1.1-.2.2-.4.1-.4.4-.1 0-.1-.1 0-.2-.1.2-.1.3-.2.5 0-.3-.1-.4-.4-.2.1-.3.1-.3.4-.4-.3-.1-.2 0-.6.1 0-.5.6-.4.6-.9.1-.2.3-.1.4-.4-.3-.1-.5.2-.6.6-.1-.2.3-.9.5-.9-.2.2-.3.2-.4 0 1.3.3 1.6-1.7-.2-.3.8-1 1.4-1.4 1.1-2.8-.5.4-1 2-1.4 2.7.2-.5 1-1.3.8-1.9-.4-.1-.5 1.4-.9 1.3.4-.6.9-1.5 1.1-2.2.1.5-.1-.7-.2-.8-.3.3-.4.8-.7 1.2 0-.4.3-.7.3-1.1-.4.9-.6 1.8-1 2.6l.3-1.2c-.3-.1-.3.6-.4.8.2-.7 1.1-1.9.8-2.5-.2.3-.2.6-.3 1 0-.3-.6.7-.7.7.1-.2.2-.4.2-.6-.1.1-.1.2-.2.3.3-1.3 1-1.3.5-2.5-.2.7-.5 1.4-.6 2.2-.2-.1.4-.8.1-.8 0 .1-.3.9-.3.9.1-.5.3-.9.3-1.4-.2.4-.2.8-.4 1.2.1-.3.2-.4 0-.4.2-.5.4-.9.5-1.4-.5.7-.5 1.2-1 2.1.1-.2.5-1 .1-.6.2-.3.3-.5.4-.9-.1.3-.2.5-.4.8.1-.2.2-.4.2-.6-.1.1-.1.2-.2.3.2-.5.5-.8.6-1.5-.4-.1-.7 1.5-.8 1.7.1-.5.4-1 .5-1.6-.3.2-.4.7-.5 1 .3-.8.8-1.3.7-2.1-.1 0-.2.3-.2.4 0-.6-.2.2-.1-.4-.5.4-1.1 1.1-.5 1.6-.3.2-.4 0-.5-.2-.1.5.2 1 0 1.5v-.5c0 .2 0 .4-.1.5-.1-.3 0-.6 0-.9-.1.2-.1.8-.3.8.1-.5.3-.9.3-1.3-.1.3-.2.5-.2.8 0 0 .1-.3 0-.3 0 .3 0 .5-.1.7v-.4c-.2.4-.3.9-.5 1.3.2-.6.3-1.2.6-1.9-.1.3-.2.5-.3.8.4-1.5.7-2.3 1-3.9-.5.7-.8 1.4-1 2.2.1-.1 0-.2 0-.3-.1.2-.1.4-.2.6-.1 0 .1-.4.1-.4-.2.3-.2.5-.2.8-.2-.1-.2.1-.3.5.1-.2.1.1.2.2-.1.1-.2.1-.2-.1-.2.4-.4 1.2-.4 1.7.1-.2.2-.4.2-.6-.1 0-.2 1.2-.2 1.4-.1-.3 0 0-.1 0 .1-.1.1-.2 0-.3-.1.3-.1.7-.2.7-.2.9-.1 1.8-.5 3 0-.2.1-.5.1-.7-.1 0-.5 1-.5 1.1.1-.4.5-1.4.6-1.4.1-.8 1.1-7.2 1.8-7-.7-.3-2.7 8-2.9 8.5.3-.2.2-.2.3-.5 0 .2-.3 1.3-.3.8-.3.5-.3 1.1-.4 1.7.2 0 0 .2.1.2s.2-.7.3-.8c.1 0 0 .4 0 .4.1-.3.2-.5.3-.8 0 .2-.4 1-.1 1.1.1-.4.3-.7.4-1.1 0 .4-.2.6-.1 1 .2-.4.2-.1.4-.7 0 .2 0 .2.1.2.5.2 0-1 0-1 .1 0 .3.1.2.1-.2 0 .2.5.2.6.1-.5-.1-.5.4-.9v.3c.8-.9.3-1.3.3-2 .1 0 .1 0 .1-.3v.3c.1-.3.1-.6.2-.9 0 .5-.2.8 0 1.3.1-.3.1-.3.3-.6 0 .2-.3 1.7-.3 1.8 0-.2.1-.3.2-.5-.1.3 0 .2.2 0-.1.3-.2.5-.3.7.3.1.1-.3.4-.2-.1 0-.2.5-.2.6.1.1.2 0 .2-.2-.2.6-.3 1.1-.4 1.7.2-.4.4-.7.5-1.1-.1.2 0 .2.1.2 0-.1.1-.7.3-.7 0-.1-.3.8-.1.4-.1.1-.1.3-.2.4.1 0 .1 0 .2-.2-.1 0 0 .7 0 .8.2-.3.1-.4.2-.7.2.3 0 .6.2.4-.1.2-.1.4-.2.6.1.1.2 0 .3-.1v.4c0-.2 0-.4.2-.6-.1.6-.1 1-.1 1.5.3.1.2-.3.2-.5 0 .1.2.1.3.1v.9c-.1-1-1 1.7-1 2.1.9.2.8-1.2 1.1-1.5.1 0 .1.7.1.7.2 0 .3-.1.4-.2.1.4.4.7-.1 1.4v-.3c-.4-.1-.1.7-.4.1-.1.5-.4 1-.5 1.5 0-.6.2-1.2.2-1.8-1 .7-1 .5-1.5 2-.1.7.1 1.3.1 2 0-.2 0-.4-.1-.5-.1 0-.2.6-.3.7-.1 0-.1-.1 0-.2-.3.4-.5.7-.7 1-.4-.4-.2.1-.5-.4 0 .8-.7 2-.3 2.9.1-.4.2 0 .2.1.4-.4.7-.9.6-1.4.7.8.4-.6.4-1 .1.1.1.2.2 0-.1.3-.1.5 0 .7.1 0 .1-.3.2-.4.1.3 0 .5 0 .8.1-.3.1-.6.3-.9 0 .2-.1.3-.1.5.2 0 .1-.6.3-.6-.1.4 0 1.3.3 1.4v.5c.1-.2.1-.4.1-.7 0 .3 0 .7.4.4-.1.4-.2.6-.5 1 .2 0 .9 1.3 1.2.5-.3.9 1 1 1.8 1.1zm-2.5-.2c.1-.4-.1-.4-.4-.4.2 0 .3.2.4.4zm-2.1 1c.1.1.2.2.4 0-.4-.2-.3 0-.4 0zm-3-5.1c0 .3.1.6.1.9.2-.3.1-.9-.1-.9zm-.2.6v.9c0-.2.1-1.4 0-.9zm-.6 6.9c.4-1.1.6-2.5.8-3.3.1.3-.2 1 .2.5 0 .3-.1.5 0 .7.2-.2.2-.2.5-.1 0-.6.3-1.1 0-1.6 0 .3-.1.3-.3.6.1-.7-.1-2.7-.6-2.7 0 .2-.1.4-.1.6 0-.2.1-1.4 0-1 0-.2 0-.4.1-.5-.5 1.7-.8 4.3-.7 6 0-.2.1-.5.2-.5-.1.5-.1.9-.1 1.3zm9.1-3.2c0-.2-.1-.4-.3-.6 0 .3.1.4.3.6zm0 .9c.2-.9-.6-.8 0 0 .1-.3 0 0 0 0zm-2 3.7c.1-.5.3-.7.3-1.2-.3.4-.4.7-.3 1.2zm-4.5-5.8c.1.1.2-.6 0 0zm.1.7c0 .3.2.2.2.5.4-.5.1-.5-.2-.5zm-.5 1l.3.6c.2-.4.2-.6.2-1-.1.2-.2.1-.3-.1-.1.2-.1.3-.2.5zm-1.7 4.5c0-.2.1-.4.1-.6.1.3.4-1.4.5-1.8-.3 0-.3.5-.4.7 0-.1 0-.2-.1-.3-.2.7-.1 1.3-.1 2zm1-.3c.3 0 .5-1.1.3-1.8-.1.1-.1.1-.2 0 0 .7-.1 1.2-.1 1.8zm0 4.4c.1 0 .3-.5 0 0 .1 0 0 0 0 0zm.3 7.6c.2 0 .1-.3.2-.4-.2 0-.1.3-.2.4zm.2.6c.1 0 .1-.4.1-.4v.4c.2-.3.2-.7.2-1.1v.4c0-.3 0-.5-.2-.8 0 .3 0 .6-.1.8v-.6 1.3zm.4 5c.2.7 0-.4 0 0 .1.1 0 0 0 0zm-.5 1.5c.1 0 .3-.2.5-.1-.1-.3-.1-.7-.5-.7.1.1.1.7 0 .8zm1.1 1.2c.2 0 .1-.3.1-.4-.1.1-.2.2-.1.4zm23.3 56.7c.1 0 0 0 0 0 .1.1 0 0 0 0zm-.4 0l.3.3-.3-.3zm82.3-116.2c.2-.1.5.2 0 0 .1 0 0 0 0 0zm-.4.9c-.3-.3-.3-.3-.7-.2.3-.3.4-.4.5-.8.3.3.5.2.8.5-.5.2-.3.3-.6.5zm.9-.1c-.1-.3.2-.1.4 0-.1.3-.2.1-.4 0zm-.8 2.2c-.2-.7-.4-.9-.9-1.4.6.1.9-.5 1.8-.6-.2.5-.5 1.7-.9 2zm-4.9-3.9c-.2-.2 0-.3.2-.4 0 .3.3.6-.2.4zm-.7-.2c.3-.3-.2-.3.1-.6.1.1.3.1.4.2-.3.3-.1.4-.2.8-.1-.1-.3-.2-.3-.4zm-.5-.1c.2-.1.4-.1.3.2-.1.1-.2-.1-.3-.2zm-.1 2.3c-.2-.2.1-.6 0 0-.1-.1 0 0 0 0zm-.2.6c.1-.4.1-.4.5-.3-.1.3-.2.5-.5.3zm2 1.6c.1-.2.5.3 0 0 0-.1 0 0 0 0zm.5 3.3c-1.3-.5-.7-2.4.5-2.3-1 .9.2 1.3-.5 2.3zm0 .7c-.6-.3-.2-.5.2-.6 0 .3 0 .5-.2.6zm-1.8 2.1c-.5-.8-.4-1.6-.5-2.4.6.4.6 1.7.5 2.4zm110.1 36c0-.6.1.2.1.3-.1.1-.1-.3-.1-.3zm-.1-1.8s.1.4.1 1.1c0-.4 0-.7-.1-1.1zm0-.8c.1 0 .1.4.1.5-.1 0-.1-.4-.1-.5zm0-1c0 .1.1.8 0 .8 0-.2-.1-.5 0-.8zm-.9-6.2c.1 0 .1.3 0 0zm-.1-1c.1.1.1.2.1.3-.1 0-.1-.3-.1-.3zm-.1.3c.1 0 .3.1.3.4-.1 0-.2-.3-.3-.4zm-.2-.6c.1-.1.1.3 0 0zm-.1-.2c.1 0 .1.3 0 0zm-.8-1.5c.1 0 .2.5 0 0 .1 0 0 0 0 0zm-.5-1.1c.2 0 .4.5 0 0 .1 0 0 0 0 0zm.1.4c.1 0 .1.3.1.4-.1-.1-.1-.3-.1-.4zm-.2-.3c.2 0 .2.3 0 0zm-1.9 21.7c.5.1-.1-.7.4-.7l-.3-.3c.3-.3.8.9.8 1.1.6.2.8 3.5-.2 3.4-.3-1-.2-2.7-.7-3.5zm-30.3-10.4c.5-.2.3 0 0 0 .2 0 0 0 0 0zm-42.3-.1c.1-.2.1-.3.2-.4.1.1 0 .3-.2.4zm.6-.9c.4.1.2.2 0 0 .1 0 0 0 0 0zm-.7-.3c0-.2.1-.3.3-.4 0 .2-.1.3-.3.4zm-116.2 63.8c.1 0 0 0 0 0zm-.1 0c.1-.1-.1.1 0 0zm-.2.2c.3.5.1 0 0 0 .1.1 0 0 0 0zm-3.2-6.2c-.2.1.2-.1 0 0zm0 .2c.1-.1.1.2 0 0zm0 .2c-.4 0 .5-.2 0 0zm0 0c.1.2.1.2 0 0zm0 .2s-.1-.2 0 0zm0 .1c-.2-.2 0 0 0 0-.1-.1 0 0 0 0zm-.2-.1c.3.4.1.1 0 0 .1.1 0 0 0 0zm-.3-2.4c.1.2.3.3.4.5 0-.4-.1-.3.1-.4-.1-.2-.3-.1-.5-.1zm1.3 1c.1-.1-.4-.9-.8-1.1.4.3.5.7.8 1.1zm1.1 1.4c-.1-.3-.3-.5-.5-.7.1 0 .6.7.5.7zm.7 1.3c0 .1.3.3 0 0 0 .1 0 0 0 0zm.2-.3c-.3-.2-.5-.6-.6-.8.2.3.5.5.6.8zm.2-.1c.3.5.2 0 0 0 .1.1 0 0 0 0zm.2.5c.1 0-.1.1 0 0zm.4.8s-.5-.5-.6-.8c.1.2.3.5.6.8zm.4.3c-.3-.4.1 0 0 0 0-.1 0 0 0 0zm.2.4c.3-.2-.1-.3 0-.4.1.1.1.3 0 .4zm.5 0c.3.3.2 0 .3.1-.1-.1-.1-.2-.3-.1zm.6 1c.1-.1.1 0 0 0zm.1.7c0-.1-.1-.3-.1-.4.2.2.2.2.2-.1.1.2.2.3.2.5-.5-.3-.1-.1-.3 0zm-3-1.9c.1.1.7.7.8.6-.3-.1-1-.9-.8-.6zm10.3 10.9c.4.3.1 0 0 0 .1.1 0 0 0 0zm1.2.5l.4.3c0-.1-.2-.5-.4-.3zm-.5-.2c.2.2.2.2.4.3 0 0-.3-.3-.4-.3zm6.5 2.7c.6-.3.5.1.2-.9-.3.3-.2.3-.5.1.1.3.7.3.3.8zm-.3-3.4c.1.1.2.3.3.2.3-.2-.5-.6-.3-.2zm-.9 1.1c.2.7.3-.2 0 0 0 .2 0 0 0 0zm0-.4c.1.3.2.2 0 0 0 .1 0 0 0 0zm-.2-.3c.1-.1-.1-.2 0 0 0-.1 0 0 0 0zm-.1-.2c.2-.1 0-.2-.1-.3 0 .1 0 .2.1.3zm-.4-.8l.3.3s-.3-.7-.4-.6c.1.1.1.2.1.3zm-.8-1.1c.1.1.5.6.6.5-.1-.4-.4-.7-.6-.5zm-.6-.9c.1.2.2.3.3.5.2-.2-.1-.5-.3-.5zm-.6-1.1c.1.3.2.2.5.3-.1-.1-.4-.4-.5-.3zm-.2.2l.6.6c-.2-.3-.3-.8-.6-.6zm-.6-.9c.3.3.2-.2 0 0zm-.4-.6c.6.4-.1-.3 0 0 .1 0 0 0 0 0zm-.6.3c.1.1.2.1.4.2-.2-.2-.2-.3-.4-.2zm-.6-.9c.4.5-.3-.4 0 0 0 .1 0 0 0 0zm-1 .5c.1.1.2.1.3.1-.1-.1-.1-.2-.3-.1zm-1.9-.5c1 1.8 1.6-1.3 0 0 .1.2 0 0 0 0zm-3.8-.8c.1.1.2.2.4.3-.2-.3-.4-.4-.4-.3zm-.4.3c.2.3.5.5.8.7-.3-.6 1.3.4 1.4.5 0-.3-.1-.5-.2-.7.4.2.1 0 .1-.2.2.2.3.3.4.5.2-.2.2-.2.1-.5.3.1.6 0 .9.2 0-.2 0-.2.1-.1-.4-.7-.8-.5-1.4-.9.8 0-1.9-1.4-1.5-.6-.2-.1-.6-.3-.8-.5.1.2-.2.2-.3.2.5.3 1.2 1 1.5 1.5-.4-.1-.8-.1-1.1-.1zm-5.1-6.6c-.2-.3-.3-.5-.5-.8.1-.1.5.6.5.8zm.2.3c-.2-.3 0-.3 0 0-.1-.1 0 0 0 0zm.3.5c-.2-.2-.2-.3-.2-.6 0 .1.3.4.2.6zm-.6 1.8c.3.5-.1-.3-.2-.4 0 .1.2.3.2.4zm2.9 2.3c.1.2.9.2 1.1.3-.1-.1-.1-.2-.1-.3 0 .1.1.2.2.3-.1-.3 0-.3.2-.2-.2-.9-2.2-1.6-2.3-1.9-.7-.8-3.6-3.3-2.6-1.1-.3-.4-.1.1 0 .1-.1-.3.2.1.1.1-.1-.2-.1-.2 0-.1-.1-.1-.1-.2-.1-.3.3.2.1-.2 0-.4.2.2 1.2 1.1 1.1.8.6.9 2.1 1.4 2.5 2.3-.2.1-.2.1-.1.4zm.8 1.7c.1-.1.7.8.9.7-.2-.3.1 0 .3-.1-.3-.3-1.4-1.2-1.2-.6zm31.9 18.9c.2-.2-.1-.2 0 0zm-.1.3c.1-.2-.1-.3 0 0 0-.1 0 0 0 0zm.9.3c.2 0 .4.1.5 0-.2-.3-.2-.1-.5 0zm-.7-.2c.2 0 .5.2.6 0-.3-.2-.4-.3-.6 0zm-.1.2c-.2-.3-.2-.3 0 0 0-.1 0 0 0 0zm0 .6c0-.1.2-.3 0 0 0-.1 0 0 0 0zm-.3 0c.1-.1.1-.2.3-.4-.3-.1-.2 0-.4.1.1 0 .1.1.1.3zm-42.2-49.5c.1.5.8-.7.9-.7-.2 0-.3.1-.2.3-.1-.1-.1-.3 0-.4-.2.4-.5.4-.4.6-.3-.4-.2 0-.3.2zm182.6 22.3c.1-.2.2-.5.4-.7.3.2-.2.6-.4.7zm-1.7 1.9c.1-.3.1-.5.5-.3-.1.3-.2.5-.5.3zm.1-17.1c0-.1.1-.2.1-.4.1.3.1.2-.1.4zm-8.8 11.1c.1-.1.2-.2.4-.2-.1.1-.3.3-.4.2zm-3.2 4.8c-.1-.2-.1-.4.1-.7.2.2.2.9-.1.7zm1.5-.2c-.3 0-.3-.1 0-.3.2.1.2 0 0 .3zm.8.3c-.1-.3 0-.4.2-.6-.1.2-.1.3-.2.6zm3.2-1.8c-.2-.1.3.3 0 0zm-3.6 14.3c-.5-.1-.7.1-1.3-.1 0-.4.2-1.3-.2-1.4-.5-.2.6-2.2.8-2.6.3-.5.4-1 .6-1.6-.3-.3-.7-.7-.6-1.1-.1-.1.3-1.8.5-1.9.7-.4 1.4-1.1 1.9-1.8.1.4.1.4.4.2-.5-.4-.1-.7.2-1.2.1.4.2.2.5 0-.7.1-.1-.5 0-.8v.3c0-.1.5-.6.4-.7.2 0 .2 0 .2.1.1-.4 0-.2-.2-.4.2-.2.4-.3.5-.5h-.4c.1-.3.1-.4.3-.6v.4c.7-.4.9-1.7.5-2 .4 0 .5-.5.7-.9 0 .7.4.4.5.8.4 1 .5 2 .3 3-.3 0-.4-.1-.3-.3-.5.6-.3 2.3-.5 3.1-.3 1.3-1.4 3-1.3 4.3-.2.3-1.2 2.8-1 2.9-.7 1.1-1.6 1.9-2.5 2.8zM153.5 155.3c-.5.3-2.8 1-2.8.1 0 .1-1.9 1.1-2.3 1.2-.1-.4-.2-.7-.1-1.1l.3.3c.4-.4 1-.9 1.3-1.5-.4.1-.5.3-.8.5-.4-.2.5-.5.2-.7-.5.5-.8.5-.8-.2-4.2 1.5.6-.6.6-1.6-.3.5-.5.5-1 .6.4-.3.7-.7 1.1-1-.2 0-.6.3-.7.2 0-.2.1-.3.1-.5-.2.3-.2.6-.5.2-.1.4-.6.7-.8.3-.3.7-.6 1.1-1.4.8.3-.4.3 0 .7-.2-.1-.1-.3-.4-.4-.5.5-.4.5.4 1-.4-.3.1-.3.1-.7.1.1-.3.2-.2.4-.4-.2-.1-.4-.1-.4-.3h.4c-.5-.7.4-.7.5-.1.1-.1.2-.3.3-.4.2.1.3.2.3.4.1-.1.1-.3.2-.4-.2-.1-.8-.1-.9-.4.3.1.4.1.6-.2-.3-.1-.6.1-1 .1.4-.9 1.4-.4 1.7.1.1-.1.2-.2.2-.3.2.1.2.3 0 .4.5 0 .4.4 0 .4.2.6.6.3.4 1 .2-.1.3 0 .4.2-.1-.3.1-.8.3-1.1 0 .1.1.2.2.4.8-.4-.4-1.3.1-2.1.3.5.4.7.8 1 .2-.4-.2-1.7.6-1.6.3 0 .8 1.1.9 1.4.1-.6-.9-2.5.7-1.4.1-.3.1-.6.3-.9.1.1.2.2.2.3.2-.2.3-.3.6-.5-.5-.4.1-.8.5-1 .1.3.3.7.6.8.1-.5.3-1 .8-1.1-.3.4-.1.5-.5.9.4.1.4.2.8-.2.1.5.2.5-.1.9.2.1.4-.1.6-.1 0 .1 0 .3.1.4.4-.2.5-.2.9-.2.1.4-.3.4-.4.7.2-.1.3-.1.5 0-.2 0-.3.1-.4.2h.6c-.1.5-.1.5-.6.4.5.4.5.4.1 1-.1-.1-.3-.2-.4-.3.4.5 0 .7.3.7-.3.6-.4 1-1 .5.2.3-.7 2.3-1.2 2.6-.1-.3-1 .3-1.2.4 0 .3-.3 1.3-.6.8-.1.1-.1.2-.2.4zm14-2.3c-.2-.4.5-.1 0 0 0-.1 0 0 0 0zm.8-.4c-.3-.1-.5-.1-.5-.4.1.1.9.3.5.4zm0 .6c-.3-.2-.6-.3-.7-.7.2.1 1.5.7.7.7zm.2.4c-.3-.1-.4-.2-.1-.3.2.1.2.2.1.3zm0 .4c.3.1.4.2.2.5 0-.1-.1-.3-.2-.5zm7.9-.4c-.1-.2-.1-.4 0-.6.1.2.4.5 0 .6zm-.2.3c-.3-.1-.3-.2-.1-.4.1.2.1.3.1.4zm.5.6c-.3-.2-.3-.1-.7-.1.2-.2.4-.3.3-.6h.4c-.1.3-.1.5 0 .7zm-.9 20.1c-.1.2-.6.4-.8.1-.1.7-3 3.5-3.5 3 .2-.1.3-.2.4-.5-.2.1-.4.2-.7.3.1-.2.3-.4.4-.6-.6.6-.3.3-1 .2.3-.3.5-.4.5-.8-.3.2-.5.4-.8.5.4-.9 1.3-1.2 1.8-2-.2-.2-1 .4-1.3.6.4-.6.4-1.3.9-1.7-1.2-.1-2.3.3-1.2-1.2-.8 0-.4-.4-1.1-.5.2-.6 1.5-.6 2.2-1-.3-.2.1-.5.2-.8-.2-.3-.8.1-1.1-.1.3-.2 1.3-2.1 1.6-1.3.1-.4-.1-1 .5-.5-.2.2-.2.3-.2.6.8-1.5 2.1-.9 2.7.4-.1 0-.2-.1-.4-.1.3.2 0 1.3-.5 1.4 1.4 1.1.9 2.8 1.4 4zm26.3-17.6c.4.1.6 0 .8.4-.3.5-.8 0-.8-.4zm-3.8 2.2c-.2 0-.3-.1-.1-.4-1 .1-.8-.2-1.5-.7.3-.2.3-.2.4-.5.3.2.5.3.8.4-.1-.2-.1-.3.2-.2-.1-.4-.3-.3-.6-.4 0-1.2 1.1-.1 1.4.1-.1.4-.2 0-.4.5.8.4 0 .5.2 1.1-.1 0-.3.1-.4.1zm.1.4c-.1-.3.2-.2.4-.2 0 .3-.1.4-.4.2zm-1 .3c.2-.3.9-.1 1.3.1-.7.3-.8.4-1.3-.1zm-1 .3c.1-.1.4-.2.4.1-.2 0-.3-.1-.4-.1zm-1.3-.7c.9-.4 2-1.1 2 .8-.3-.3-.1-.3-.2-.7-.6.3-1.2.7-1.8-.1zm-20-1.1c-.3-.1-.1-.2 0-.4.2.1.3.2 0 .4zm.2.3c-.6-.3 0-.3 0 0-.2-.1 0 0 0 0zm-4.3 4.1c0-.4 0-.4-.3-.8.2-.4.6-.7 1-1.3.1.6 0 1.9-.7 2.1zm.1.5c-.1 0-.2-.1-.3-.2.2-.1.4-.1.3.2zm0 1.1c-.2-.3-.2-.4-.1-.7.2.1.3.6.1.7zm1.8-.3c-.2-.4-.2-.3-.6-.3v-.4c-.2 0-.3 0-.5.1-.1-.3 0-.3.1-.6.1.1.2.2.3.2.2-.2.2-.3-.1-.4.6-.3.2 1.3 1.1.7-.1.3-.1.4-.3.7zm-.6.4c.3-.4.3 0 0 0 .1-.1 0 0 0 0zm.8.8c-.3 0-.3-.1-.1-.3.2.1.2.2.1.3zm.1.1c.1-.1.3-.1.4-.2 0 .4-.1.4-.4.2zm.7 1.3c-.4-.3-.2-.3.1-.7-.1.2-.1.4-.1.7zm-.1.3c-.2.2-.5.1-.7-.1.1-.1.3-.2.4-.2.1.1.2.3.3.3zm.9.6c-.4.2-.1-.6-.2-.9.3.1.2.7.2.9zm.4-.4c-.2-.1-.3-.2-.2-.4.1 0 .5.3.2.4zm1.4 2.4c.2-.3.2-.4.3-.8.4.4.3 1.2-.3.8zm1.4 1.8c-.5.1-.4-.2-.4-.6.2.1.4.1.5.2 0 .2-.1.3-.1.4zm.4 7.3c-.1-.8 1.2-1.9 1.1-3.1.8-.6 1.2-.5 2.1-1.3-.5.1-.6.1-.8.6-.7.2-.9-.4-1.6-.1-.3-.8-.8.2-1.4.3 0-.4.1-.3-.3-.5.6-.6 2.1-1.9.7-2.6-.1.2-.2.5-.5.5.3-1.2.6-1.8 1.9-2.1-.3-.6 0-1.2-.4-1.7-.9.4-1.9-.7-.9-1.5-.3-.2-1.6.9-1.6 1.2-.2-.1-.5-.1-.7-.2v.4c-.3-.2-.8-2.6-.4-2.7-.6.1-.6.3-.3.8-.2-.1-.5-.3-.7-.4.1-.1.1-.3.2-.4-.4.3-.4.5 0 .9-.8.1-.8-1.3-.3-1.6-.4-.1-.3-.7-.1-1.1-.7 1.1-.5.7-1.4.9.1-.2.3-.3.6-.3 0-.1-.1-.2-.2-.2.6-1 .3-.9-.4-1.4.1-.1.3-.1.5-.1-.7-.6-.4-.7.3-1.1-.5-.4-.4-1-.4-1.6 0-.1 2.1-1 2.5-1.2.1 1-.5 2.2-1 2.8.2 0 .3.1.2.2.6-.8 1.9-.6 2.5-1.3 1.3-.1.5 2.9-.2 3.4.4-.1.4 0 .7.1-.1.4-1.1.7-1.2 1 .8 0 1.2-.7 1.9-.5 1.2 0 1.4 1.2 2.1 1.5 1.1.4 2.4.9 3.1 2.1-.2 0-.4-.1-.5-.1.4.7 1.4.3 1 1.4.6.2 1.2-.4 1.9-.6.6.4 1.5 1.3.7 2s-.8 2.1.6 1.1c0 1.3-.7 1.1-1.4 2-1.3-.3-2.1 1.1-3.1 1.2-.1.6-.6.6-1.1.5-.5.4-.8 1.5-1.2 1.4-1.7-.3-1.5 1.3-2.5 1.4zm34 .6c.2.1.4.2.6.4-.3-.1-.5-.2-.6-.4zm-.6-.4c.2.1.3 0 .4.3-.1-.2-.3-.2-.4-.3zm-.9-1.2c.3.1.7.8.7 1.1-.3-.3-.8-.6-.7-1.1zm65.6 13.1c-.2-.3-.5-.6-.2-.9.1.3.4.7.2.9zm4.4.8c.1-.1.2-.2.2-.4.2.3.3.7-.2.4zm.6-4.6c.3-.3.5-.7.8-1 0 .2-.4 1.5-.8 1zm7.2 7.9c0-.4 0-.8.1-1.2 0 .5.1.8-.1 1.2zm-2.5 14c.1-.4.7-1 1.3-.9-.5.4-.7.9-1.3.9zm-18 3.2c.5 0 .5 0 .9-.3-.2.6-.5.7-.9.3zm2-2.7c.2.3.2.4.5.2v.4c-.3-.2-.4-.2-.5-.6zm-23-22.6c-.8-.3-1.1.2-1.6-.6.4-.5 1-.4.7-1 .8-.4 1.4-.9 2.2-1.3-.4.8-.7 1-.2 1.7-.4.2-1.1.7-1.1 1.2zm-14.5 1.4c.4-.3.3.1 0 0 .1-.1 0 0 0 0zm2-2.5c-.2-.1-.2-.2 0-.3.1.1.1.2 0 .3zm-2.9-5.1c.2-.1.3-.2.5-.3-.1.2-.3.3-.5.3zm-.4-.4c0-.2.1-.2.3-.2-.1.2-.1.3-.3.2zm-1.7 0c.1-.1.3-.1.4 0-.2.4-.5.4-.4 0zm1.2 1.3c0-.2.5-.3.6-.3-.1.2-.1.4-.1.5-.1-.4 0 .1-.5-.2zm2.8 1.2c-.2 0-.2-.6-.2-.6-.5 1.2-.9.2.1-.4.1.6.9.7.1 1zm-.2 1c.5-.2 1 .1.5.7-.2-.2-.2-.5-.5-.7zm-2.4 0c.3.1.4.1.5.4-.2-.1-.4-.2-.5-.4zm-1.5.3c.4-.1.4.2 0 0 .1 0 0 0 0 0zm2.4 1.4c.1.1.1.2.1.4-.8-.2-2.2-1.1-3.2-1 .5-1.3 2.6.8 3.1.6zm1 .6c-.3.2-.8 0-.6-.4.2.3.4.3.6.4zm2.1-.9c.1-.3.2-.3.6-.3-.3.3-.3.3-.6.3zm-1.6 1.1c-.3 0-.3-.1-.1-.2.2 0 .3.1.1.2zm.3.9c-.2 0-.2-.1-.1-.3.1.1.2.2.1.3zm.5-.1c-.5-.1-.3-.2 0-.5 0 .2.1.2 0 .5zm1.6.3c-.1-.1 0-.3.2-.4-.1.2-.1.3-.2.4zm2.3.3c-.1-.6-.1-1.1.6-1.3-.2.4 0 .9-.6 1.3zm-.3 1.1c-.3-.4-.3-.4-.2-.9 0 .4.3.6.2.9zm-5.5 1.7c.2-.1.5 0 .8-.4.4.5 3.4-.5 3.4-.8.5 1.2-3.7 2.4-4.2 1.2zm-1.6-1.1c.1.1.3.2.4.3-.4.3-.4 0-.4-.3zm-4.6-1.3c.2.1.4.1.5.2-.1.4-.4 0-.5-.2zm-.6-.9c.3.1.5.4.8.5-.7.1-.8.1-.8-.5zm-.1-.4c0-.3.3-.1 0 0 0-.1 0 0 0 0zm-2-1.9c.2.3.4.4.7.6-.2.2-.9-.2-1.1-.2 0-.2.1-.3.4-.4zm-5.3 5.5c.2.7-.1 1.2 0 2 .7.5.4.6.6 1.2-1 0-5.7.1-4.8-1.4 1.2.4 3.5-2.1 4.2-1.8zm-11.9-5.8c.1-.2.2-.3.4-.2-.1.2-.2.3-.4.2zm-1.2 3.2c.2-.1-1.8-2.7.1-2.5-.2-.3-.3-.4-.2-.8.7.9 2 3.5.1 3.3zm2 5.3c-.7-.7-.8-1.7-1.4-2.1.3-.8-.7-1.1-.9-1.9 1.4.2.9-1.7 2.6-.1-.3.9 1.4 2.1.8 3.2-.2-.1-.5-.1-.7-.2.2.7.3.8-.4 1.1zm-8.2.8c.2-.6.8-.5 1-.1-.3-.1-.6.1-1 .1zm-1 .8c.3-.3.5-.2.9-.3-.2.3-.2.5-.1.9-.7 0-1 .1-.8-.6zm-1.3 2.2c.1-.5.1-.5.5-.4-.1.2-.1.4-.2.6-.1-.1-.2-.1-.3-.2zm-3.8-39.6c0-.2 0-.3.2-.3 0 .1.1.6-.2.3zm65.7 5.1c-.4-.2-.5-.3-.6-.8-1.5.8-1.2-2-1.4-3 .1.1.2.1.3.2.2-.1.2-.2 0-.4.2.1.4-.1.7-.1 0-.2-.1-.3-.4-.3.4-.1.4-.2.8-.1.1-.4-.5-.3-.8-.4.3-.2.5-.4.8-.1.1-.5 0-1-.4-.9.2-.3.4-.3.6 0 .6-1.2 1.6-2.6 3.1-1.8-.4-1 1-.6 1.3-.7 0 .7.8 2.6 1.5 2.5-.2.8-1.4.1-2.1.9-.5.6.2 1.5.9 1.3-.2.4-.7.4-1.2.6-.9.4.6.6.9.9 1.3.9 1.9 2 3.5 1.3 0 .4.2.8.2 1.3.3.4 1.2 1 1.3 1.4.9.8.7 2 1.9 2.6l-.3-.3c.4-.1.4 0 .7-.4-.1.7.3.4.6.8 0 .2-.5.2-.6.1-.1.4 0 .4.2.8 0-.1-.1-.3-.1-.4 1.1.2 1.1.6 1.8 1.5.3 1.1 2.5 2.6.5 2.8l.6-.3c-1 .3-1.7 1.4-2.8 1.5-.8.1-1.9-.7-2.4-.3-.9-.5-1.3.7-1.8-.8-.5-.5-1.1-1.4-1-2.1.3.2.1.5.5.7 0-1-1.6-3.2.3-3.2-.3-.4-.8-.4-1.1 0-.8-.8-2-1.6-3-2.1-1.3-.5-1.9-1.6-2.8-2.4.1-.2.2-.2.3 0-.1-.2-.1-.4-.2-.6-.2.1-.2.2-.3.3-.2-.2.1-.2 0 0z"/></g><path fill="#E2E2E1" d="M36.3 340.1c-3 6.8-5.8 13.8-7.1 21.2-.7 4-1.2 8.9.9 12.6 3.3 5.8 11.8 4.5 17.1 3.2 11.6-2.8 22.5-8.8 32.7-14.7 13.4-7.8 26.2-16.7 38.6-25.9 54.4-40.5 103.6-88.6 148.9-139 22.1-24.6 43.3-50.1 62.8-76.9 8.8-12.1 17.2-24.5 25-37.4 7.3-12.1 14.2-24.6 19-37.9 2.3-6.6 5.6-15.8 2.6-22.7-3.4-7.8-15-4.8-21.1-2.9-13.7 3.9-26.3 11.3-38.3 18.8-12.7 8-24.9 16.8-36.8 25.9-7.7 5.9-15.3 12-22.8 18.2-2 1.6-3.9 3.3-5.9 4.9-2 1.7-2.4 2.5-4.8 1.5-1.5-.7-3.1-1.2-4.7-1.7 12.5-11.8 26.7-22.3 40.5-32.6 17.2-12.8 35-25.3 54.4-34.8 7.5-3.7 15.5-7.1 23.8-8.5 5.7-1 12.2-1 17 2.7 7.8 6 6.3 17.6 4.1 25.9-3.6 14-10.6 27.2-17.8 39.7-15 26-32.9 50.3-51.6 73.8-21.8 27.3-45 53.5-69.2 78.7-24.2 25.3-49.6 49.8-76.2 72.8-22.9 19.8-46.6 38.9-72.1 55.3-9.6 6.2-19.6 12.1-30 16.8-8.3 3.8-17.7 7.5-27 7.2-25.3-.8-13.6-33.4-7.7-46.7M52.3 298.6c8.3-12.9 17.2-25.4 26.3-37.6 8.9-11.9 18.6-23.1 27.6-34.9.4 1 1.9 6.4 2.9 6.7-.8-.2-6.3 7.6-7.1 8.6-2.6 3.3-5.3 6.6-7.9 9.9-4.7 5.9-9.2 11.9-13.7 17.9-7.9 10.6-15.5 21.4-22.7 32.5"/><path fill="#E2E2E1" d="M363.6 327.2c-29.2-10.3-57.4-23.3-85-37.2-32.1-16.3-63.5-34.2-94-53.3-28.3-17.8-55.9-36.6-82.2-57.1-23.2-18.1-46.6-37.3-65.1-60.4-5.1-6.3-10-13.2-12.9-20.8-2-5.3-3.2-11.6-.1-16.8 1.4.8 2.8 1.7 4.2 2.5 1.6.9.6 1.2.3 2.8-.7 2.9.1 6.1 1.1 8.8 3.7 10 11.2 18.8 18.2 26.6 20.1 22.5 44 41.8 68 59.9C171.7 224 232 260.4 294.5 290.9c14.5 7.1 29.3 13.8 44.2 20 6.6 2.8 13.3 5.4 20.1 7.9 1.5.6 3.1 1.1 4.6 1.7 1.2.4 2.5.3 2 1.6l-1.8 5.1zM130.2 102.9c-1.3-.5-12.8-4.9-12.6-5.3.7-1.8 1.4-3.7 2.1-5.5 4.3 1.7 8.6 3.4 12.8 5.1-.7 1.9-1.5 3.8-2.3 5.7zM104.7 93.1c-1.3-.5-13-4.2-12.9-4.6l1.8-5.7c4.4 1.4 8.8 2.9 13.1 4.4-.6 2-1.3 3.9-2 5.9zM78.7 84.9c-1.3-.4-13.2-3.1-13.1-3.4.4-1.9.8-3.9 1.2-5.8 4.6.9 9.1 2 13.6 3.2-.6 2-1.2 4-1.7 6zM39.3 80.1c-.3-2.1-.6-4.1-.9-6.2-.2-1.3 12.1-.7 13.3-.6 1.6.1 1 .8.9 2.3-.1 1.4-.2 2.7-.4 4.1 0 .5-11.6.2-12.9.4z"/><path fill="#EBB65C" d="M177.5 158.8c.7-14.4 7.1-28.6 14.7-40.6s18.5-22.6 14.2-37.9c-3.4-12.1-14.2-21.1-26.7-22.1-12.3-1-24.2 6-29.5 17.2-2.8 5.8-3.9 12.6-2 18.8 2.5 8.3 8.1 14.6 12.9 21.6 4.7 7 8.6 14.5 11.5 22.3 1.4 3.7 2.6 7.6 3.4 11.5.3 1.5.7 8.8 1.5 9.2z"/><path fill="#F3D0B4" d="M190 87.5c0 7-5.8 12.8-12.8 12.8-7 0-12.8-5.8-12.8-12.8 0-7 5.8-12.8 12.8-12.8 7 0 12.8 5.8 12.8 12.8z"/><g><g fill="#54C4CD"><path d="M426.7 104.9c-.2-.6-.5-1.2-.7-1.9-.3-.9 1.5-1.2 2.2-1.6.4-.2 2.9-2 3-1.8l1.5 1.8c-1.8 1.5-3.9 2.7-6 3.5zm9-6.5c-.5-.4-1-.8-1.5-1.3-.7-.6.7-1.7 1.1-2.4.2-.4 1.5-3.1 1.7-3.1.7.3 1.5.6 2.2.8-.9 2.2-2.1 4.2-3.5 6zM436.8 78.2c-.7-1.9-1.8-3.7-3-5.3.1-.4 1.6-1.3 1.9-1.6 1.5 1.8 2.6 3.8 3.4 6-.8.3-1.5.6-2.3.9zm-5.7-8c-1.6-1.3-3.4-2.3-5.3-3-.1-.4.7-1.9.9-2.3 2.2.8 4.2 2 6 3.4-.6.6-1.1 1.3-1.6 1.9zM401.4 78.2c-.8-.3-1.5-.6-2.3-.9.8-2.2 2-4.2 3.4-6 .4.3 1.8 1.1 1.9 1.6-1.2 1.6-2.3 3.4-3 5.3zm5.7-8c-.5-.6-1-1.3-1.6-1.9 1.8-1.5 3.8-2.6 6-3.4.2.4 1 1.9.9 2.3-1.9.7-3.7 1.7-5.3 3zM411.5 104.9c-2.2-.8-4.2-2-6-3.4.4-.5.8-1 1.3-1.5.6-.7 1.7.7 2.5 1.1.4.2 3.1 1.5 3.1 1.7-.3.6-.6 1.3-.9 2.1zm-9-6.5c-1.5-1.8-2.6-3.8-3.4-6 .6-.2 1.2-.5 1.9-.7.9-.3 1.2 1.5 1.6 2.2.2.4 2 2.9 1.8 3-.6.5-1.2 1-1.9 1.5zM419.1 106.3c-1.2 0-2.3-.1-3.4-.3.1-.7.2-1.3.3-2 .2-1 2.3-.2 3.1-.2.9 0 3-.7 3.1.2.1.7.2 1.3.3 2-1.1.2-2.2.3-3.4.3zm-21.1-18c-.4-2.3-.4-4.6 0-6.9.7.1 1.3.2 2 .3 1 .2.2 2.3.2 3.1 0 .9.7 3-.2 3.1-.7.2-1.4.3-2 .4zm42.2 0c-.7-.1-1.3-.2-2-.3-1-.2-.2-2.3-.2-3.1 0-.9-.7-3 .2-3.1.7-.1 1.3-.2 2-.3.4 2.2.4 4.5 0 6.8zm-18-22.1c-2-.3-4.1-.3-6.1 0-.3-.3-.3-2-.4-2.4 2.3-.4 4.6-.4 6.9 0-.2.8-.3 1.6-.4 2.4z"/></g></g><g><g fill="#54C4CD"><path d="M24.7 221.5c.1-.7.2-1.3.3-2 .1-1 2.2-.3 3.1-.3.9 0 2.9-.8 3.1.1.1.7.3 1.3.4 2-2.2.4-4.6.5-6.9.2zm11-1.5c-.3-.6-.5-1.2-.8-1.8-.4-.9 1.4-1.2 2.2-1.6.4-.2 2.8-2 2.9-1.9l1.5 1.8c-1.7 1.5-3.7 2.7-5.8 3.5zM46.3 202.8c.3-2 .2-4.1-.2-6.1.3-.4 1.9-.4 2.4-.5.4 2.3.5 4.6.2 6.9-.7-.1-1.6-.2-2.4-.3zm-1.2-9.7c-.8-1.9-1.9-3.6-3.2-5.2.1-.4 1.5-1.3 1.9-1.6 1.5 1.7 2.7 3.7 3.6 5.9-.8.2-1.6.6-2.3.9zM15.2 186c-.5-.6-1.1-1.2-1.6-1.9 1.7-1.5 3.7-2.7 5.9-3.6.2.4 1.1 1.9.9 2.3-1.9.8-3.7 1.8-5.2 3.2zm8.8-4.3c-.2-.8-.3-1.6-.5-2.4 2.3-.4 4.6-.5 6.9-.2-.1.8-.2 1.5-.3 2.3 0-.1-5.4.2-6.1.3zM11.4 214.3c-1.5-1.7-2.7-3.7-3.6-5.9.6-.3 1.2-.5 1.8-.8.9-.4 1.2 1.4 1.6 2.2.2.4 2 2.8 1.9 2.9-.5.6-1.1 1.1-1.7 1.6zm-4.8-10c-.4-2.3-.5-4.6-.2-6.9.7.1 1.3.2 2 .3 1 .1.3 2.2.3 3.1 0 .9.8 2.9-.1 3.1-.7.2-1.4.3-2 .4zM17.4 219.1c-1-.5-2-1.2-2.9-1.9.4-.5.8-1.1 1.2-1.6.6-.8 1.8.7 2.5 1.1.4.2 3.2 1.4 3.1 1.6-.3.7-.5 1.5-.8 2.2-1-.4-2.1-.9-3.1-1.4-1-.6 1 .5 0 0zm-10-25.8c.8-2.2 1.9-4.2 3.3-6.1.5.4 1.1.8 1.6 1.2.8.6-.9 2.1-1.3 2.9-.4.8-.8 3-1.7 2.6-.7-.2-1.3-.4-1.9-.6zm37.1 20c-.5-.4-1-.8-1.6-1.2-.8-.6.9-2.1 1.3-2.9.4-.8.8-3 1.7-2.6.6.2 1.3.4 1.9.7-.8 2.1-1.9 4.2-3.3 6zm-5.4-28a20 20 0 0 0-5.4-2.9c-.2-.4.7-1.9.8-2.3 2.2.8 4.2 1.9 6.1 3.3-.5.6-1 1.2-1.5 1.9z"/></g></g><g><path fill="#54C4CD" d="M8.6 278.3c-2 3.7-7.7.6-5.7-3.1 2-3.6 7.7-.5 5.7 3.1-.8 1.6.9-1.5 0 0z"/><path fill="#F3D0B4" d="M11.4 260.1c.5 2.2 1.1 4.4 1.6 6.6-4.4-1.3-8.7-2.5-13.1-3.8 3.3-3.1 6.5-6.3 9.8-9.4.6 2.2 1.2 4.4 1.7 6.6z"/></g><path fill="#54C4CD" d="M299.5 343.3c-2 3.7-7.7.6-5.7-3.1 1.9-3.6 7.6-.5 5.7 3.1-.9 1.6.8-1.5 0 0z"/><path fill="#E2E2E1" d="M456.9 292.1c.6 2.5 1.2 5 1.9 7.6-5-1.4-10-2.9-15-4.3 3.7-3.6 7.5-7.2 11.2-10.8.7 2.4 1.3 5 1.9 7.5z"/><path fill="#54C4CD" d="M260.4 24.6c-2.3 4.2-8.8.7-6.5-3.5 2.3-4.2 8.8-.7 6.5 3.5-.9 1.8 1-1.8 0 0z"/><path fill="#EBB65C" d="M111.6 30.8c-1.8 3.3-6.8.5-5-2.7 1.7-3.3 6.8-.6 5 2.7-.7 1.4.8-1.4 0 0z"/><path fill="#E2E2E1" d="M237 11.4c-1.4 2.2-2.8 4.3-4.3 6.5-2.3-4.6-4.7-9.3-7-13.9 5.2.3 10.4.6 15.5.9-1.4 2.1-2.8 4.3-4.2 6.5z"/><path fill="#E2E2E1" stroke="#E2E2E1" stroke-width="3" stroke-miterlimit="10" stroke-dasharray="4,3" d="M168.6 370.6l292.6-.1M15.6 58.6l114.7-.1"/></svg>