<svg xmlns="http://www.w3.org/2000/svg" width="451.7" height="301.5" viewBox="0 0 451.7 301.5">
  <path fill="#EBB65C" d="M374.9 247.4c-.2.7.3 1.4 1.1 1.7l7.4 2.3c.8.2 1.6-.3 1.9-1.2.2-.9-.2-1.8-1-2l-7.6-1.6c-.9-.3-1.7.1-1.8.8zm-3.5 8c-.4.6-.1 1.5.6 1.9l6.4 4.4c.7.5 1.7.2 2.2-.6.5-.8.3-1.8-.4-2.2l-6.8-3.8c-.8-.4-1.7-.2-2 .3zm-5.7 6.8c-.5.5-.5 1.3 0 2l4.9 6.1c.5.7 1.6.7 2.3.1.7-.6.8-1.7.2-2.2l-5.4-5.6c-.7-.8-1.5-.9-2-.4zm-7.5 4.7c-.6.3-.9 1.1-.6 1.9l2.8 7.2c.3.7 1.3 1.2 2.1.7.9-.4 1.3-1.4.9-2.1l-3.5-7c-.2-.6-1.1-1-1.7-.7zm-8.5 2.3c-.7.1-1.2.8-1.2 1.6l.6 7.8c.1.8.9 1.5 1.8 1.3.9-.1 1.6-.9 1.5-1.7l-1.2-7.7c-.1-.8-.8-1.4-1.5-1.3zm-8.8-.3c-.7-.1-1.4.4-1.6 1.2l-1.7 7.6c-.2.8.4 1.7 1.4 1.8.9.1 1.8-.4 1.9-1.2l1.1-7.7c0-.8-.4-1.6-1.1-1.7zm-8.3-2.8c-.6-.3-1.4-.1-1.9.7l-3.9 6.7c-.4.7-.1 1.7.8 2.1.9.4 1.8.1 2.2-.6l3.3-7c.3-.8.1-1.6-.5-1.9zm-7.2-5.2c-.5-.5-1.3-.5-2 .1l-5.7 5.3c-.6.6-.6 1.6.1 2.3.7.6 1.7.7 2.3.1l5.2-5.8c.6-.7.6-1.5.1-2zm-5.3-7.1c-.3-.6-1.1-.8-1.9-.5l-7 3.4c-.7.4-1 1.3-.6 2.2.5.8 1.5 1.1 2.2.7l6.7-4c.7-.4 1-1.2.6-1.8zm-2.9-8.3c-.1-.7-.8-1.1-1.7-1l-7.7 1.2c-.8.1-1.4 1-1.2 1.9.2.9 1.1 1.5 1.8 1.3l7.6-1.8c.8-.2 1.3-.9 1.2-1.6zm-.4-8.8c.1-.7-.5-1.3-1.3-1.5l-7.7-1.2c-.8-.1-1.6.5-1.7 1.5-.1 1 .6 1.8 1.4 1.8l7.8.5c.8.1 1.5-.4 1.5-1.1zm2.2-8.5c.3-.6-.1-1.4-.8-1.8l-7-3.4c-.7-.4-1.7 0-2.1.9-.4.9 0 1.9.8 2.1l7.3 2.8c.8.3 1.6 0 1.8-.6zm4.7-7.5c.5-.5.4-1.4-.2-2l-5.7-5.3c-.6-.6-1.6-.5-2.3.3-.7.7-.5 1.8.1 2.3l6.1 4.8c.7.5 1.5.4 2-.1zm6.7-5.8c.6-.4.7-1.2.3-2l-3.9-6.7c-.4-.7-1.4-.9-2.2-.4-.8.5-1.1 1.5-.6 2.2l4.5 6.4c.4.6 1.3.8 1.9.5zm8-3.6c.7-.2 1.1-1 .9-1.8l-1.7-7.6c-.2-.8-1.1-1.3-2-1-.9.2-1.5 1.1-1.2 1.9l2.4 7.4c.2.8 1 1.3 1.6 1.1zm8.8-1c.7 0 1.3-.6 1.4-1.4l.6-7.8c.1-.8-.7-1.5-1.6-1.6-.5 0-.9.1-1.2.4-.3.3-.5.7-.5 1.1l.1 7.8c0 .4.2.8.4 1 .1.3.4.5.8.5zm8.7 1.6c.6.2 1.4-.2 1.7-1l2.8-7.2c.3-.8-.2-1.7-1.1-2-.4-.2-.9-.2-1.3 0s-.7.5-.8.9l-2.2 7.5c-.1.4-.1.8.1 1.1.2.3.4.6.8.7zm7.8 4.1c.6.4 1.4.2 1.9-.4l4.9-6.1c.5-.6.3-1.6-.4-2.2-.8-.6-1.8-.5-2.2.2l-4.3 6.5c-.6.6-.5 1.5.1 2zm6.2 6.2c.4.6 1.3.6 2 .2l6.4-4.4c.7-.5.8-1.5.2-2.2-.6-.8-1.6-1-2.2-.4l-6 4.9c-.6.4-.8 1.3-.4 1.9zm4.2 7.7c.2.7 1.1 1 1.9.7l7.4-2.3c.8-.2 1.2-1.2.9-2.1-.3-.9-1.2-1.4-2-1.1l-7.2 2.9c-.8.5-1.2 1.3-1 1.9zm1.7 8.7c0 .7.7 1.3 1.6 1.3h7.8c.8 0 1.5-.8 1.4-1.7 0-1-.8-1.7-1.6-1.6l-7.7.7c-.9 0-1.6.6-1.5 1.3zM155.4 86c-.2.9.5 2 1.5 2.3l10.3 3.2c1.1.3 2.2-.4 2.6-1.7.3-1.3-.3-2.5-1.4-2.7l-10.5-2.3c-1.2-.3-2.3.3-2.5 1.2zm-4.8 11.2c-.5.8-.1 2 .8 2.6l8.9 6.1c1 .7 2.3.3 3-.9.7-1.1.4-2.5-.6-3.1l-9.3-5.3c-1.1-.5-2.3-.3-2.8.6zm-7.9 9.2c-.4.3-.5.8-.5 1.3s.1 1 .5 1.4l6.7 8.4c.4.4.9.7 1.5.7s1.2-.2 1.6-.6c1-.9 1.1-2.3.3-3.1l-7.4-7.8c-.8-.8-2-.9-2.7-.3zm-10.3 6.6c-.2.1-.4.3-.5.4-.2.2-.3.4-.4.6-.2.5-.2 1 0 1.5l3.9 10c.2.5.6.9 1.2 1.1.3.1.6.2.9.1.3 0 .6-.1.9-.2 1.2-.6 1.7-1.9 1.2-2.9l-4.8-9.6c-.4-.9-1.5-1.4-2.4-1zm-11.7 3.2c-.5.1-.9.4-1.2.7-.3.4-.5.9-.4 1.5l.8 10.7c0 .6.3 1.1.8 1.4.5.4 1.1.5 1.7.4 1.3-.2 2.2-1.3 2-2.4l-1.7-10.6c-.1-1.1-1-1.9-2-1.7zm-12.2-.4c-1-.1-1.9.5-2.2 1.7l-2.4 10.5c-.3 1.1.6 2.3 1.9 2.5 1.3.2 2.5-.6 2.6-1.7l1.5-10.6c.2-1.2-.4-2.3-1.4-2.4zm-11.5-4c-.2-.1-.5-.1-.7-.2-.2 0-.5 0-.7.1-.5.2-.9.5-1.2 1L89 122c-.3.5-.3 1.1-.1 1.6.1.3.2.5.4.8.2.2.5.4.8.6 1.2.6 2.5.2 3-.8l4.6-9.7c.5-1.1.2-2.2-.7-2.7zm-9.8-7.1c-.7-.7-1.8-.7-2.7.1l-7.9 7.3c-.8.8-.8 2.2.1 3.1 1 .9 2.4.9 3.1.1l7.2-7.9c.9-.9.9-2.1.2-2.7zm-7.3-9.8c-.4-.9-1.6-1.2-2.6-.7l-9.7 4.7c-1 .5-1.4 1.9-.8 3 .6 1.2 2 1.6 3 1l9.2-5.5c1-.5 1.4-1.7.9-2.5zm-4.1-11.4c-.1-.9-1.2-1.6-2.3-1.4l-10.6 1.6c-1.1.2-1.9 1.4-1.7 2.7.2 1.3 1.5 2.1 2.5 1.8l10.4-2.5c1.2-.4 1.9-1.3 1.7-2.2zm-.5-12.2c.2-.9-.6-1.9-1.8-2l-10.6-1.6c-1.1-.2-2.2.7-2.4 2-.1 1.3.8 2.4 1.9 2.5l10.7.7c1.2 0 2.1-.7 2.2-1.6zm3.1-11.8c.4-.9-.1-2-1.1-2.5l-9.7-4.7c-1-.5-2.3.1-2.9 1.3-.5 1.2 0 2.6 1.1 3l10 3.8c1.1.4 2.2 0 2.6-.9zm6.4-10.3c.6-.7.5-1.9-.3-2.7l-7.9-7.3c-.8-.8-2.2-.6-3.1.4-.5.5-.6 1.1-.6 1.7 0 .6.3 1.1.7 1.5l8.5 6.6c.4.4 1 .5 1.5.5.4-.2.9-.4 1.2-.7zm9.2-8c.8-.5 1-1.7.5-2.7l-5.4-9.3c-.6-1-1.9-1.2-3.1-.6-.6.3-1 .8-1.1 1.4-.1.6 0 1.1.3 1.6l6.1 8.8c.3.5.8.8 1.3.9.5.1 1 .1 1.4-.1zm11.1-4.9c.9-.2 1.5-1.3 1.2-2.5L104 23.3c-.2-1.1-1.5-1.8-2.8-1.4-1.3.3-2 1.5-1.7 2.6l3.3 10.2c.4 1.1 1.4 1.8 2.3 1.6zm12.1-1.5c1 .1 1.8-.8 1.9-2l.8-10.7c.1-1.1-.9-2.1-2.2-2.2-.7 0-1.3.2-1.7.5-.4.4-.7.9-.7 1.5l.1 10.7c0 .6.2 1.1.5 1.4.4.6.8.8 1.3.8zm12 2.2c.9.3 2-.3 2.4-1.3l3.9-10c.4-1.1-.2-2.3-1.5-2.7-.6-.2-1.3-.2-1.8 0s-.9.7-1.1 1.2l-3 10.3c-.2.5-.1 1.1.1 1.5.2.5.5.9 1 1zm10.8 5.7c.8.6 2 .3 2.7-.6l6.7-8.4c.7-.9.4-2.3-.6-3-1.1-.8-2.4-.7-3.1.3l-6 8.9c-.6.9-.5 2.2.3 2.8zm8.6 8.5c.6.8 1.8.9 2.8.2l8.9-6.1c.9-.6 1.1-2 .3-3.1s-2.2-1.3-3-.6l-8.3 6.8c-1 .9-1.3 2.1-.7 2.8zm5.8 10.7c.3.9 1.5 1.3 2.6 1l10.3-3.2c1.1-.3 1.6-1.6 1.2-2.9-.5-1.2-1.7-1.9-2.7-1.5l-9.9 4c-1.3.7-1.9 1.8-1.5 2.6zm2.3 12.1c0 1 1 1.9 2.2 1.9h10.7c1.1 0 2-1.2 2-2.5-.1-1.3-1-2.4-2.2-2.3l-10.7.9c-1.2.2-2.1 1.1-2 2z"/>
  <path fill="#50565F" d="M354.8 217.4c0 5.4-4.4 9.8-9.8 9.8H111.6c-5.4 0-9.8-4.4-9.8-9.8V74.1c0-5.4 4.4-9.8 9.8-9.8H345c5.4 0 9.8 4.4 9.8 9.8v143.3z"/>
  <path fill="#FFF" d="M115.9 79.8h224.9v122.8H115.9z"/>
  <circle fill="#FFF" cx="228.3" cy="215.1" r="5.9"/>
  <path fill="#50565F" d="M195.3 231.5h66v29.7h-66zm-21.9 33.7h109.8v7.3H173.4z"/>
  <path fill-rule="evenodd" clip-rule="evenodd" fill="#54C4CD" d="M228.7 0c3.4-.1 5.2.2 8.6.9 7 1.4 13.4 4.1 19.3 8.3 6.3 4.6 11.1 10.4 14 17.7 2.3 5.6 3.2 11.5 3.1 17.5v2.9c-.1 2.9-.4 5.8-1 8.6-1.2 6.5-3.6 12.5-6.8 18.2-2 3.4-4.1 6.8-6.1 10.2-1.4 2.4-2.8 4.9-3.6 7.7-1 3.8-1.4 7.7-1.8 11.5-.2 1.8-.4 3.6-1 5.4-1.2 3.4-3.4 4.6-6.3 4.6h-36.3c-2.9 0-5.1-1.2-6.3-4.6-.6-1.7-.8-3.6-1-5.4-.4-3.9-.8-7.7-1.8-11.5-.8-2.8-2.1-5.2-3.6-7.7-2-3.4-4.1-6.7-6.1-10.2-3.3-5.7-5.6-11.8-6.8-18.2-.6-2.9-.9-5.7-1-8.6v-2.9c-.1-6 .8-11.9 3.1-17.5 2.9-7.3 7.7-13.1 14-17.7 5.8-4.2 12.3-6.8 19.3-8.3 3.4-.7 5.2-1 8.6-.9"/>
  <g fill="#FFF">
    <path d="M228.7 43.2c1 1 1.8 2.2 2.6 3.6.7 1.3 1.2 2.8 1.5 4.2.3 1.5.4 3 .3 4.5-.1 1.5-.4 2.9-.9 4.3-.6 1.5-1.3 2.7-2.3 3.6-.9.9-2 1.5-3.2 1.8l-6.2 1.3 10.5 49.2c.1.5 0 1-.3 1.5s-.7.7-1.3.8c-.5.1-1 0-1.5-.3s-.7-.7-.9-1.3l-15.3-71.8c-.2-.8.1-1.4.6-1.9.2-.3.5-.5.9-.5l8.1-1.7c1.2-.3 2.4-.1 3.6.4 1.5.4 2.7 1.2 3.8 2.3zm-.2 15.2c.4-1 .6-2 .6-3.2.1-1.1 0-2.3-.3-3.4-.2-1.1-.6-2.2-1.1-3.2-.5-1-1.2-1.9-1.9-2.6-.6-.6-1.2-1.1-1.8-1.4-.6-.3-1.2-.3-1.6-.2l-6.2 1.3 3.6 16.9 6.2-1.3c.5-.1.9-.4 1.4-.9.5-.5.8-1.2 1.1-2z"/>
    <path d="M249.7 66.4c.6 1.3.9 2.7 1.1 4.2.2 1.5.2 3 0 4.5s-.7 3-1.3 4.4c-.6 1.4-1.4 2.6-2.3 3.7-1.1 1.2-2.2 2-3.4 2.6-1.2.5-2.4.7-3.6.5l-6.3-.9-7.5 49.7c-.1.6-.3 1-.8 1.3-.4.3-.9.4-1.5.3-.5-.1-.9-.3-1.3-.8-.3-.4-.4-.9-.4-1.5l11-72.6c.1-.8.5-1.3 1.3-1.6.3-.2.6-.2 1.1-.2l8.2 1.2c1.2.2 2.3.7 3.3 1.6 1 1 1.8 2.2 2.4 3.6zm-5.5 14.1c.7-.8 1.3-1.7 1.7-2.7.5-1.1.8-2.1.9-3.3.2-1.1.2-2.2.1-3.4-.1-1.1-.4-2.2-.8-3.1-.3-.8-.7-1.4-1.2-1.9s-1-.7-1.4-.8l-6.3-1-2.6 17.1 6.3 1c.5.1 1 0 1.6-.4.5-.3 1.1-.8 1.7-1.5z"/>
  </g>
  <path fill-rule="evenodd" clip-rule="evenodd" fill="#54C4CD" d="M209.5 132.3c-1.3 0-2.3-.9-2.4-2.1 0-1.3.9-2.2 2.2-2.3l7.2-.6c2-.2 4-.3 5.9-.5 2-.2 4.1-.4 6.1-.5 2-.2 3.9-.3 5.9-.5 2.1-.2 4.1-.4 6.2-.5 2-.2 4-.3 6-.5.5 0 1.1-.1 1.6-.1 1.1 0 2 .8 2.1 2 .1 1.1-.6 2.2-1.7 2.3-.9.2-1.9.2-2.8.3-2.1.2-4.2.4-6.3.5-2 .2-4 .3-6 .5s-4 .4-6.1.5c-1.9.2-3.9.3-5.8.5-2.1.2-4.2.4-6.3.5-1.8.1-3.8.3-5.8.5zm-2.3 10c0-1.2.9-2.1 2-2.2 3.9-.3 7.8-.7 11.6-1 3.1-.3 6.3-.5 9.4-.8 3.4-.3 6.9-.6 10.4-.9l7.5-.6c1.2-.1 2.2.7 2.4 2 .1 1.2-.7 2.3-1.9 2.4-1.7.2-3.5.3-5.2.5-2 .2-4.1.4-6.1.5-2 .2-3.9.3-5.9.5-2.1.2-4.1.4-6.2.5-2 .2-4 .3-5.9.5-2 .2-4.1.4-6.1.5l-3.6.3c-1.4.1-2.4-.9-2.4-2.2zm2.9-4c-1.6.1-2.5-.4-2.8-1.4-.3-.9 0-2 .8-2.6.4-.2.8-.4 1.3-.4 2.4-.2 4.7-.4 7.1-.6l7.2-.6c2.4-.2 4.7-.4 7.1-.6l7.2-.6c2.3-.2 4.7-.4 7.1-.6.9-.1 1.9-.2 2.8-.3 1.1-.1 2 .3 2.4 1.1.4.8.4 1.7-.2 2.4-.4.5-.8.8-1.4.8-2.3.2-4.6.4-6.8.6l-7.2.6c-2 .2-4 .3-6 .5-2.4.2-4.7.4-7.1.6-2 .2-4 .3-6 .5-2.1.3-4 .5-5.5.6zm40.4-17.7c0 1.2-.8 2.1-2 2.2-3.7.3-7.3.6-11 .9-4 .3-8 .7-12.1 1-3.5.3-6.9.6-10.4.9-1.8.2-3.6.3-5.5.5-1.1.1-2.2-.8-2.3-2-.1-1.2.8-2.3 1.9-2.4 2.9-.3 5.9-.5 8.8-.8 2.7-.2 5.5-.5 8.2-.7 2.4-.2 4.7-.4 7.1-.6 2.7-.2 5.5-.5 8.2-.7 2.2-.2 4.5-.4 6.7-.6 1.3 0 2.4 1 2.4 2.3zm-10.6 28.7c-2.8 2.6-5.5 5-9.2 5.9-.6.2-1.2.3-1.8.3-.6 0-1.2-.2-1.8-.3-2.2-.5-4.1-1.6-5.8-2.9-1.1-.8-2.2-1.8-3.2-2.7l-.3-.3h22.1z"/>
  <text transform="translate(143.755 184.785)" fill="#54C4CD" font-family="'HelveticaNeue-Bold'" font-size="20.705">
    the people’s plan
  </text>
  <path fill="#80CDC8" d="M326.2 25.1l-4.1 11-7.5-9L307 18l11.6-2 11.6-2z"/>
  <path fill="#EBB65C" d="M304 48.5c-2.3-1-3.5-3.7-2.5-6s3.7-3.5 6-2.5 3.5 3.7 2.5 6c-.9 2.3-3.6 3.4-6 2.5z"/>
  <path d="M379.4 48.6l.3-2c1.6.2 3.3.2 4.9-.1l.4 2c-1.9.3-3.8.4-5.6.1zm8.9-1.1l-.8-1.9c1.5-.6 3-1.5 4.2-2.6l1.3 1.5c-1.4 1.3-3 2.2-4.7 3zm8.6-14c.2-1.6.2-3.3-.1-4.9l2-.4c.4 1.8.4 3.7.2 5.6l-2.1-.3zm-1.1-7.9c-.6-1.5-1.5-3-2.6-4.2l1.5-1.3c1.2 1.4 2.2 3 2.9 4.8l-1.8.7zm-24.2-5.8l-1.3-1.5c1.4-1.2 3-2.2 4.8-2.9l.8 1.9c-1.6.6-3 1.4-4.3 2.5zm7.2-3.4l-.4-2c1.8-.4 3.7-.4 5.6-.2l-.3 2c-1.7-.2-3.3-.2-4.9.2zm-10.3 26.4c-1.2-1.4-2.2-3-2.9-4.8l1.9-.8c.6 1.5 1.5 3 2.6 4.2l-1.6 1.4zm-3.9-8.1c-.4-1.8-.4-3.7-.2-5.6l2 .3c-.2 1.6-.2 3.3.1 4.9l-1.9.4zm8.8 12c-.8-.4-1.6-1-2.3-1.5l1.2-1.6c1.3 1 2.8 1.8 4.3 2.3l-.7 1.9c-.8-.3-1.7-.7-2.5-1.1zm-8.1-21c.3-.9.7-1.7 1.1-2.6.4-.8 1-1.6 1.5-2.4l1.6 1.2c-.5.7-1 1.4-1.3 2.1-.4.7-.7 1.5-1 2.3l-1.9-.6zM395.4 42l-1.6-1.2c.5-.7 1-1.4 1.3-2.1.4-.7.7-1.5 1-2.3l1.9.7c-.3.9-.7 1.7-1.1 2.6-.4.8-.9 1.6-1.5 2.3zM391 19.3c-1.3-1-2.8-1.8-4.3-2.3l.7-1.9c1.8.6 3.4 1.5 4.9 2.7l-1.3 1.5z" fill="#E2E2E1"/>
  <path d="M45.9 183c-.3.1-.6.2-.9.2-1.1 0-2.1-.7-2.5-1.7l-4.7-12.8c-.5-1.4.2-2.9 1.6-3.4 1.4-.5 2.9.2 3.4 1.6l4.7 12.8c.5 1.3-.2 2.8-1.6 3.3zm-18.4 10.3c-.7 0-1.5-.3-2-.9L16.7 182c-.9-1.1-.8-2.8.3-3.7 1.1-.9 2.8-.8 3.7.3l8.8 10.4c.9 1.1.8 2.8-.3 3.7-.5.4-1.1.6-1.7.6zm-10.8 14.2c-.5.8-1.4 1.3-2.3 1.3-.4 0-.9-.1-1.3-.4l-11.8-6.8c-1.3-.7-1.7-2.3-1-3.6.7-1.3 2.3-1.7 3.6-1l11.8 6.8c1.3.8 1.7 2.5 1 3.7zM65 179.6c-1.4 0-2.6-1.2-2.6-2.6v-13.6c0-1.4 1.2-2.6 2.6-2.6 1.5 0 2.6 1.2 2.6 2.6V177c0 1.5-1.2 2.6-2.6 2.6z" fill="#80CDC8"/>
  <path fill="#FFF" d="M67.7 301.5c.6-11.8 7.1-27.2 16.5-39.3 5.1-6.6 7.5-13 7.5-16.8 0-13.5-10.8-24.4-24.1-24.4s-24.1 10.9-24.1 24.4c0 3.9 2.4 10.3 7.5 16.8 9.4 12.1 15.9 27.5 16.5 39.3h.2z"/>
  <circle fill="#54C4CD" cx="67.5" cy="244.4" r="10.2"/>
  <path fill="#F3D0B4" d="M46.1 125.8c-1 1.9-3.4 2.6-5.3 1.6s-2.6-3.4-1.6-5.3 3.4-2.6 5.3-1.6c2 1 2.7 3.4 1.6 5.3z"/>
  <path fill="#EBB65C" d="M30.1 68.5l10.1-3.4-2.1 10.5L36 86.1 28 79l-8.1-7.1z"/>
  <path d="M405.8 88c.3.1.6.2.9.2 1.1 0 2.1-.7 2.5-1.7l4.7-12.8c.5-1.4-.2-2.9-1.6-3.4-1.4-.5-2.9.2-3.4 1.6l-4.7 12.8c-.4 1.3.3 2.9 1.6 3.3zm18.5 10.3c.7 0 1.5-.3 2-.9L435 87c.9-1.1.8-2.8-.3-3.7-1.1-.9-2.8-.8-3.7.3L422.3 94c-.9 1.1-.8 2.8.3 3.7.5.4 1.1.6 1.7.6zm10.7 14.3c.5.8 1.4 1.3 2.3 1.3.4 0 .9-.1 1.3-.4l11.8-6.8c1.3-.7 1.7-2.3 1-3.6-.7-1.3-2.3-1.7-3.6-1L436 109c-1.3.7-1.7 2.3-1 3.6zm-48.3-27.9c1.5 0 2.6-1.2 2.6-2.6V68.4c0-1.5-1.2-2.6-2.6-2.6s-2.6 1.2-2.6 2.6V82c0 1.5 1.2 2.7 2.6 2.7z" fill="#F3D0B4"/>
  <path fill="#54C4CD" d="M168.2 251.6c-1.2 2.2-4 3.1-6.2 1.9-2.2-1.2-3.1-4-1.9-6.2 1.2-2.2 4-3.1 6.2-1.9 2.3 1.2 3.2 4 1.9 6.2z"/>
  <path fill="#FFF" d="M419.1 226.8c-14.8 0-26.8-12-26.8-26.8s12-26.8 26.8-26.8 26.8 12 26.8 26.8-12 26.8-26.8 26.8zm0-47c-11.1 0-20.1 9-20.1 20.1 0 11.1 9 20.1 20.1 20.1 11.1 0 20.1-9 20.1-20.1 0-11-9-20.1-20.1-20.1z"/>
  <path fill="#EBB65C" d="M442.8 148.8c.3 4.7-3.3 8.8-8 9-4.7.3-8.8-3.3-9-8-.3-4.7 3.3-8.8 8-9 4.7-.3 8.8 3.3 9 8z"/>
  <g>
    <path d="M428.7 267.4l.2-1.6c1.4.2 2.7.1 4.1-.1l.3 1.6c-1.6.2-3.1.3-4.6.1zm7.3-1l-.6-1.5c1.3-.5 2.4-1.2 3.5-2.1l1.1 1.3c-1.2.9-2.5 1.7-4 2.3zm7.1-11.6c.2-1.4.1-2.7-.1-4.1l1.6-.3c.3 1.5.3 3.1.1 4.6l-1.6-.2zm-.8-6.5c-.5-1.3-1.2-2.4-2.1-3.5l1.3-1.1c1 1.2 1.8 2.5 2.4 3.9l-1.6.7zm-20-4.7l-1.1-1.3c1.2-1 2.5-1.8 3.9-2.4l.6 1.5c-1.2.6-2.4 1.3-3.4 2.2zm5.9-2.9l-.3-1.6c1.5-.3 3.1-.3 4.6-.1l-.2 1.6c-1.4-.2-2.8-.1-4.1.1zm-8.5 21.8c-1-1.2-1.8-2.5-2.4-3.9l1.5-.6c.5 1.3 1.2 2.4 2.1 3.5l-1.2 1zm-3.2-6.6c-.3-1.5-.3-3.1-.1-4.6l1.6.2c-.2 1.4-.1 2.7.1 4.1l-1.6.3zm7.3 9.9c-.7-.4-1.3-.8-1.9-1.3l1-1.3c1.1.8 2.3 1.5 3.6 1.9l-.5 1.6c-.9-.2-1.6-.6-2.2-.9zm-6.8-17.3l.9-2.1c.4-.7.8-1.3 1.3-1.9l1.3 1c-.4.5-.8 1.1-1.1 1.7-.3.6-.6 1.2-.8 1.9l-1.6-.6zm24.9 13.4l-1.3-1c.4-.5.8-1.1 1.1-1.7.3-.6.6-1.2.8-1.9l1.6.5-.9 2.1c-.4.7-.8 1.4-1.3 2zm-3.6-18.8c-1.1-.8-2.3-1.5-3.6-1.9l.5-1.6c1.4.5 2.8 1.3 4.1 2.2l-1 1.3z" fill="#54C4CD"/>
  </g>
  <path fill="#54C4CD" d="M432.3 200.4l-10.7 6.2-10.8 6.2v-24.7l10.8 6.2z"/>
  <path fill="#FFF" d="M125.1 280.2c-10.6 0-19.2-8.6-19.2-19.2s8.6-19.2 19.2-19.2 19.2 8.6 19.2 19.2-8.6 19.2-19.2 19.2zm0-33.7c-8 0-14.4 6.5-14.4 14.4 0 8 6.5 14.4 14.4 14.4 8 0 14.4-6.5 14.4-14.4s-6.5-14.4-14.4-14.4z"/>
  <path fill="#EBB65C" d="M134.6 261.3l-7.4 4.4-7.4 4.5v-17.7l7.4 4.4z"/>
  <g fill="#54C4CD">
    <path d="M373 130.1c-.6 0-1.2-.2-1.6-.7-.9-.9-.9-2.4 0-3.3 5.9-6 13.7-9.3 22.1-9.3 8.3 0 16 3.2 21.8 9 .9.9.9 2.4 0 3.3-.9.9-2.4.9-3.3 0-5-5-11.5-7.7-18.6-7.7-7.1 0-13.8 2.8-18.7 7.9-.5.5-1.1.8-1.7.8z"/>
    <path d="M408.9 138.8c-.6 0-1.2-.2-1.7-.7-3.6-3.8-8.6-6-13.8-6-5.2 0-10.1 2.1-13.8 5.9-.9.9-2.4 1-3.3.1-.9-.9-1-2.4-.1-3.3 4.5-4.7 10.6-7.3 17.1-7.3 6.6 0 12.7 2.6 17.2 7.4.9.9.8 2.4-.1 3.3-.3.4-.9.6-1.5.6z"/>
    <path d="M404 147.4c-.6 0-1.2-.2-1.7-.7-2.3-2.5-5.5-3.9-8.9-3.9-3.4 0-6.5 1.4-8.9 3.8-.9.9-2.4 1-3.3.1-.9-.9-1-2.4-.1-3.3 3.2-3.4 7.6-5.2 12.2-5.2 4.7 0 9.1 2 12.3 5.4.9.9.8 2.4-.1 3.3-.3.3-.9.5-1.5.5zm-6.1 8.3c0 2.5-2 4.5-4.5 4.5s-4.5-2-4.5-4.5 2-4.5 4.5-4.5 4.5 2 4.5 4.5z"/>
  </g>
  <path fill="#54C4CD" d="M19.9 146.9c.3 4.7-3.3 8.8-8 9-4.7.3-8.8-3.3-9-8-.3-4.7 3.3-8.8 8-9 4.7-.3 8.7 3.3 9 8z"/>
</svg>
