<svg xmlns="http://www.w3.org/2000/svg" width="343.8" height="370.6" viewBox="0 0 343.8 370.6"><path fill="#50565F" d="M343.8 295.6c0 7.3-6 13.3-13.3 13.3H13.3C6 308.9 0 303 0 295.6V100.8c0-7.3 5.9-13.3 13.3-13.3h317.3c7.3 0 13.3 5.9 13.3 13.3v194.8z"/><path fill="#FFF" d="M19 108.5h305.7v166.9H19zM179.9 292.5c0 4.4-3.6 8-8 8s-8-3.6-8-8 3.6-8 8-8 8 3.6 8 8z"/><path fill="#50565F" d="M127 314.8h89.8v40.4H127zM97.2 360.6h149.4v10H97.2z"/><path fill-rule="evenodd" clip-rule="evenodd" fill="#54C4CD" d="M172.4 0c4.6-.1 7.1.3 11.7 1.3 9.5 1.9 18.3 5.6 26.2 11.2 8.6 6.2 15.1 14.2 19.1 24.1 3.1 7.6 4.3 15.6 4.2 23.8v3.9c-.1 4-.6 7.9-1.3 11.7-1.7 8.8-4.9 17-9.3 24.8-2.7 4.7-5.5 9.2-8.3 13.8-2 3.3-3.9 6.7-4.9 10.4-1.4 5.1-1.9 10.4-2.4 15.7-.3 2.5-.6 4.9-1.4 7.3-1.6 4.7-4.6 6.3-8.5 6.3h-49.4c-4 0-6.9-1.6-8.5-6.3-.8-2.4-1.1-4.8-1.4-7.3-.6-5.2-1.1-10.5-2.4-15.7-1-3.8-2.9-7.1-4.9-10.4-2.8-4.6-5.6-9.2-8.3-13.8-4.4-7.7-7.6-16-9.3-24.8-.7-3.9-1.2-7.8-1.4-11.7v-3.9c-.1-8.2 1.1-16.2 4.2-23.8 4-9.9 10.4-17.9 19.1-24.1 7.9-5.7 16.7-9.3 26.2-11.2 4.6-.9 7-1.4 11.6-1.3"/><g fill="#FFF"><path d="M172.5 58.7c1.4 1.4 2.5 3 3.5 4.8 1 1.8 1.7 3.7 2.1 5.7.4 2.1.6 4.1.4 6.2-.1 2.1-.5 4-1.2 5.8-.8 2-1.8 3.6-3.1 4.9-1.3 1.3-2.7 2.1-4.3 2.4l-8.5 1.8 14.2 66.9c.2.7 0 1.4-.3 2-.4.6-1 1-1.7 1.2-.7.1-1.4 0-2-.4-.6-.4-1-1-1.2-1.7l-20.8-97.7c-.2-1.1.1-1.9.9-2.6.3-.4.7-.6 1.3-.7l11-2.3c1.6-.3 3.2-.2 4.9.5 1.7.6 3.3 1.7 4.8 3.2zm-.3 20.7c.5-1.3.8-2.8.9-4.3.1-1.6 0-3.1-.4-4.7-.3-1.5-.8-2.9-1.5-4.3s-1.6-2.6-2.6-3.6c-.8-.9-1.6-1.5-2.5-1.9-.8-.4-1.6-.5-2.2-.3l-8.5 1.8 4.9 23 8.5-1.8c.6-.1 1.3-.5 1.9-1.2.6-.7 1.1-1.6 1.5-2.7z"/><path d="M201.1 90.3c.8 1.8 1.3 3.7 1.5 5.7.3 2.1.2 4.1-.1 6.1-.3 2.1-.9 4-1.8 5.9-.8 1.9-1.9 3.6-3.2 5-1.4 1.6-3 2.7-4.6 3.5-1.6.7-3.3 1-4.9.7l-8.6-1.3-10.2 67.6c-.1.8-.5 1.4-1 1.8-.6.4-1.3.6-2 .5-.7-.1-1.3-.5-1.7-1-.5-.6-.6-1.3-.5-2l15-98.7c.2-1.1.7-1.8 1.7-2.1.4-.3.9-.3 1.4-.2l11.1 1.7c1.6.2 3.1 1 4.4 2.2 1.4 1 2.6 2.6 3.5 4.6zm-7.6 19.2c.9-1 1.7-2.3 2.3-3.7.6-1.4 1.1-2.9 1.3-4.5.2-1.5.3-3 .1-4.6-.2-1.6-.6-3-1.1-4.2-.5-1.1-1-2-1.7-2.6-.6-.6-1.3-1-2-1.1l-8.6-1.3-3.5 23.3 8.6 1.3c.7.1 1.4-.1 2.2-.5.8-.5 1.6-1.2 2.4-2.1z"/></g><path fill-rule="evenodd" clip-rule="evenodd" fill="#54C4CD" d="M146.4 179.9c-1.8 0-3.2-1.2-3.2-2.9-.1-1.7 1.2-3 3-3.1 3.3-.3 6.5-.6 9.8-.9 2.7-.2 5.4-.5 8.1-.7 2.8-.2 5.6-.5 8.3-.7 2.7-.2 5.3-.5 8-.7 2.8-.2 5.6-.5 8.5-.7 2.7-.2 5.4-.5 8.1-.7.7-.1 1.5-.1 2.2-.1 1.6 0 2.7 1.1 2.9 2.7.2 1.5-.8 2.9-2.3 3.2-1.3.2-2.5.3-3.8.4-2.8.2-5.7.5-8.5.7-2.7.2-5.4.5-8.1.7-2.8.2-5.5.5-8.3.7-2.6.2-5.3.4-7.9.7-2.8.2-5.7.5-8.5.7-2.9.2-5.7.4-8.3.7zM143.2 193.5c0-1.6 1.2-2.9 2.8-3 5.3-.5 10.5-.9 15.8-1.4 4.2-.4 8.5-.7 12.8-1.1l14.1-1.2 10.2-.9c1.7-.1 3.1 1 3.3 2.7.2 1.6-.9 3.1-2.6 3.3-2.4.2-4.7.4-7 .6-2.8.3-5.6.5-8.3.7-2.7.2-5.3.5-8 .7-2.8.2-5.6.5-8.4.7-2.7.2-5.4.5-8.1.7-2.8.2-5.5.5-8.3.7-1.6.1-3.2.3-4.9.4-2 .2-3.4-1.2-3.4-2.9zM147.2 188.1c-2.2.1-3.4-.6-3.9-1.9-.5-1.3 0-2.8 1.1-3.5.5-.3 1.1-.5 1.8-.6 3.2-.3 6.4-.6 9.7-.8 3.3-.3 6.5-.6 9.7-.9 3.2-.3 6.5-.5 9.7-.8 3.2-.3 6.5-.6 9.7-.9 3.2-.3 6.4-.5 9.6-.8 1.3-.1 2.5-.2 3.8-.4 1.5-.2 2.7.4 3.3 1.5.6 1.1.5 2.3-.2 3.3-.5.7-1.2 1.1-1.9 1.1-3.1.3-6.2.5-9.3.8-3.2.3-6.5.6-9.7.9-2.7.2-5.4.5-8.2.7-3.2.3-6.4.6-9.7.9-2.7.2-5.5.5-8.2.7-2.7.3-5.3.5-7.3.7zM202 164c0 1.6-1.1 2.9-2.8 3-5 .4-10 .9-15 1.3-5.5.5-10.9.9-16.4 1.4-4.7.4-9.4.8-14.2 1.3-2.5.2-4.9.4-7.4.6-1.5.1-3-1.1-3.1-2.7-.2-1.6 1-3.1 2.6-3.3 4-.4 8-.7 12-1 3.7-.3 7.4-.7 11.1-1 3.2-.3 6.5-.5 9.7-.8 3.7-.3 7.5-.7 11.2-1 3-.3 6.1-.5 9.2-.8 1.7-.1 3.1 1.3 3.1 3zM187.7 203c-3.8 3.6-7.5 6.8-12.5 8.1-.8.2-1.6.4-2.4.4-.8 0-1.6-.2-2.4-.4-3-.7-5.5-2.2-7.9-4-1.5-1.1-2.9-2.4-4.4-3.6-.1-.1-.2-.3-.4-.4 9.9-.1 19.8-.1 30-.1z"/><g><text transform="translate(56.934 251.253)" fill="#54C4CD" font-family="'HelveticaNeue-Bold'" font-size="28.153">the people’s plan</text></g></svg>