<svg xmlns="http://www.w3.org/2000/svg" width="284.1" height="378" viewBox="0 0 284.1 378"><circle fill="#54C4CD" cx="142" cy="222" r="142"/><path fill="#50565F" d="M232.6 186.8c0 10.9-9.2 19.2-20.1 19.2h-90c-10.9 0-19.9-8.3-19.9-19.2V20.2c0-10.9 9-20.2 19.9-20.2h90c10.9 0 20.1 9.3 20.1 20.2v166.6z"/><path fill="#FFF" d="M150.6 206h-29V.5l29-.1z"/><path fill="#E2E2E1" d="M102.8 85.4s-38.4 51.5-41.2 62.2c-2.8 10.7-7.5 110.5-4.2 116 3.2 5.6 62.6 95.6 62.6 95.6s3.7 3.2 3.7 10.2v8.6h79.1s.8-27.3 1.7-37c.9-9.7 7-47.5 7.4-60.5.5-13 6.5-44.7-13-65.1 0 0-18.1-44.2-17.6-69.7s-6-44.1-19.5-43.7c-13.5.5-19.5 19.9-17.6 35.3 1.9 15.3 6.5 60.8 4.6 66.4-1.9 5.6-5.1 36.7-10.7 31.6-5.6-5.1-35.3-31.3-35.2-46.5"/><path fill="#F3D0B4" d="M174.6 123.5c0 6.3-5.1 11.5-11.5 11.5h-1c-6.3 0-11.5-5.1-11.5-11.5v-8c0-6.3 5.1-11.5 11.5-11.5h1c6.3 0 11.5 5.1 11.5 11.5v8z"/></svg>