<svg xmlns="http://www.w3.org/2000/svg" width="284.1" height="369.8" viewBox="0 0 284.1 369.8"><circle fill="#54C4CD" cx="142" cy="227.8" r="142"/><path fill="#E2E2E1" d="M172.9 190.5s51.7-26.4 30.5-84c-9.6 2-83 25.2-51.1 92.9 2.3 2.4 20.6-8.9 20.6-8.9z"/><path fill="#FFF" d="M179.3 230.5s24.5-57.9 88.9-39.3c-1.5 10.6-20.7 91.7-96.9 62.3-2.9-2.4 8-23 8-23z"/><path fill="#E2E2E1" d="M142.3 208s-56.1-62.4-128.7-11.2c6.4 12.7 66.1 106.5 148.8 36.8 2.5-4.4-20.1-25.6-20.1-25.6z"/><path fill="#FFF" d="M109.4 134.3s-13.3-29.3-45.7-19c.9 5.4 11.8 46.6 50.1 30.7 1.4-1.3-4.4-11.7-4.4-11.7z"/><path fill="#50565F" d="M171.1 239.2c-4.6-21.1-17-43.5-28-63.2-5.6-10.1-10.9-19.6-14.8-28.2-7-15.5-3.8-33.6 9.6-53.5 6.8-10.2 14.7-18.3 19.5-22.9l28.9-.4c3.7-.1 6.6-3.1 6.6-6.8-.1-3.7-3.1-6.6-6.8-6.6l-23.8 6.6 19.5-18.3c2.7-2.8 2.6-7.2-.2-9.9-2.8-2.7-7.2-2.6-9.9.2L155.5 55l4.3-23c-.1-3.7-3.1-6.6-6.8-6.6-3.7.1-6.6 3.1-6.6 6.8l.5 29.5c-5.3 5.1-13.4 13.6-20.6 24.3-16.3 24.1-20.1 47.5-11 67.6 4.1 9.1 9.6 18.9 15.3 29.2 11 19.8 22.4 40.3 26.5 59.3 4.4 20.2-.6 34.8-15.5 45.9l8.5 11.4c19.5-14.3 26.6-34.6 21-60.2z"/><path fill="#F3D0B4" d="M170.5 300.7c8.8 23-9.3 51.2-40.4 63-31 11.8-63.3 2.8-72.1-20.2-8.8-23 9.3-51.2 40.4-63 31-11.8 63.3-2.8 72.1 20.2z"/><path fill="#E2E2E1" d="M159.5 52.9s17.8-30.4-12-52.9c-4.2 4.2-34.1 40.1 4.4 64.2 1.9.5 7.6-11.3 7.6-11.3z"/><path fill="#E2E2E1" d="M163.7 56.7s32-14.7 51.5 17.1c-4.6 3.8-43.2 30.1-63.5-10.5-.3-2.1 12-6.6 12-6.6z"/></svg>