<svg xmlns="http://www.w3.org/2000/svg" width="284.1" height="368.7" viewBox="0 0 284.1 368.7"><circle fill="#54C4CD" cx="142" cy="226.7" r="142"/><path fill="#50565F" d="M156.9 69.6c0 8.2-6.7 14.9-14.9 14.9s-14.9-6.7-14.9-14.9 6.7-14.9 14.9-14.9c8.3 0 14.9 6.6 14.9 14.9z"/><path fill="#50565F" d="M152 137.7h-19.9l4-56.1H148z"/><path fill="#F3D0B4" d="M116.7 103c-1.8 0-3.7-.7-5.1-2.1C103.4 92.8 99 82 99 70.4c0-11.5 4.5-22.3 12.6-30.5 8.1-8.1 18.9-12.6 30.4-12.6s22.3 4.5 30.5 12.6c8.1 8.1 12.6 18.9 12.6 30.4s-4.5 22.3-12.6 30.5c-2.8 2.8-7.3 2.8-10.2 0-2.8-2.8-2.8-7.3 0-10.2 5.4-5.4 8.4-12.6 8.4-20.3 0-7.7-3-14.9-8.4-20.3s-12.6-8.4-20.3-8.4c-7.7 0-14.9 3-20.3 8.4s-8.4 12.6-8.4 20.3c0 7.7 3 14.9 8.4 20.3 2.8 2.8 2.8 7.3 0 10.1-1.4 1.6-3.2 2.3-5 2.3z"/><path fill="#F3D0B4" d="M96.4 124.6c-1.8 0-3.7-.7-5.1-2.1-13.6-13.6-21-31.6-21-50.8 0-19.2 7.5-37.2 21-50.8 28-28 73.5-28 101.5 0s28 73.5 0 101.5c-2.8 2.8-7.3 2.8-10.2 0-2.8-2.8-2.8-7.3 0-10.2 22.4-22.4 22.4-58.8 0-81.2-22.4-22.4-58.8-22.4-81.2 0-10.8 11-16.8 25.4-16.8 40.7 0 15.3 6 29.8 16.8 40.6 2.8 2.8 2.8 7.3 0 10.2-1.4 1.4-3.2 2.1-5 2.1z"/><path fill="#FFF" d="M219.1 360.4l-35.9-223.8c-.6-3.5-3.6-6-7.1-6h-68.2-.6-.1c-1.9.2-3.7 1-5 2.6-1 1.3-1.6 2.8-1.6 4.4L65 360.4c-.6 3.9 2 7.6 5.9 8.2 3.9.6 7.6-2.4 8.2-6.3l5-31.6h115.8l5 31.6c.6 3.5 3.6 6.2 7.1 6.2.4 0 .8.1 1.1 0 4-.6 6.6-4.2 6-8.1zm-105-105.7l27.9-18.3 27.9 18.3h-55.8zm52 15L142 282.9l-24.1-13.2h48.2zm-53-118.5l19.3 15.5-25 20.2 5.7-35.7zm47.9 55.5l-19 12.4-19-12.4h38zm-38.1-14l20.9-16.8 20.9 16.8h-41.8zm57.8 18.7l6 37.3-31.5-20.6 25.5-16.7zm-4.5-27.8l-21-16.9 16.2-13 4.8 29.9zm-32.4-26.4l-15.6-12.6h31.2l-15.6 12.6zm-40.4 54.2l25.5 16.7-31.5 20.6 6-37.3zm-9.8 60.9l33.5 18.4-40 22 6.5-40.4zm15.4 44.4l33.1-18.2 33.1 18.2H109zm47.9-26l33.5-18.4 6.5 40.4-40-22z"/></svg>