<svg xmlns="http://www.w3.org/2000/svg" width="187" height="338.4" viewBox="0 0 187 338.4"><g fill="#54C4CD"><path d="M164.8 155.7l1.3.3c-.3 1-.4 2.1-.3 3.2l-1.3.1c-.2-1.2-.1-2.5.3-3.6zm-.1 5.8l1.3-.3c.3 1 .7 2 1.3 2.9l-1.1.7c-.7-1-1.2-2.1-1.5-3.3zM173 168.3c1 .3 2.1.4 3.2.3l.1 1.3c-1.2.1-2.4-.1-3.6-.4l.3-1.2zm5.2.1c1-.3 2-.7 2.9-1.3l.7 1.1c-1 .7-2.1 1.2-3.3 1.5l-.3-1.3zM184 153.2l1.1-.7c.7 1 1.2 2.1 1.5 3.3l-1.3.3c-.2-1-.7-2-1.3-2.9zm1.6 4.9l1.3-.1c.1 1.2-.1 2.4-.4 3.6l-1.3-.3c.4-1 .5-2.1.4-3.2zM169.5 149.2c1-.7 2.1-1.2 3.3-1.5l.3 1.3c-1 .3-2 .7-2.9 1.3l-.7-1.1zm5.6-1.8c1.2-.1 2.4.1 3.6.4l-.3 1.3c-1-.3-2.1-.4-3.2-.3l-.1-1.4zM166.5 152c.4-.5.8-1 1.2-1.4l.9.9c-.8.7-1.4 1.6-1.9 2.6l-1.2-.6c.4-.5.7-1 1-1.5zm14.3-3.4c.5.3 1.1.6 1.6 1s1 .8 1.4 1.2l-.9.9c-.4-.4-.8-.7-1.2-1.1-.4-.3-.9-.6-1.4-.8l.5-1.2zm-13.2 18l.9-.9c.4.4.8.7 1.2 1.1.4.3.9.6 1.4.8l-.6 1.2c-.5-.3-1.1-.6-1.6-1-.4-.4-.9-.8-1.3-1.2zm15.1-.8c.8-.8 1.4-1.6 1.9-2.6l1.2.6c-.5 1.1-1.3 2.1-2.1 2.9l-1-.9z"/></g><path fill="#54C4CD" d="M137 82.8c-1.3-2.4-.4-5.4 2-6.7 2.4-1.3 5.4-.4 6.7 2 1.3 2.4.4 5.4-2 6.7-2.4 1.3-5.4.4-6.7-2z"/><path fill="#F3D0B4" d="M157.8 101.6l-9.8-3.4 7.9-6.8 7.9-6.7 1.9 10.1 1.9 10.2z"/><path fill="#54C4CD" d="M46.5 219v119.4h89.9V219"/><path fill="#50565F" d="M145.6 229.4V122.1h-8.5v-16.7h-9.7l-11.2-29.5V56.7L92.1 0l-24 56.3-.1 19.6-11.2 29.5h-9.7v16.7h-8.5v107.2h107z"/><path fill="#F3D0B4" d="M54.4 213.1h75.3v-75.3H54.4v75.3z"/><path fill="#FFF" d="M92.1 145.1c-16.8 0-30.4 13.6-30.4 30.4s13.6 30.4 30.4 30.4c16.8 0 30.4-13.6 30.4-30.4s-13.7-30.4-30.4-30.4z"/><path fill="#54C4CD" d="M105.4 159l-14.6 15.9v.1c0 .1-.1.1-.1.2s0 .1-.1.2V176c0 .1 0 .1.1.2v.1l7.3 10.2c.2.3.5.4.8.4.2 0 .4-.1.6-.2.4-.3.5-.9.2-1.3l-6.9-9.6 14.1-15.4c.4-.4.3-1-.1-1.4-.4-.4-1-.4-1.3 0zM7.5 278.5c-1 1.9-3.5 2.7-5.4 1.6-1.9-1-2.7-3.5-1.6-5.4 1-1.9 3.5-2.7 5.4-1.6 1.9 1 2.7 3.4 1.6 5.4z"/><path fill="#EBB65C" d="M29.9 268.6l2 8.1-8.1-2.3-8.1-2.3 6.1-5.9 6-5.8z"/></svg>