<!-- Generator: Adobe Illustrator 18.0.0, SVG Export Plug-In  -->
<svg version="1.1"
	 xmlns="http://www.w3.org/2000/svg" xmlns:xlink="http://www.w3.org/1999/xlink" xmlns:a="http://ns.adobe.com/AdobeSVGViewerExtensions/3.0/"
	 x="0px" y="0px" width="2104.4px" height="1141.4px" viewBox="0 0 2104.4 1141.4" enable-background="new 0 0 2104.4 1141.4"
	 xml:space="preserve">
<defs>
</defs>
<rect x="0" y="288.6" fill="#F2F4F4" width="2104.4" height="852.8"/>
<g>
	<g>
		<g>
			<g>
				<g>
					<path fill="#EBB65C" d="M1049.9,247.4c-0.2,0.7,0.3,1.4,1.1,1.7l7.4,2.3c0.8,0.2,1.6-0.3,1.9-1.2c0.2-0.9-0.2-1.8-1-2l-7.6-1.6
						C1050.9,246.3,1050.1,246.7,1049.9,247.4z"/>
				</g>
				<g>
					<path fill="#EBB65C" d="M1046.5,255.4c-0.4,0.6-0.1,1.5,0.6,1.9l6.4,4.4c0.7,0.5,1.7,0.2,2.2-0.6c0.5-0.8,0.3-1.8-0.4-2.2
						l-6.8-3.8C1047.7,254.7,1046.8,254.9,1046.5,255.4z"/>
				</g>
				<g>
					<path fill="#EBB65C" d="M1040.7,262.2c-0.5,0.5-0.5,1.3,0,2l4.9,6.1c0.5,0.7,1.6,0.7,2.3,0.1c0.7-0.6,0.8-1.7,0.2-2.2l-5.4-5.6
						C1042.1,261.8,1041.3,261.7,1040.7,262.2z"/>
				</g>
				<g>
					<path fill="#EBB65C" d="M1033.3,266.9c-0.6,0.3-0.9,1.1-0.6,1.9l2.8,7.2c0.3,0.7,1.3,1.2,2.1,0.7c0.9-0.4,1.3-1.4,0.9-2.1
						l-3.5-7C1034.7,267,1033.9,266.6,1033.3,266.9z"/>
				</g>
				<g>
					<path fill="#EBB65C" d="M1024.8,269.2c-0.7,0.1-1.2,0.8-1.2,1.6l0.6,7.8c0.1,0.8,0.9,1.5,1.8,1.3c0.9-0.1,1.6-0.9,1.5-1.7
						l-1.2-7.7C1026.2,269.7,1025.5,269.1,1024.8,269.2z"/>
				</g>
				<g>
					<path fill="#EBB65C" d="M1016,268.9c-0.7-0.1-1.4,0.4-1.6,1.2l-1.7,7.6c-0.2,0.8,0.4,1.7,1.4,1.8c0.9,0.1,1.8-0.4,1.9-1.2
						l1.1-7.7C1017.1,269.8,1016.7,269,1016,268.9z"/>
				</g>
				<g>
					<path fill="#EBB65C" d="M1007.7,266.1c-0.6-0.3-1.4-0.1-1.9,0.7l-3.9,6.7c-0.4,0.7-0.1,1.7,0.8,2.1c0.9,0.4,1.8,0.1,2.2-0.6
						l3.3-7C1008.5,267.2,1008.3,266.4,1007.7,266.1z"/>
				</g>
				<g>
					<path fill="#EBB65C" d="M1000.5,260.9c-0.5-0.5-1.3-0.5-2,0.1l-5.7,5.3c-0.6,0.6-0.6,1.6,0.1,2.3c0.7,0.6,1.7,0.7,2.3,0.1
						l5.2-5.8C1001,262.2,1001,261.4,1000.5,260.9z"/>
				</g>
				<g>
					<path fill="#EBB65C" d="M995.2,253.8c-0.3-0.6-1.1-0.8-1.9-0.5l-7,3.4c-0.7,0.4-1,1.3-0.6,2.2c0.5,0.8,1.5,1.1,2.2,0.7l6.7-4
						C995.3,255.2,995.6,254.4,995.2,253.8z"/>
				</g>
				<g>
					<path fill="#EBB65C" d="M992.3,245.5c-0.1-0.7-0.8-1.1-1.7-1l-7.7,1.2c-0.8,0.1-1.4,1-1.2,1.9c0.2,0.9,1.1,1.5,1.8,1.3l7.6-1.8
						C991.9,246.9,992.4,246.2,992.3,245.5z"/>
				</g>
				<g>
					<path fill="#EBB65C" d="M991.9,236.7c0.1-0.7-0.5-1.3-1.3-1.5l-7.7-1.2c-0.8-0.1-1.6,0.5-1.7,1.5c-0.1,1,0.6,1.8,1.4,1.8
						l7.8,0.5C991.2,237.9,991.8,237.4,991.9,236.7z"/>
				</g>
				<g>
					<path fill="#EBB65C" d="M994.1,228.2c0.3-0.6-0.1-1.4-0.8-1.8l-7-3.4c-0.7-0.4-1.7,0-2.1,0.9c-0.4,0.9,0,1.9,0.8,2.1l7.3,2.8
						C993.1,229.1,993.9,228.8,994.1,228.2z"/>
				</g>
				<g>
					<path fill="#EBB65C" d="M998.8,220.7c0.5-0.5,0.4-1.4-0.2-2l-5.7-5.3c-0.6-0.6-1.6-0.5-2.3,0.3c-0.7,0.7-0.5,1.8,0.1,2.3
						l6.1,4.8C997.5,221.3,998.3,221.2,998.8,220.7z"/>
				</g>
				<g>
					<path fill="#EBB65C" d="M1005.5,214.9c0.6-0.4,0.7-1.2,0.3-2l-3.9-6.7c-0.4-0.7-1.4-0.9-2.2-0.4c-0.8,0.5-1.1,1.5-0.6,2.2
						l4.5,6.4C1004,215,1004.9,215.2,1005.5,214.9z"/>
				</g>
				<g>
					<path fill="#EBB65C" d="M1013.5,211.3c0.7-0.2,1.1-1,0.9-1.8l-1.7-7.6c-0.2-0.8-1.1-1.3-2-1c-0.9,0.2-1.5,1.1-1.2,1.9l2.4,7.4
						C1012.1,211,1012.9,211.5,1013.5,211.3z"/>
				</g>
				<g>
					<path fill="#EBB65C" d="M1022.3,210.3c0.7,0,1.3-0.6,1.4-1.4l0.6-7.8c0.1-0.8-0.7-1.5-1.6-1.6c-0.5,0-0.9,0.1-1.2,0.4
						c-0.3,0.3-0.5,0.7-0.5,1.1l0.1,7.8c0,0.4,0.2,0.8,0.4,1C1021.6,210.1,1021.9,210.3,1022.3,210.3z"/>
				</g>
				<g>
					<path fill="#EBB65C" d="M1031,211.9c0.6,0.2,1.4-0.2,1.7-1l2.8-7.2c0.3-0.8-0.2-1.7-1.1-2c-0.4-0.2-0.9-0.2-1.3,0
						c-0.4,0.2-0.7,0.5-0.8,0.9l-2.2,7.5c-0.1,0.4-0.1,0.8,0.1,1.1C1030.4,211.5,1030.6,211.8,1031,211.9z"/>
				</g>
				<g>
					<path fill="#EBB65C" d="M1038.8,216c0.6,0.4,1.4,0.2,1.9-0.4l4.9-6.1c0.5-0.6,0.3-1.6-0.4-2.2c-0.8-0.6-1.8-0.5-2.2,0.2
						l-4.3,6.5C1038.1,214.6,1038.2,215.5,1038.8,216z"/>
				</g>
				<g>
					<path fill="#EBB65C" d="M1045,222.2c0.4,0.6,1.3,0.6,2,0.2l6.4-4.4c0.7-0.5,0.8-1.5,0.2-2.2c-0.6-0.8-1.6-1-2.2-0.4l-6,4.9
						C1044.8,220.7,1044.6,221.6,1045,222.2z"/>
				</g>
				<g>
					<path fill="#EBB65C" d="M1049.2,229.9c0.2,0.7,1.1,1,1.9,0.7l7.4-2.3c0.8-0.2,1.2-1.2,0.9-2.1c-0.3-0.9-1.2-1.4-2-1.1l-7.2,2.9
						C1049.4,228.5,1049,229.3,1049.2,229.9z"/>
				</g>
				<g>
					<path fill="#EBB65C" d="M1050.9,238.6c0,0.7,0.7,1.3,1.6,1.3h7.8c0.8,0,1.5-0.8,1.4-1.7c0-1-0.8-1.7-1.6-1.6l-7.7,0.7
						C1051.5,237.3,1050.8,237.9,1050.9,238.6z"/>
				</g>
			</g>
		</g>
	</g>
	<g>
		<g>
			<g>
				<g>
					<path fill="#EBB65C" d="M830.5,86c-0.2,0.9,0.5,2,1.5,2.3l10.3,3.2c1.1,0.3,2.2-0.4,2.6-1.7c0.3-1.3-0.3-2.5-1.4-2.7l-10.5-2.3
						C831.8,84.5,830.7,85.1,830.5,86z"/>
				</g>
				<g>
					<path fill="#EBB65C" d="M825.7,97.2c-0.5,0.8-0.1,2,0.8,2.6l8.9,6.1c1,0.7,2.3,0.3,3-0.9c0.7-1.1,0.4-2.5-0.6-3.1l-9.3-5.3
						C827.4,96.1,826.2,96.3,825.7,97.2z"/>
				</g>
				<g>
					<path fill="#EBB65C" d="M817.8,106.4c-0.4,0.3-0.5,0.8-0.5,1.3c0,0.5,0.1,1,0.5,1.4l6.7,8.4c0.4,0.4,0.9,0.7,1.5,0.7
						c0.6,0,1.2-0.2,1.6-0.6c1-0.9,1.1-2.3,0.3-3.1l-7.4-7.8C819.7,105.9,818.5,105.8,817.8,106.4z"/>
				</g>
				<g>
					<path fill="#EBB65C" d="M807.5,113c-0.2,0.1-0.4,0.3-0.5,0.4c-0.2,0.2-0.3,0.4-0.4,0.6c-0.2,0.5-0.2,1,0,1.5l3.9,10
						c0.2,0.5,0.6,0.9,1.2,1.1c0.3,0.1,0.6,0.2,0.9,0.1c0.3,0,0.6-0.1,0.9-0.2c1.2-0.6,1.7-1.9,1.2-2.9l-4.8-9.6
						C809.5,113.1,808.4,112.6,807.5,113z"/>
				</g>
				<g>
					<path fill="#EBB65C" d="M795.8,116.2c-0.5,0.1-0.9,0.4-1.2,0.7c-0.3,0.4-0.5,0.9-0.4,1.5l0.8,10.7c0,0.6,0.3,1.1,0.8,1.4
						c0.5,0.4,1.1,0.5,1.7,0.4c1.3-0.2,2.2-1.3,2-2.4l-1.7-10.6C797.7,116.8,796.7,116,795.8,116.2z"/>
				</g>
				<g>
					<path fill="#EBB65C" d="M783.6,115.8c-1-0.1-1.9,0.5-2.2,1.7l-2.4,10.5c-0.3,1.1,0.6,2.3,1.9,2.5c1.3,0.2,2.5-0.6,2.6-1.7
						l1.5-10.6C785.2,117,784.6,115.9,783.6,115.8z"/>
				</g>
				<g>
					<path fill="#EBB65C" d="M772.1,111.8c-0.2-0.1-0.5-0.1-0.7-0.2c-0.2,0-0.5,0-0.7,0.1c-0.5,0.2-0.9,0.5-1.2,1l-5.4,9.3
						c-0.3,0.5-0.3,1.1-0.1,1.6c0.1,0.3,0.2,0.5,0.4,0.8c0.2,0.2,0.5,0.4,0.8,0.6c1.2,0.6,2.5,0.2,3-0.8l4.6-9.7
						C773.3,113.4,773,112.3,772.1,111.8z"/>
				</g>
				<g>
					<path fill="#EBB65C" d="M762.3,104.7c-0.7-0.7-1.8-0.7-2.7,0.1l-7.9,7.3c-0.8,0.8-0.8,2.2,0.1,3.1c1,0.9,2.4,0.9,3.1,0.1
						l7.2-7.9C762.9,106.5,763,105.3,762.3,104.7z"/>
				</g>
				<g>
					<path fill="#EBB65C" d="M755,94.9c-0.4-0.9-1.6-1.2-2.6-0.7l-9.7,4.7c-1,0.5-1.4,1.9-0.8,3c0.6,1.2,2,1.6,3,1l9.2-5.5
						C755.1,96.9,755.4,95.7,755,94.9z"/>
				</g>
				<g>
					<path fill="#EBB65C" d="M750.9,83.5c-0.1-0.9-1.2-1.6-2.3-1.4L738,83.6c-1.1,0.2-1.9,1.4-1.7,2.7c0.2,1.3,1.5,2.1,2.5,1.8
						l10.4-2.5C750.4,85.3,751.1,84.4,750.9,83.5z"/>
				</g>
				<g>
					<path fill="#EBB65C" d="M750.4,71.3c0.2-0.9-0.6-1.9-1.8-2L738,67.7c-1.1-0.2-2.2,0.7-2.4,2c-0.1,1.3,0.8,2.4,1.9,2.5l10.7,0.7
						C749.4,72.9,750.3,72.2,750.4,71.3z"/>
				</g>
				<g>
					<path fill="#EBB65C" d="M753.5,59.5c0.4-0.9-0.1-2-1.1-2.5l-9.7-4.7c-1-0.5-2.3,0.1-2.9,1.3c-0.5,1.2,0,2.6,1.1,3l10,3.8
						C752,60.8,753.1,60.4,753.5,59.5z"/>
				</g>
				<g>
					<path fill="#EBB65C" d="M759.9,49.2c0.6-0.7,0.5-1.9-0.3-2.7l-7.9-7.3c-0.8-0.8-2.2-0.6-3.1,0.4c-0.5,0.5-0.6,1.1-0.6,1.7
						c0,0.6,0.3,1.1,0.7,1.5l8.5,6.6c0.4,0.4,1,0.5,1.5,0.5C759.1,49.7,759.6,49.5,759.9,49.2z"/>
				</g>
				<g>
					<path fill="#EBB65C" d="M769.1,41.2c0.8-0.5,1-1.7,0.5-2.7l-5.4-9.3c-0.6-1-1.9-1.2-3.1-0.6c-0.6,0.3-1,0.8-1.1,1.4
						c-0.1,0.6,0,1.1,0.3,1.6l6.1,8.8c0.3,0.5,0.8,0.8,1.3,0.9C768.2,41.4,768.7,41.4,769.1,41.2z"/>
				</g>
				<g>
					<path fill="#EBB65C" d="M780.2,36.3c0.9-0.2,1.5-1.3,1.2-2.5l-2.4-10.5c-0.2-1.1-1.5-1.8-2.8-1.4c-1.3,0.3-2,1.5-1.7,2.6
						l3.3,10.2C778.3,35.8,779.3,36.5,780.2,36.3z"/>
				</g>
				<g>
					<path fill="#EBB65C" d="M792.3,34.8c1,0.1,1.8-0.8,1.9-2l0.8-10.7c0.1-1.1-0.9-2.1-2.2-2.2c-0.7,0-1.3,0.2-1.7,0.5
						c-0.4,0.4-0.7,0.9-0.7,1.5l0.1,10.7c0,0.6,0.2,1.1,0.5,1.4C791.4,34.6,791.8,34.8,792.3,34.8z"/>
				</g>
				<g>
					<path fill="#EBB65C" d="M804.3,37c0.9,0.3,2-0.3,2.4-1.3l3.9-10c0.4-1.1-0.2-2.3-1.5-2.7c-0.6-0.2-1.3-0.2-1.8,0
						c-0.5,0.2-0.9,0.7-1.1,1.2l-3,10.3c-0.2,0.5-0.1,1.1,0.1,1.5C803.5,36.5,803.8,36.9,804.3,37z"/>
				</g>
				<g>
					<path fill="#EBB65C" d="M815.1,42.7c0.8,0.6,2,0.3,2.7-0.6l6.7-8.4c0.7-0.9,0.4-2.3-0.6-3c-1.1-0.8-2.4-0.7-3.1,0.3l-6,8.9
						C814.2,40.8,814.3,42.1,815.1,42.7z"/>
				</g>
				<g>
					<path fill="#EBB65C" d="M823.7,51.2c0.6,0.8,1.8,0.9,2.8,0.2l8.9-6.1c0.9-0.6,1.1-2,0.3-3.1c-0.8-1.1-2.2-1.3-3-0.6l-8.3,6.8
						C823.4,49.3,823.1,50.5,823.7,51.2z"/>
				</g>
				<g>
					<path fill="#EBB65C" d="M829.5,61.9c0.3,0.9,1.5,1.3,2.6,1l10.3-3.2c1.1-0.3,1.6-1.6,1.2-2.9c-0.5-1.2-1.7-1.9-2.7-1.5l-9.9,4
						C829.7,60,829.1,61.1,829.5,61.9z"/>
				</g>
				<g>
					<path fill="#EBB65C" d="M831.8,73.9c0,1,1,1.7,2.2,1.7h10.7c1.1,0,2-1.1,2-2.4c-0.1-1.3-1-2.3-2.2-2.2L833.7,72
						C832.6,72.1,831.7,72.9,831.8,73.9z"/>
				</g>
			</g>
		</g>
	</g>
	<g>
		<path fill="#50565F" d="M1029.8,217.4c0,5.4-4.4,9.8-9.8,9.8H786.7c-5.4,0-9.8-4.4-9.8-9.8V74.1c0-5.4,4.4-9.8,9.8-9.8h233.3
			c5.4,0,9.8,4.4,9.8,9.8V217.4z"/>
		<rect x="791" y="79.8" fill="#FFFFFF" width="224.9" height="122.8"/>
		<circle fill="#FFFFFF" cx="903.4" cy="215.1" r="5.9"/>
		<rect x="870.4" y="231.5" fill="#50565F" width="66" height="29.7"/>
		<rect x="848.5" y="265.2" fill="#50565F" width="109.8" height="7.3"/>
		<g>
			<path fill-rule="evenodd" clip-rule="evenodd" fill="#54C4CD" d="M903.8,0c3.4-0.1,5.2,0.2,8.6,0.9c7,1.4,13.4,4.1,19.3,8.3
				c6.3,4.6,11.1,10.4,14,17.7c2.3,5.6,3.2,11.5,3.1,17.5c0,1,0,1.9,0,2.9c-0.1,2.9-0.4,5.8-1,8.6c-1.2,6.5-3.6,12.5-6.8,18.2
				c-2,3.4-4.1,6.8-6.1,10.2c-1.4,2.4-2.8,4.9-3.6,7.7c-1,3.8-1.4,7.7-1.8,11.5c-0.2,1.8-0.4,3.6-1,5.4c-1.2,3.4-3.4,4.6-6.3,4.6
				h-36.3c-2.9,0-5.1-1.2-6.3-4.6c-0.6-1.7-0.8-3.6-1-5.4c-0.4-3.9-0.8-7.7-1.8-11.5c-0.8-2.8-2.1-5.2-3.6-7.7
				c-2-3.4-4.1-6.7-6.1-10.2c-3.3-5.7-5.6-11.8-6.8-18.2c-0.6-2.9-0.9-5.7-1-8.6c0-1,0-1.9,0-2.9c-0.1-6,0.8-11.9,3.1-17.5
				c2.9-7.3,7.7-13.1,14-17.7c5.8-4.2,12.3-6.8,19.3-8.3c3.4-0.7,5.2-1,8.6-0.9"/>
			<g>
				<path fill="#FFFFFF" d="M903.8,43.2c1,1,1.8,2.2,2.6,3.6c0.7,1.3,1.2,2.8,1.5,4.2c0.3,1.5,0.4,3,0.3,4.5
					c-0.1,1.5-0.4,2.9-0.9,4.3c-0.6,1.5-1.3,2.7-2.3,3.6c-0.9,0.9-2,1.5-3.2,1.8l-6.2,1.3l10.5,49.2c0.1,0.5,0,1-0.3,1.5
					c-0.3,0.5-0.7,0.7-1.3,0.8c-0.5,0.1-1,0-1.5-0.3c-0.5-0.3-0.7-0.7-0.9-1.3L887,44.6c-0.2-0.8,0.1-1.4,0.6-1.9
					c0.2-0.3,0.5-0.5,0.9-0.5l8.1-1.7c1.2-0.3,2.4-0.1,3.6,0.4C901.5,41.3,902.7,42.1,903.8,43.2z M903.6,58.4c0.4-1,0.6-2,0.6-3.2
					c0.1-1.1,0-2.3-0.3-3.4c-0.2-1.1-0.6-2.2-1.1-3.2c-0.5-1-1.2-1.9-1.9-2.6c-0.6-0.6-1.2-1.1-1.8-1.4c-0.6-0.3-1.2-0.3-1.6-0.2
					l-6.2,1.3l3.6,16.9l6.2-1.3c0.5-0.1,0.9-0.4,1.4-0.9C902.9,59.9,903.3,59.2,903.6,58.4z"/>
				<path fill="#FFFFFF" d="M924.8,66.4c0.6,1.3,0.9,2.7,1.1,4.2c0.2,1.5,0.2,3,0,4.5c-0.2,1.5-0.7,3-1.3,4.4
					c-0.6,1.4-1.4,2.6-2.3,3.7c-1.1,1.2-2.2,2-3.4,2.6c-1.2,0.5-2.4,0.7-3.6,0.5l-6.3-0.9l-7.5,49.7c-0.1,0.6-0.3,1-0.8,1.3
					c-0.4,0.3-0.9,0.4-1.5,0.3c-0.5-0.1-0.9-0.3-1.3-0.8c-0.3-0.4-0.4-0.9-0.4-1.5l11-72.6c0.1-0.8,0.5-1.3,1.3-1.6
					c0.3-0.2,0.6-0.2,1.1-0.2l8.2,1.2c1.2,0.2,2.3,0.7,3.3,1.6C923.3,63.8,924.2,65,924.8,66.4z M919.3,80.5
					c0.7-0.8,1.3-1.7,1.7-2.7c0.5-1.1,0.8-2.1,0.9-3.3c0.2-1.1,0.2-2.2,0.1-3.4c-0.1-1.1-0.4-2.2-0.8-3.1c-0.3-0.8-0.7-1.4-1.2-1.9
					c-0.5-0.5-1-0.7-1.4-0.8l-6.3-1l-2.6,17.1l6.3,1c0.5,0.1,1,0,1.6-0.4C918.1,81.7,918.7,81.2,919.3,80.5z"/>
			</g>
			<path fill-rule="evenodd" clip-rule="evenodd" fill="#54C4CD" d="M884.6,132.3c-1.3,0-2.3-0.9-2.4-2.1c0-1.3,0.9-2.2,2.2-2.3
				c2.4-0.2,4.8-0.4,7.2-0.6c2-0.2,4-0.3,5.9-0.5c2-0.2,4.1-0.4,6.1-0.5c2-0.2,3.9-0.3,5.9-0.5c2.1-0.2,4.1-0.4,6.2-0.5
				c2-0.2,4-0.3,6-0.5c0.5,0,1.1-0.1,1.6-0.1c1.1,0,2,0.8,2.1,2c0.1,1.1-0.6,2.2-1.7,2.3c-0.9,0.2-1.9,0.2-2.8,0.3
				c-2.1,0.2-4.2,0.4-6.3,0.5c-2,0.2-4,0.3-6,0.5c-2,0.2-4,0.4-6.1,0.5c-1.9,0.2-3.9,0.3-5.8,0.5c-2.1,0.2-4.2,0.4-6.3,0.5
				C888.6,131.9,886.6,132.1,884.6,132.3z"/>
			<path fill-rule="evenodd" clip-rule="evenodd" fill="#54C4CD" d="M882.3,142.3c0-1.2,0.9-2.1,2-2.2c3.9-0.3,7.8-0.7,11.6-1
				c3.1-0.3,6.3-0.5,9.4-0.8c3.4-0.3,6.9-0.6,10.4-0.9c2.5-0.2,5-0.4,7.5-0.6c1.2-0.1,2.2,0.7,2.4,2c0.1,1.2-0.7,2.3-1.9,2.4
				c-1.7,0.2-3.5,0.3-5.2,0.5c-2,0.2-4.1,0.4-6.1,0.5c-2,0.2-3.9,0.3-5.9,0.5c-2.1,0.2-4.1,0.4-6.2,0.5c-2,0.2-4,0.3-5.9,0.5
				c-2,0.2-4.1,0.4-6.1,0.5c-1.2,0.1-2.4,0.2-3.6,0.3C883.3,144.6,882.3,143.6,882.3,142.3z"/>
			<path fill-rule="evenodd" clip-rule="evenodd" fill="#54C4CD" d="M885.2,138.3c-1.6,0.1-2.5-0.4-2.8-1.4c-0.3-0.9,0-2,0.8-2.6
				c0.4-0.2,0.8-0.4,1.3-0.4c2.4-0.2,4.7-0.4,7.1-0.6c2.4-0.2,4.8-0.4,7.2-0.6c2.4-0.2,4.7-0.4,7.1-0.6c2.4-0.2,4.8-0.4,7.2-0.6
				c2.3-0.2,4.7-0.4,7.1-0.6c0.9-0.1,1.9-0.2,2.8-0.3c1.1-0.1,2,0.3,2.4,1.1c0.4,0.8,0.4,1.7-0.2,2.4c-0.4,0.5-0.8,0.8-1.4,0.8
				c-2.3,0.2-4.6,0.4-6.8,0.6c-2.4,0.2-4.8,0.4-7.2,0.6c-2,0.2-4,0.3-6,0.5c-2.4,0.2-4.7,0.4-7.1,0.6c-2,0.2-4,0.3-6,0.5
				C888.6,138,886.7,138.2,885.2,138.3z"/>
			<path fill-rule="evenodd" clip-rule="evenodd" fill="#54C4CD" d="M925.6,120.6c0,1.2-0.8,2.1-2,2.2c-3.7,0.3-7.3,0.6-11,0.9
				c-4,0.3-8,0.7-12.1,1c-3.5,0.3-6.9,0.6-10.4,0.9c-1.8,0.2-3.6,0.3-5.5,0.5c-1.1,0.1-2.2-0.8-2.3-2c-0.1-1.2,0.8-2.3,1.9-2.4
				c2.9-0.3,5.9-0.5,8.8-0.8c2.7-0.2,5.5-0.5,8.2-0.7c2.4-0.2,4.7-0.4,7.1-0.6c2.7-0.2,5.5-0.5,8.2-0.7c2.2-0.2,4.5-0.4,6.7-0.6
				C924.5,118.3,925.5,119.3,925.6,120.6z"/>
			<path fill-rule="evenodd" clip-rule="evenodd" fill="#54C4CD" d="M915,149.3c-2.8,2.6-5.5,5-9.2,5.9c-0.6,0.2-1.2,0.3-1.8,0.3
				c-0.6,0-1.2-0.2-1.8-0.3c-2.2-0.5-4.1-1.6-5.8-2.9c-1.1-0.8-2.2-1.8-3.2-2.7c-0.1-0.1-0.2-0.2-0.3-0.3
				C900.2,149.3,907.5,149.3,915,149.3z"/>
		</g>
		<g>
			<text transform="matrix(1 0 0 1 818.845 184.7845)" fill="#54C4CD" font-family="'HelveticaNeue-Bold'" font-size="20.7052">the people’s plan</text>
		</g>
	</g>
	<polygon fill="#80CDC8" points="1001.3,25.1 997.2,36.1 989.6,27.1 982.1,18 993.7,16 1005.3,14 	"/>
	<path fill="#EBB65C" d="M979.1,48.5c-2.3-1-3.5-3.7-2.5-6c1-2.3,3.7-3.5,6-2.5c2.3,1,3.5,3.7,2.5,6
		C984.1,48.3,981.5,49.4,979.1,48.5z"/>
	<g>
		<path fill="#E2E2E1" d="M1054.4,48.6l0.3-2c1.6,0.2,3.3,0.2,4.9-0.1l0.4,2C1058.2,48.8,1056.3,48.9,1054.4,48.6z M1063.4,47.5
			l-0.8-1.9c1.5-0.6,3-1.5,4.2-2.6l1.3,1.5C1066.7,45.8,1065.1,46.7,1063.4,47.5z"/>
		<path fill="#E2E2E1" d="M1072,33.5c0.2-1.6,0.2-3.3-0.1-4.9l2-0.4c0.4,1.8,0.4,3.7,0.2,5.6L1072,33.5z M1070.9,25.6
			c-0.6-1.5-1.5-3-2.6-4.2l1.5-1.3c1.2,1.4,2.2,3,2.9,4.8L1070.9,25.6z"/>
		<path fill="#E2E2E1" d="M1046.7,19.8l-1.3-1.5c1.4-1.2,3-2.2,4.8-2.9l0.8,1.9C1049.4,17.9,1048,18.7,1046.7,19.8z M1053.8,16.4
			l-0.4-2c1.8-0.4,3.7-0.4,5.6-0.2l-0.3,2C1057.1,16,1055.5,16,1053.8,16.4z"/>
		<path fill="#E2E2E1" d="M1043.6,42.8c-1.2-1.4-2.2-3-2.9-4.8l1.9-0.8c0.6,1.5,1.5,3,2.6,4.2L1043.6,42.8z M1039.7,34.7
			c-0.4-1.8-0.4-3.7-0.2-5.6l2,0.3c-0.2,1.6-0.2,3.3,0.1,4.9L1039.7,34.7z"/>
		<path fill="#E2E2E1" d="M1048.5,46.7c-0.8-0.4-1.6-1-2.3-1.5l1.2-1.6c1.3,1,2.8,1.8,4.3,2.3l-0.7,1.9
			C1050.2,47.5,1049.3,47.1,1048.5,46.7z M1040.4,25.7c0.3-0.9,0.7-1.7,1.1-2.6c0.4-0.8,1-1.6,1.5-2.4l1.6,1.2
			c-0.5,0.7-1,1.4-1.3,2.1c-0.4,0.7-0.7,1.5-1,2.3L1040.4,25.7z M1070.5,42l-1.6-1.2c0.5-0.7,1-1.4,1.3-2.1c0.4-0.7,0.7-1.5,1-2.3
			l1.9,0.7c-0.3,0.9-0.7,1.7-1.1,2.6C1071.6,40.5,1071.1,41.3,1070.5,42z M1066.1,19.3c-1.3-1-2.8-1.8-4.3-2.3l0.7-1.9
			c1.8,0.6,3.4,1.5,4.9,2.7L1066.1,19.3z"/>
	</g>
	<path fill="#54C4CD" d="M788.5,248c-1.2,2.2-4,3.1-6.2,1.9c-2.2-1.2-3.1-4-1.9-6.2c1.2-2.2,4-3.1,6.2-1.9
		C788.9,243,789.7,245.8,788.5,248z"/>
	<polygon fill="#EBB65C" points="832.8,262.5 835.1,271.9 825.8,269.3 816.5,266.6 823.5,259.9 830.4,253.1 	"/>
	<g>
		<path fill="#80CDC8" d="M721,183c-0.3,0.1-0.6,0.2-0.9,0.2c-1.1,0-2.1-0.7-2.5-1.7l-4.7-12.8c-0.5-1.4,0.2-2.9,1.6-3.4
			c1.4-0.5,2.9,0.2,3.4,1.6l4.7,12.8C723.1,181,722.4,182.5,721,183z"/>
		<path fill="#80CDC8" d="M702.6,193.3c-0.7,0-1.5-0.3-2-0.9l-8.8-10.4c-0.9-1.1-0.8-2.8,0.3-3.7c1.1-0.9,2.8-0.8,3.7,0.3l8.8,10.4
			c0.9,1.1,0.8,2.8-0.3,3.7C703.8,193.1,703.2,193.3,702.6,193.3z"/>
		<path fill="#80CDC8" d="M691.8,207.5c-0.5,0.8-1.4,1.3-2.3,1.3c-0.4,0-0.9-0.1-1.3-0.4l-11.8-6.8c-1.3-0.7-1.7-2.3-1-3.6
			c0.7-1.3,2.3-1.7,3.6-1l11.8,6.8C692.1,204.6,692.5,206.3,691.8,207.5z"/>
		<path fill="#80CDC8" d="M740.1,179.6c-1.4,0-2.6-1.2-2.6-2.6v-13.6c0-1.4,1.2-2.6,2.6-2.6c1.5,0,2.6,1.2,2.6,2.6V177
			C742.7,178.5,741.5,179.6,740.1,179.6z"/>
	</g>
	<path fill="#FFFFFF" d="M742.8,301.5c0.6-11.8,7.1-27.2,16.5-39.3c5.1-6.6,7.5-13,7.5-16.8c0-13.5-10.8-24.4-24.1-24.4h0
		c-13.3,0-24.1,10.9-24.1,24.4c0,3.9,2.4,10.3,7.5,16.8c9.4,12.1,15.9,27.5,16.5,39.3H742.8z"/>
	<circle fill="#54C4CD" cx="742.6" cy="244.4" r="10.2"/>
	<path fill="#F3D0B4" d="M721.2,125.8c-1,1.9-3.4,2.6-5.3,1.6c-1.9-1-2.6-3.4-1.6-5.3c1-1.9,3.4-2.6,5.3-1.6
		C721.5,121.5,722.2,123.9,721.2,125.8z"/>
	<path fill-rule="evenodd" clip-rule="evenodd" fill="#54C4CD" d="M1105.9,169.4c0,6.5-5.3,11.7-11.7,11.7s-11.7-5.3-11.7-11.7
		c0-6.5,5.3-11.7,11.7-11.7S1105.9,162.9,1105.9,169.4z"/>
	<path fill="#FFFFFF" d="M1094.2,196.8c-14.8,0-26.8-12-26.8-26.8c0-14.8,12-26.8,26.8-26.8s26.8,12,26.8,26.8
		C1121,184.8,1109,196.8,1094.2,196.8z M1094.2,149.8c-11.1,0-20.1,9-20.1,20.1c0,11.1,9,20.1,20.1,20.1c11.1,0,20.1-9,20.1-20.1
		C1114.3,158.9,1105.3,149.8,1094.2,149.8z"/>
	<path fill="#EBB65C" d="M1062.7,130.7c0.3,4.7-3.3,8.8-8,9c-4.7,0.3-8.8-3.3-9-8c-0.3-4.7,3.3-8.8,8-9
		C1058.4,122.4,1062.4,126,1062.7,130.7z"/>
	<polygon fill="#EBB65C" points="705.2,68.5 715.3,65.1 713.2,75.6 711.1,86.1 703.1,79 695,71.9 	"/>
	<g>
		<g>
			<path fill="#54C4CD" d="M1103.7,254.1l0.2-1.6c1.4,0.2,2.7,0.1,4.1-0.1l0.3,1.6C1106.8,254.2,1105.3,254.3,1103.7,254.1z
				 M1111.1,253.1l-0.6-1.5c1.3-0.5,2.4-1.2,3.5-2.1l1.1,1.3C1113.9,251.7,1112.5,252.5,1111.1,253.1z"/>
			<path fill="#54C4CD" d="M1118.2,241.5c0.2-1.4,0.1-2.7-0.1-4.1l1.6-0.3c0.3,1.5,0.3,3.1,0.1,4.6L1118.2,241.5z M1117.4,235
				c-0.5-1.3-1.2-2.4-2.1-3.5l1.3-1.1c1,1.2,1.8,2.5,2.4,3.9L1117.4,235z"/>
			<path fill="#54C4CD" d="M1097.4,230.3l-1.1-1.3c1.2-1,2.5-1.8,3.9-2.4l0.6,1.5C1099.6,228.7,1098.4,229.4,1097.4,230.3z
				 M1103.3,227.4l-0.3-1.6c1.5-0.3,3.1-0.3,4.6-0.1l-0.2,1.6C1106,227.1,1104.6,227.2,1103.3,227.4z"/>
			<path fill="#54C4CD" d="M1094.8,249.2c-1-1.2-1.8-2.5-2.4-3.9l1.5-0.6c0.5,1.3,1.2,2.4,2.1,3.5L1094.8,249.2z M1091.6,242.6
				c-0.3-1.5-0.3-3.1-0.1-4.6l1.6,0.2c-0.2,1.4-0.1,2.7,0.1,4.1L1091.6,242.6z"/>
			<path fill="#54C4CD" d="M1098.8,252.5c-0.7-0.4-1.3-0.8-1.9-1.3l1-1.3c1.1,0.8,2.3,1.5,3.6,1.9l-0.5,1.6
				C1100.2,253.1,1099.5,252.8,1098.8,252.5z M1092.1,235.2c0.3-0.7,0.6-1.4,0.9-2.1c0.4-0.7,0.8-1.3,1.3-1.9l1.3,1
				c-0.4,0.5-0.8,1.1-1.1,1.7c-0.3,0.6-0.6,1.2-0.8,1.9L1092.1,235.2z M1117,248.6l-1.3-1c0.4-0.5,0.8-1.1,1.1-1.7
				c0.3-0.6,0.6-1.2,0.8-1.9l1.6,0.5c-0.3,0.7-0.6,1.4-0.9,2.1C1117.9,247.3,1117.5,248,1117,248.6z M1113.4,229.8
				c-1.1-0.8-2.3-1.5-3.6-1.9l0.5-1.6c1.4,0.5,2.8,1.3,4.1,2.2L1113.4,229.8z"/>
		</g>
	</g>
	<g>
		<path fill="#F3D0B4" d="M1080.9,88c0.3,0.1,0.6,0.2,0.9,0.2c1.1,0,2.1-0.7,2.5-1.7l4.7-12.8c0.5-1.4-0.2-2.9-1.6-3.4
			c-1.4-0.5-2.9,0.2-3.4,1.6l-4.7,12.8C1078.8,86,1079.5,87.6,1080.9,88z"/>
		<path fill="#F3D0B4" d="M1099.4,98.3c0.7,0,1.5-0.3,2-0.9l8.8-10.4c0.9-1.1,0.8-2.8-0.3-3.7c-1.1-0.9-2.8-0.8-3.7,0.3l-8.8,10.4
			c-0.9,1.1-0.8,2.8,0.3,3.7C1098.2,98.1,1098.8,98.3,1099.4,98.3z"/>
		<path fill="#F3D0B4" d="M1110.1,112.6c0.5,0.8,1.4,1.3,2.3,1.3c0.4,0,0.9-0.1,1.3-0.4l11.8-6.8c1.3-0.7,1.7-2.3,1-3.6
			c-0.7-1.3-2.3-1.7-3.6-1l-11.8,6.8C1109.8,109.7,1109.4,111.3,1110.1,112.6z"/>
		<path fill="#F3D0B4" d="M1061.8,84.7c1.5,0,2.6-1.2,2.6-2.6V68.4c0-1.5-1.2-2.6-2.6-2.6s-2.6,1.2-2.6,2.6v13.6
			C1059.2,83.5,1060.4,84.7,1061.8,84.7z"/>
	</g>
</g>
</svg>
