<svg xmlns="http://www.w3.org/2000/svg" width="862.5" height="270" viewBox="0 0 862.5 270"><path fill="#EBB65C" d="M650 214.9c-.1.4.2.9.7 1l4.6 1.4c.5.2 1-.2 1.1-.8.1-.6-.1-1.1-.6-1.2l-4.7-1c-.5 0-1 .2-1.1.6zM647.9 219.9c-.2.4-.1.9.4 1.2l3.9 2.7c.4.3 1 .1 1.3-.4.3-.5.2-1.1-.3-1.4l-4.2-2.3c-.3-.3-.9-.2-1.1.2zM644.4 224c-.3.3-.3.8 0 1.2l3 3.7c.3.4 1 .4 1.4 0 .4-.4.5-1 .2-1.4l-3.3-3.5c-.4-.2-1-.3-1.3 0zM639.8 226.9c-.4.2-.6.7-.4 1.1l1.7 4.4c.2.5.8.7 1.3.5.5-.3.8-.8.5-1.3l-2.1-4.3c-.1-.3-.6-.6-1-.4zM634.6 228.3c-.4.1-.7.5-.7 1l.4 4.8c0 .5.5.9 1.1.8.6-.1 1-.6.9-1.1l-.8-4.7c-.1-.5-.5-.8-.9-.8zM629.2 228.2c-.4 0-.8.2-1 .7l-1.1 4.7c-.1.5.2 1 .8 1.1.6.1 1.1-.2 1.2-.8l.7-4.7c.1-.5-.2-1-.6-1zM624.1 226.4c-.4-.2-.9 0-1.1.4l-2.4 4.1c-.3.4-.1 1.1.5 1.3.5.3 1.1.1 1.3-.4l2-4.3c.2-.4.1-.9-.3-1.1zM619.7 223.2c-.3-.3-.8-.3-1.2.1l-3.5 3.2c-.4.3-.4 1 0 1.4.4.4 1.1.4 1.4 0l3.2-3.5c.4-.4.4-.9.1-1.2zM616.5 218.9c-.2-.4-.7-.5-1.2-.3l-4.3 2.1c-.5.2-.6.8-.4 1.4.3.5.9.7 1.3.4l4.1-2.4c.5-.3.7-.8.5-1.2zM614.6 213.8c-.1-.4-.5-.7-1-.6l-4.7.7c-.5.1-.8.6-.7 1.2.1.6.6.9 1.1.8l4.6-1.1c.5-.2.8-.6.7-1zM614.4 208.4c.1-.4-.3-.8-.8-.9l-4.7-.7c-.5-.1-1 .3-1.1.9-.1.6.3 1.1.9 1.1l4.8.3c.5 0 .9-.3.9-.7zM615.8 203.1c.2-.4 0-.9-.5-1.1l-4.3-2c-.5-.2-1 0-1.3.6-.2.5 0 1.1.5 1.3l4.5 1.7c.4.1.9-.1 1.1-.5zM618.6 198.5c.3-.3.2-.9-.1-1.2l-3.5-3.2c-.4-.3-1-.3-1.4.2-.4.4-.3 1.1.1 1.4l3.8 2.9c.4.3.8.2 1.1-.1zM622.7 195c.4-.2.5-.8.2-1.2l-2.4-4.1c-.3-.4-.9-.6-1.4-.2-.5.3-.7.9-.4 1.3l2.7 3.9c.5.4 1 .5 1.3.3zM627.7 192.8c.4-.1.7-.6.5-1.1l-1.1-4.7c-.1-.5-.7-.8-1.2-.6-.6.1-.9.7-.7 1.2l1.5 4.5c.1.5.6.8 1 .7zM633.1 192.2c.4 0 .8-.4.8-.9l.4-4.8c0-.5-.4-.9-1-1-.6 0-1.1.4-1 .9l.1 4.8c-.1.5.2.9.7 1zM638.4 193.1c.4.1.9-.1 1.1-.6l1.7-4.4c.2-.5-.1-1-.7-1.2-.5-.2-1.1.1-1.3.5l-1.4 4.6c0 .5.2 1 .6 1.1zM643.2 195.6c.3.3.9.1 1.2-.3l3-3.7c.3-.4.2-1-.3-1.4-.5-.4-1.1-.3-1.4.1l-2.7 4c-.2.5-.2 1.1.2 1.3zM647 199.5c.3.3.8.4 1.2.1l3.9-2.7c.4-.3.5-.9.1-1.4-.4-.5-1-.6-1.3-.3l-3.7 3c-.3.4-.4.9-.2 1.3zM649.6 204.2c.1.4.7.6 1.1.5l4.6-1.4c.5-.1.7-.7.5-1.3-.2-.6-.7-.8-1.2-.6l-4.4 1.8c-.5.1-.8.6-.6 1zM650.6 209.5c0 .4.5.8 1 .8h4.8c.5 0 .9-.5.9-1.1 0-.6-.5-1-1-1l-4.8.4c-.5.1-.9.5-.9.9z"/><path fill="#54C4CD" d="M304.6 216.7c-1 1.9-3.5 2.7-5.4 1.6-1.9-1-2.7-3.5-1.6-5.4 1-1.9 3.5-2.7 5.4-1.6 1.9 1 2.6 3.5 1.6 5.4z"/><path fill="#EBB65C" d="M326.9 206.8l2.1 8.1-8.1-2.3-8.1-2.3 6.1-5.8 6-5.9z"/><path fill="#54C4CD" d="M602.2 177.3l-6.8 4.7-.6-8.3-.6-8.2 7.4 3.5 7.5 3.6z"/><path fill="#F3D0B4" d="M583.7 197.5l-5.3 3.6-.5-6.3-.4-6.4 5.7 2.8 5.8 2.7z"/><path fill="#EBB65C" d="M382.3 71.8c-.2.8.4 1.7 1.3 2l8.9 2.7c.9.3 2-.4 2.2-1.5.3-1.1-.3-2.2-1.2-2.4l-9.1-2c-.9-.1-1.9.4-2.1 1.2zM378.1 81.5c-.4.7-.1 1.8.7 2.3l7.7 5.3c.8.6 2 .2 2.6-.7.6-1 .4-2.2-.5-2.7l-8.1-4.6c-.9-.5-1.9-.3-2.4.4zM371.3 89.6c-.6.6-.6 1.6 0 2.4l5.8 7.3c.6.8 1.9.9 2.7.1.9-.8 1-2 .3-2.7l-6.4-6.8c-.8-.8-1.8-.9-2.4-.3zM362.3 95.3c-.4.2-.6.5-.8.9-.1.4-.1.9 0 1.3l3.4 8.7c.2.5.6.8 1 1 .5.2 1 .2 1.5-.1 1-.5 1.5-1.6 1.1-2.5l-4.1-8.4c-.3-.9-1.3-1.3-2.1-.9zM352.1 98.1c-.4.1-.8.3-1 .6-.3.3-.4.8-.4 1.3l.7 9.3c0 .5.3.9.7 1.2.4.3.9.5 1.5.4 1.1-.2 1.9-1.1 1.8-2.1l-1.5-9.2c-.1-1-.9-1.7-1.8-1.5zM341.6 97.7c-.8-.1-1.7.5-1.9 1.4l-2.1 9.1c-.2 1 .5 2 1.6 2.2 1.1.2 2.2-.5 2.3-1.5l1.3-9.2c.1-1-.4-1.9-1.2-2zM331.6 94.3c-.4-.2-.8-.2-1.2-.1-.4.1-.8.4-1 .9l-4.7 8.1c-.2.4-.3.9-.1 1.4.2.5.5.9 1 1.2 1 .5 2.2.2 2.6-.7l4-8.4c.4-1 .1-2.1-.6-2.4zM323 88.1c-.6-.6-1.6-.6-2.3.1l-6.8 6.3c-.7.7-.7 1.9.1 2.7.8.8 2.1.8 2.7.1l6.3-6.9c.6-.7.6-1.8 0-2.3zM316.7 79.6c-.4-.8-1.4-1-2.3-.6l-8.4 4c-.9.4-1.2 1.6-.7 2.6.6 1 1.8 1.4 2.6.9l8-4.8c.9-.4 1.2-1.4.8-2.1zM313.1 69.6c-.1-.8-1-1.4-2-1.2l-9.2 1.4c-1 .1-1.6 1.2-1.5 2.3.2 1.1 1.3 1.8 2.2 1.6l9.1-2.2c1-.2 1.6-1.1 1.4-1.9zM312.7 59c.1-.8-.6-1.6-1.5-1.8l-9.2-1.4c-1-.2-1.9.6-2.1 1.8-.1 1.1.7 2.1 1.7 2.2l9.3.6c.9.1 1.7-.6 1.8-1.4zM315.3 48.8c.4-.7-.1-1.7-1-2.1l-8.4-4.1c-.9-.4-2 0-2.5 1.1s0 2.2.9 2.6l8.7 3.3c1.1.3 2-.1 2.3-.8zM320.9 39.8c.6-.6.4-1.7-.3-2.3l-6.8-6.3c-.7-.7-1.9-.5-2.7.3-.4.4-.6.9-.5 1.5 0 .5.2 1 .6 1.3l7.4 5.7c.4.3.9.4 1.3.4.4-.1.8-.3 1-.6zM328.9 32.9c.7-.4.9-1.5.4-2.3l-4.7-8.1c-.5-.9-1.7-1.1-2.7-.5-1 .6-1.3 1.8-.7 2.6l5.3 7.6c.7.8 1.7 1.1 2.4.7zM338.6 28.6c.8-.2 1.3-1.2 1.1-2.1l-2.1-9.1c-.2-1-1.3-1.5-2.4-1.2-1.1.3-1.8 1.3-1.4 2.3l2.8 8.9c.3.8 1.2 1.4 2 1.2zM349.1 27.3c.8 0 1.6-.7 1.7-1.7l.7-9.3c.1-1-.8-1.8-1.9-1.9-.6 0-1.1.2-1.5.5-.4.3-.6.8-.6 1.3l.1 9.3c0 .5.2.9.5 1.3.2.3.6.5 1 .5zM359.5 29.2c.8.3 1.7-.2 2.1-1.2l3.4-8.7c.4-.9-.2-2-1.3-2.4-.5-.2-1.1-.2-1.5 0-.5.2-.8.6-.9 1.1l-2.7 8.9c-.1.5-.1.9.1 1.3.1.6.4.9.8 1zM368.9 34.1c.7.5 1.7.3 2.3-.5l5.8-7.3c.6-.8.4-2-.5-2.6-.9-.7-2.1-.6-2.7.3l-5.2 7.8c-.5.8-.4 1.8.3 2.3zM376.4 41.6c.5.7 1.6.8 2.4.2l7.7-5.3c.8-.6.9-1.8.2-2.7-.7-.9-1.9-1.2-2.6-.5l-7.2 5.9c-.8.7-1 1.7-.5 2.4zM381.4 50.9c.3.8 1.3 1.2 2.2.9l8.9-2.7c1-.3 1.4-1.4 1-2.5-.4-1.1-1.5-1.6-2.4-1.3l-8.6 3.5c-.9.4-1.4 1.3-1.1 2.1zM383.4 61.3c0 .8.9 1.5 1.9 1.5h9.3c1 0 1.8-.9 1.7-2.1-.1-1.1-.9-2-1.9-1.9l-9.3.8c-1 .1-1.7.9-1.7 1.7z"/><path fill="#F3D0B4" d="M592.2 29.5l9.2 4.5-8.4 5.7-8.5 5.7-.7-10.2L583 25z"/><path fill="#54C4CD" d="M610.5 50.7c-1 1.9-3.5 2.7-5.4 1.6-1.9-1-2.7-3.5-1.6-5.4 1-1.9 3.5-2.7 5.4-1.6 2 1 2.7 3.4 1.6 5.4z"/><g><g fill="#54C4CD"><path d="M273.9 180.7l.3-2c1.6.2 3.3.2 4.9-.1l.4 2c-1.9.3-3.8.4-5.6.1zm8.9-1.1l-.8-1.9c1.5-.6 3-1.5 4.2-2.6l1.3 1.5c-1.3 1.3-2.9 2.3-4.7 3zM291.4 165.5c.2-1.6.2-3.3-.1-4.9l2-.4c.4 1.8.4 3.7.2 5.6l-2.1-.3zm-1-7.9c-.6-1.5-1.5-3-2.6-4.2l1.5-1.3c1.2 1.4 2.2 3 2.9 4.8l-1.8.7zM266.1 151.9l-1.3-1.5c1.4-1.2 3-2.2 4.8-2.9l.8 1.9c-1.6.5-3 1.4-4.3 2.5zm7.2-3.5l-.4-2c1.9-.4 3.7-.4 5.6-.2l-.3 2c-1.6-.2-3.3-.1-4.9.2zM263 174.9c-1.2-1.4-2.2-3-2.9-4.8l1.9-.8c.6 1.5 1.5 3 2.6 4.2l-1.6 1.4zm-3.9-8.1c-.4-1.9-.4-3.7-.2-5.6l2 .3c-.2 1.6-.2 3.3.1 4.9l-1.9.4zM267.9 178.8c-.8-.4-1.6-1-2.4-1.5l1.2-1.6c1.3 1 2.8 1.8 4.4 2.4l-.7 1.9c-.8-.4-1.6-.7-2.5-1.2zm-8.1-21c.3-.9.7-1.7 1.1-2.6.4-.8 1-1.6 1.5-2.4l1.6 1.2c-.5.7-1 1.4-1.3 2.1-.4.7-.7 1.5-1 2.3l-1.9-.6zm30.2 16.3l-1.6-1.2c.5-.7 1-1.4 1.4-2.1.4-.7.7-1.5 1-2.3l1.9.7c-.3.9-.7 1.7-1.1 2.6-.6.8-1.1 1.6-1.6 2.3zm-4.4-22.8c-1.3-1-2.8-1.8-4.4-2.4l.7-1.9c1.8.6 3.4 1.5 4.9 2.7l-1.2 1.6z"/></g></g><path fill="#F3D0B4" d="M675.2 211.8c-.8 1.4-2.5 1.9-3.9 1.2s-1.9-2.5-1.2-3.9 2.5-1.9 3.9-1.2c1.4.8 1.9 2.5 1.2 3.9z"/><path fill="#EBB65C" d="M203 184.5c-.8 1.4-2.5 1.9-3.9 1.2s-1.9-2.5-1.2-3.9 2.5-1.9 3.9-1.2c1.5.8 2 2.5 1.2 3.9z"/><path fill="#F3D0B4" d="M592.5 103.5c.3.1.5.1.8.1.9 0 1.8-.6 2.1-1.5l4.1-11.1c.4-1.2-.2-2.5-1.4-2.9-1.2-.4-2.5.2-2.9 1.4l-4.1 11.1c-.4 1.1.2 2.4 1.4 2.9zM608.5 112.4c.7 0 1.3-.3 1.8-.8l7.6-9.1c.8-1 .7-2.4-.3-3.2-1-.8-2.4-.7-3.2.3l-7.6 9.1c-.8 1-.7 2.4.3 3.2.4.3.9.5 1.4.5zM617.9 124.8c.4.7 1.2 1.1 2 1.1.4 0 .8-.1 1.1-.3l10.3-5.9c1.1-.6 1.5-2 .8-3.1-.6-1.1-2-1.5-3.1-.8l-10.3 5.9c-1.1.6-1.5 2-.8 3.1zM575.9 100.5c1.3 0 2.3-1 2.3-2.3V86.4c0-1.3-1-2.3-2.3-2.3-1.3 0-2.3 1-2.3 2.3v11.9c0 1.2 1 2.2 2.3 2.2z"/><g><circle fill-rule="evenodd" clip-rule="evenodd" fill="#F3D0B4" cx="264.8" cy="87.2" r="5.3"/><path fill="#E2E2E1" d="M264.8 99.7c-6.7 0-12.2-5.5-12.2-12.2s5.5-12.2 12.2-12.2c6.7 0 12.2 5.5 12.2 12.2s-5.4 12.2-12.2 12.2zm0-21.4c-5.1 0-9.2 4.1-9.2 9.2s4.1 9.2 9.2 9.2 9.2-4.1 9.2-9.2-4.1-9.2-9.2-9.2z"/></g><path fill="#E2E2E1" d="M210 172.3c.3-6 3.6-13.8 8.4-19.9 2.6-3.3 3.8-6.6 3.8-8.6 0-6.8-5.5-12.4-12.2-12.4-6.8 0-12.2 5.6-12.2 12.4 0 2 1.2 5.2 3.8 8.6 4.8 6.1 8.1 14 8.4 19.9z"/><circle fill="#54C4CD" cx="209.9" cy="143.4" r="5.2"/><circle fill-rule="evenodd" clip-rule="evenodd" fill="#F3D0B4" cx="702.8" cy="170.2" r="5.3"/><path fill="#E2E2E1" d="M702.8 182.7c-6.7 0-12.2-5.5-12.2-12.2 0-6.7 5.5-12.2 12.2-12.2 6.7 0 12.2 5.5 12.2 12.2 0 6.7-5.4 12.2-12.2 12.2zm0-21.4c-5.1 0-9.2 4.1-9.2 9.2s4.1 9.2 9.2 9.2 9.2-4.1 9.2-9.2c0-5-4.1-9.2-9.2-9.2z"/><g fill="#E2E2E1"><path d="M664.6 113.4l.2-1.7c1.4.2 2.9.1 4.3-.1l.3 1.7c-1.5.3-3.2.3-4.8.1zm7.7-1l-.7-1.6c1.3-.6 2.6-1.3 3.7-2.2l1.1 1.3c-1.1 1-2.5 1.9-4.1 2.5zM679.8 100.2c.2-1.4.1-2.9-.1-4.3l1.7-.3c.3 1.6.4 3.2.1 4.9l-1.7-.3zm-.9-6.8c-.5-1.3-1.3-2.6-2.2-3.7l1.3-1.1c1.1 1.2 1.9 2.6 2.5 4.1l-1.6.7zM657.9 88.4l-1.1-1.3c1.2-1.1 2.6-1.9 4.1-2.5l.7 1.6c-1.4.5-2.6 1.3-3.7 2.2zm6.2-3l-.3-1.7c1.6-.3 3.2-.4 4.9-.1l-.2 1.7c-1.6-.2-3-.2-4.4.1zM655.2 108.4c-1.1-1.2-1.9-2.6-2.5-4.1l1.6-.7c.5 1.3 1.3 2.6 2.2 3.7l-1.3 1.1zm-3.4-7.1c-.3-1.6-.4-3.2-.1-4.9l1.7.2c-.2 1.4-.1 2.9.1 4.3l-1.7.4zM659.4 111.7c-.7-.4-1.4-.8-2-1.3l1.1-1.4c1.1.9 2.4 1.6 3.8 2l-.6 1.7c-.8-.2-1.5-.6-2.3-1zm-7-18.2c.3-.8.6-1.5 1-2.2.4-.7.8-1.4 1.3-2l1.4 1.1-1.2 1.8c-.3.6-.6 1.3-.9 2l-1.6-.7zm26.2 14.2l-1.4-1.1 1.2-1.8c.3-.6.6-1.3.9-2l1.7.6c-.3.8-.6 1.5-1 2.2-.5.8-1 1.4-1.4 2.1zm-3.9-19.8c-1.1-.9-2.4-1.6-3.8-2l.6-1.7c1.5.5 3 1.3 4.3 2.3l-1.1 1.4z"/></g><path fill="#E2E2E1" stroke="#E2E2E1" stroke-width="3" stroke-miterlimit="10" stroke-dasharray="4,3" d="M123.5 112.5h190M542 148.6l257.7-.1"/><g><path fill="#50565F" d="M563.5 189c0 4.7-3.8 8.5-8.5 8.5H352.2c-4.7 0-8.5-3.8-8.5-8.5V64.4c0-4.7 3.8-8.5 8.5-8.5H555c4.7 0 8.5 3.8 8.5 8.5V189z"/><path fill="#FFF" d="M355.9 69.4h195.5v106.7H355.9zM458.8 187c0 2.8-2.3 5.1-5.1 5.1s-5.1-2.3-5.1-5.1 2.3-5.1 5.1-5.1 5.1 2.3 5.1 5.1z"/><path fill="#50565F" d="M424.9 201.2h57.4V227h-57.4zM405.9 230.6h95.5v6.4h-95.5z"/><path fill-rule="evenodd" clip-rule="evenodd" fill="#54C4CD" d="M454 0c3-.1 4.5.2 7.5.8 6.1 1.2 11.7 3.6 16.7 7.2 5.5 4 9.6 9.1 12.2 15.4 2 4.9 2.7 10 2.7 15.2v2.5c-.1 2.5-.4 5-.9 7.5-1.1 5.6-3.1 10.9-5.9 15.8-1.7 3-3.5 5.9-5.3 8.8-1.3 2.1-2.5 4.3-3.1 6.7-.9 3.3-1.2 6.7-1.6 10-.2 1.6-.4 3.2-.9 4.7-1 3-2.9 4-5.4 4h-31.6c-2.5 0-4.4-1-5.5-4-.5-1.5-.7-3.1-.9-4.7-.4-3.4-.7-6.7-1.6-10-.7-2.4-1.9-4.6-3.1-6.7-1.8-3-3.6-5.9-5.3-8.8-2.8-5-4.9-10.2-5.9-15.8-.5-2.5-.8-5-.9-7.5v-2.5c-.1-5.2.7-10.3 2.7-15.2C420.3 17.1 424.5 12 430 8c5.1-3.6 10.7-5.9 16.7-7.2 2.9-.6 4.5-.9 7.4-.8"/><g fill="#FFF"><path d="M454 37.5c.9.9 1.6 1.9 2.2 3.1.6 1.2 1.1 2.4 1.3 3.7.3 1.3.4 2.6.3 3.9-.1 1.3-.3 2.6-.8 3.7-.5 1.3-1.2 2.3-2 3.1-.8.8-1.7 1.3-2.7 1.5l-5.4 1.2 9.1 42.8c.1.5 0 .9-.2 1.3-.3.4-.6.6-1.1.7-.4.1-.9 0-1.3-.2s-.6-.6-.8-1.1l-13.3-62.4c-.1-.7 0-1.2.5-1.7.2-.2.5-.4.8-.5l7-1.5c1-.2 2.1-.1 3.1.3 1.3.5 2.3 1.2 3.3 2.1zm-.2 13.2c.3-.8.5-1.8.6-2.8.1-1 0-2-.2-3s-.5-1.9-1-2.8c-.5-.9-1-1.6-1.6-2.3-.5-.6-1-.9-1.6-1.2-.5-.2-1-.3-1.4-.2l-5.4 1.2 3.1 14.7 5.4-1.2c.4-.1.8-.4 1.2-.8.3-.3.7-.8.9-1.6z"/><path d="M472.3 57.7c.5 1.1.8 2.4 1 3.7.2 1.3.2 2.6 0 3.9-.2 1.3-.6 2.6-1.1 3.8-.5 1.2-1.2 2.3-2 3.2-.9 1-1.9 1.8-2.9 2.2-1.1.5-2.1.6-3.1.5l-5.5-.8-6.5 43.2c-.1.5-.3.9-.7 1.1-.4.3-.8.4-1.3.3-.5-.1-.8-.3-1.1-.7-.3-.4-.4-.8-.3-1.3l9.5-63.1c.1-.7.5-1.1 1.1-1.4.2-.2.6-.2.9-.2l7.1 1.1c1 .2 2 .6 2.8 1.4.8.9 1.5 1.9 2.1 3.1zM467.4 70c.6-.7 1.1-1.5 1.5-2.4.4-.9.7-1.9.8-2.9.2-1 .2-1.9 0-2.9-.1-1-.4-1.9-.7-2.7-.3-.7-.6-1.3-1.1-1.7-.4-.4-.8-.6-1.3-.7l-5.5-.8-2.1 14.9 5.5.8c.4.1.9 0 1.4-.3.5-.3 1-.7 1.5-1.3z"/></g><path fill-rule="evenodd" clip-rule="evenodd" fill="#54C4CD" d="M437.3 115c-1.2 0-2-.8-2.1-1.9 0-1.1.8-1.9 1.9-2 2.1-.2 4.2-.4 6.3-.5 1.7-.2 3.4-.3 5.2-.4 1.8-.1 3.5-.3 5.3-.5 1.7-.2 3.4-.3 5.1-.4 1.8-.2 3.6-.3 5.4-.5 1.7-.1 3.5-.3 5.2-.4.5 0 .9-.1 1.4-.1 1 0 1.7.7 1.8 1.7.1.9-.5 1.9-1.5 2l-2.4.3c-1.8.2-3.6.3-5.4.5-1.7.2-3.5.3-5.2.4-1.8.2-3.5.3-5.3.5-1.7.1-3.4.3-5.1.4-1.8.2-3.6.3-5.4.5-1.8.1-3.5.3-5.2.4zM435.3 123.7c0-1 .7-1.8 1.8-1.9 3.4-.3 6.7-.6 10.1-.9 2.7-.2 5.4-.4 8.2-.7 3-.3 6-.5 9-.8 2.2-.2 4.3-.4 6.5-.5 1.1-.1 2 .6 2.1 1.7.1 1.1-.6 2-1.7 2.1-1.5.2-3 .3-4.5.4-1.8.2-3.6.3-5.3.5-1.7.2-3.4.3-5.1.4-1.8.2-3.6.3-5.4.5-1.7.2-3.4.3-5.2.4-1.8.1-3.5.3-5.3.5-1 .1-2.1.2-3.1.3-1.2 0-2.1-.9-2.1-2zM437.8 120.2c-1.4.1-2.2-.4-2.5-1.2-.3-.8 0-1.8.7-2.2.3-.2.7-.3 1.1-.4 2.1-.2 4.1-.4 6.2-.5 2.1-.2 4.2-.4 6.2-.5 2.1-.2 4.1-.3 6.2-.5 2.1-.2 4.1-.4 6.2-.6 2-.2 4.1-.3 6.1-.5.8-.1 1.6-.1 2.4-.2.9-.1 1.7.2 2.1 1 .4.7.3 1.5-.2 2.1-.3.4-.7.7-1.2.7-2 .2-4 .3-5.9.5-2.1.2-4.1.4-6.2.5-1.7.2-3.5.3-5.2.4-2.1.2-4.1.4-6.2.5-1.7.1-3.5.3-5.2.4-1.6.3-3.3.4-4.6.5zM472.9 104.8c0 1-.7 1.8-1.8 1.9-3.2.3-6.4.5-9.6.8l-10.5.9c-3 .3-6 .5-9.1.8-1.6.1-3.2.3-4.8.4-1 .1-1.9-.7-2-1.7-.1-1 .7-2 1.6-2.1 2.6-.2 5.1-.4 7.7-.7 2.4-.2 4.8-.4 7.1-.6 2.1-.2 4.1-.3 6.2-.5l7.2-.6c1.9-.2 3.9-.3 5.9-.5 1.2-.1 2.1.9 2.1 1.9zM463.7 129.8c-2.4 2.3-4.8 4.3-8 5.2-.5.1-1 .3-1.6.3-.5 0-1-.2-1.5-.3-1.9-.4-3.5-1.4-5.1-2.5-1-.7-1.9-1.5-2.8-2.3-.1-.1-.1-.2-.3-.3 6.5-.1 12.8-.1 19.3-.1z"/><text transform="translate(368.442 162.64)" fill="#54C4CD" font-family="'RobotoSlab-Bold'" font-size="21.585">the people’s plan</text></g><path fill="#E2E2E1" stroke="#E2E2E1" stroke-width="3" stroke-miterlimit="10" stroke-dasharray="4,3" d="M0 236.6l292.6-.2M698.5 76.5h164"/><path fill="#F3D0B4" d="M108.5 197.6c-.3.1-.5.1-.8.1-.9 0-1.8-.6-2.1-1.5l-4.1-11.1c-.4-1.2.2-2.5 1.4-2.9 1.2-.4 2.5.2 2.9 1.4l4.1 11.1c.4 1.2-.3 2.5-1.4 2.9zM92.4 206.5c-.7 0-1.3-.3-1.8-.8l-7.6-9.1c-.8-1-.7-2.4.3-3.2 1-.8 2.4-.7 3.2.3l7.6 9.1c.8 1 .7 2.4-.3 3.2-.3.4-.9.5-1.4.5zM83.1 218.9c-.4.7-1.2 1.1-2 1.1-.4 0-.8-.1-1.1-.3l-10.3-5.9c-1.1-.6-1.5-2-.8-3.1.6-1.1 2-1.5 3.1-.8l10.3 5.9c1 .6 1.4 2 .8 3.1zM125 194.7c-1.3 0-2.3-1-2.3-2.3v-11.9c0-1.3 1-2.3 2.3-2.3 1.3 0 2.3 1 2.3 2.3v11.9c0 1.2-1 2.3-2.3 2.3z"/><g><path fill="#E2E2E1" d="M838.4 147.4c.5.7 1.6.9 2.4.3l7.9-5c.8-.5 1-1.7.4-2.6-.6-.9-1.8-1.2-2.6-.6l-7.6 5.4c-.8.7-1 1.8-.5 2.5zM843.7 157.5c.4.8 1.3 1.3 2.2.9l8.8-3.1c.9-.3 1.5-1.5 1-2.5-.4-1-1.5-1.6-2.5-1.2l-8.6 3.6c-.8.5-1.3 1.5-.9 2.3zM846.5 168.4c.1.9 1 1.5 2 1.4l9.3-1c1-.1 1.7-1.1 1.6-2.2-.1-1.1-1.1-1.9-2.1-1.7l-9.2 1.6c-1.1.2-1.6 1-1.6 1.9zM846.8 179.7c-.1.9.7 1.7 1.7 1.8l9.3 1.1c1 .1 1.9-.7 2-1.8.1-1.1-.6-2.1-1.6-2.1l-9.3-.5c-1.1-.1-2 .6-2.1 1.5zM844.7 190.8c-.2.9.2 1.8 1.2 2.1l8.8 3.1c.9.3 2.1-.2 2.3-1.3.3-1.1-.2-2.2-1.2-2.4l-9-2.5c-.9-.3-1.9.2-2.1 1zM840.1 201.2c-.5.8-.2 1.8.7 2.3l7.9 5c.8.5 2 .2 2.6-.8.6-.9.3-2.2-.6-2.6l-8.2-4.4c-.9-.6-1.9-.3-2.4.5zM833.3 210.2c-.6.6-.5 1.7.2 2.4l6.6 6.6c.7.7 1.9.6 2.7-.2.8-.8.8-2 0-2.7l-7-6.2c-.8-.5-1.9-.5-2.5.1zM824.6 217.6c-.7.5-1 1.7-.5 2.5l5 7.9c.5.8 1.8.9 2.7.3.9-.6 1.3-1.9.7-2.7L827 218c-.6-.7-1.7-.9-2.4-.4zM814.7 222.8c-.8.4-1.3 1.3-.9 2.2l3.1 8.8c.3.9 1.5 1.5 2.5 1 1-.4 1.6-1.5 1.2-2.5l-3.6-8.6c-.5-.8-1.5-1.3-2.3-.9zM803.7 225.6c-.9.1-1.5 1-1.4 2l1 9.3c.1 1 1.1 1.7 2.2 1.6 1.1-.1 1.9-1.1 1.7-2.1l-1.6-9.2c-.1-1-1-1.6-1.9-1.6zM792.4 226c-.9-.1-1.7.7-1.8 1.7l-1.1 9.3c-.1 1 .7 1.9 1.8 2 1.1.1 2.1-.6 2.1-1.6l.5-9.3c.1-1.2-.6-2.1-1.5-2.1zM781.3 223.8c-.9-.2-1.8.2-2.1 1.2l-3.1 8.8c-.3.9.2 2.1 1.3 2.3 1.1.3 2.2-.2 2.4-1.2l2.5-9c.4-.9-.1-1.9-1-2.1zM771 219.2c-.8-.5-1.8-.2-2.3.7l-5 7.9c-.5.8-.2 2 .8 2.6.9.6 2.2.3 2.6-.6l4.4-8.2c.5-.9.2-1.9-.5-2.4zM761.9 212.4c-.6-.6-1.7-.5-2.4.2l-6.6 6.6c-.7.7-.6 1.9.2 2.7.8.8 2 .8 2.7 0l6.2-7c.6-.8.6-1.9-.1-2.5zM754.6 203.8c-.5-.7-1.6-.9-2.5-.4l-7.9 5c-.8.5-1 1.7-.3 2.7.6.9 1.8 1.2 2.6.6l7.6-5.5c.8-.6 1-1.7.5-2.4z"/></g><path fill="#E2E2E1" stroke="#E2E2E1" stroke-width="3" stroke-miterlimit="10" stroke-dasharray="4,3" d="M62.5 65.5h95"/><circle fill-rule="evenodd" clip-rule="evenodd" fill="#FFF" cx="181" cy="65" r="10.7"/><path fill="#E2E2E1" d="M181 89.9c-13.4 0-24.4-10.9-24.4-24.4 0-13.4 10.9-24.4 24.4-24.4 13.4 0 24.4 10.9 24.4 24.4 0 13.5-10.9 24.4-24.4 24.4zm0-42.7c-10.1 0-18.3 8.2-18.3 18.3 0 10.1 8.2 18.3 18.3 18.3s18.3-8.2 18.3-18.3c0-10.1-8.2-18.3-18.3-18.3z"/><path fill="#FFF" d="M102 104.7c.1 2.4-1.7 4.5-4.1 4.7-2.4.1-4.5-1.7-4.7-4.2-.1-2.4 1.7-4.5 4.2-4.7 2.3-.1 4.4 1.7 4.6 4.2z"/><path fill="#54C4CD" d="M109.1 80.4l8.8-2.9-1.9 9.1-1.8 9.1-7-6.1-7-6.2z"/><path fill="#FFF" d="M720.5 102.4c.5-10.2 6.2-23.7 14.4-34.2 4.5-5.7 6.5-11.3 6.5-14.6 0-11.7-9.4-21.2-21-21.2s-21 9.5-21 21.2c0 3.4 2.1 8.9 6.5 14.6 8.2 10.5 13.8 23.9 14.4 34.2h.2z"/><circle fill="#54C4CD" cx="720.3" cy="52.8" r="8.9"/><path fill="#FFF" d="M784.6 188.9l11.3-8.7 2 14.1 1.9 14.2-13.2-5.4-13.3-5.4zM156.8 270c.5-10.2 6.2-23.7 14.4-34.2 4.5-5.7 6.5-11.3 6.5-14.6 0-11.7-9.4-21.2-21-21.2s-21 9.5-21 21.2c0 3.4 2.1 8.9 6.5 14.6 8.2 10.5 13.8 23.9 14.4 34.2h.2z"/><circle fill="#54C4CD" cx="156.5" cy="220.4" r="8.9"/><path fill="#F3D0B4" d="M810.1 52.4c.1 2.4-1.7 4.5-4.1 4.7-2.4.1-4.5-1.7-4.7-4.2-.1-2.4 1.7-4.5 4.2-4.7 2.4-.1 4.4 1.8 4.6 4.2z"/><path fill="#EBB65C" d="M817.2 28.2l8.8-3-1.9 9.1-1.8 9.2-7-6.2-7-6.2z"/></svg>