<svg xmlns="http://www.w3.org/2000/svg" width="88.5" height="88.5" viewBox="0 0 88.5 88.5"><circle fill="none" stroke="#F3D0B4" stroke-width="3.47" stroke-miterlimit="10" cx="44.3" cy="44.3" r="42.5"/><path clip-rule="evenodd" fill="none" stroke="#F3D0B4" stroke-width="3.47" stroke-miterlimit="10" d="M18.7 45.6c0-.1.1-.3.1-.4.3-1.2 1.3-2 2.8-2 1.5-.1 2.9.3 4.2.8 3 1 5.9 2.5 8.8 4 .2.1.3.2.5.3.9-1 1.7-2 2.6-3 2.2-2.5 4.4-4.9 6.6-7.4 3.4-3.7 6.9-7.3 10.6-10.6 2.2-2 4.5-4 7.1-5.6 1.2-.8 2.5-1.4 4-1.6h.9l.1.1c1 .2 1.8.6 2 1.7v.6c-.3.9-.9 1.6-1.6 2.3-1.7 1.7-3.5 3.4-5.2 5.1-7.1 7.1-12.9 15.2-17.6 23.9-2.5 4.7-4.8 9.5-6.8 14.4-.2.6-.5 1-1.1 1.2h-.6c-.5-.2-.8-.6-1.1-1.1-1.6-2.6-3.1-5.3-4.8-7.9-2.8-4.5-6.1-8.6-10-12.2-.6-.6-1.3-1-1.7-1.8.2-.3.2-.6.2-.8z"/></svg>