<svg xmlns="http://www.w3.org/2000/svg" width="396" height="250" viewBox="0 0 396 250"><g fill="#54C4CD"><path d="M271.7 178.8l.2-1.3c1.1.1 2.1.1 3.2-.1l.2 1.3c-1.1.3-2.4.3-3.6.1zm5.8-.7l-.5-1.2c1-.4 1.9-1 2.7-1.7l.9 1c-.9.8-1.9 1.4-3.1 1.9zM283.1 169c.1-1.1.1-2.2-.1-3.2l1.3-.2c.2 1.2.3 2.4.1 3.6l-1.3-.2zm-.6-5.2c-.4-1-1-1.9-1.7-2.7l1-.9c.8.9 1.4 2 1.9 3.1l-1.2.5zM266.7 160.1l-.9-1c.9-.8 2-1.4 3.1-1.9l.5 1.2c-1 .4-1.9 1-2.7 1.7zm4.6-2.3l-.2-1.3c1.2-.2 2.4-.3 3.6-.1l-.2 1.3c-1-.1-2.1-.1-3.2.1zM264.7 175c-.8-.9-1.4-2-1.9-3.1l1.2-.5c.4 1 1 1.9 1.7 2.7l-1 .9zm-2.6-5.2c-.2-1.2-.3-2.4-.1-3.6l1.3.2c-.1 1.1-.1 2.2.1 3.2l-1.3.2zM267.9 177.6c-.5-.3-1.1-.6-1.5-1l.8-1c.8.7 1.8 1.2 2.8 1.5l-.4 1.2c-.6-.2-1.2-.4-1.7-.7zm-5.3-13.7c.2-.6.4-1.1.7-1.7.3-.5.6-1.1 1-1.5l1 .8c-.3.4-.6.9-.9 1.4-.3.5-.5 1-.7 1.5l-1.1-.5zm19.6 10.6l-1-.8c.3-.4.6-.9.9-1.4.3-.5.5-1 .7-1.5l1.2.4c-.2.6-.4 1.1-.7 1.7-.4.6-.8 1.2-1.1 1.6zm-2.9-14.8c-.8-.7-1.8-1.2-2.8-1.5l.4-1.2c1.1.4 2.2 1 3.2 1.7l-.8 1z"/></g><path fill="#54C4CD" d="M193.2 249c-2.2 1.6-5.3 1.1-6.9-1.1-1.6-2.2-1.1-5.3 1.1-6.9 2.2-1.6 5.3-1.1 6.9 1.1 1.6 2.2 1.1 5.3-1.1 6.9z"/><path fill="#F3D0B4" d="M209 225.8l-2.1 10.2-7.8-6.9-7.7-6.9 9.8-3.3 9.8-3.2z"/><g fill="#54C4CD"><path d="M33.9 49.5l.3-1.9c1.6.2 3.2.2 4.8-.1l.4 1.9c-1.9.3-3.7.3-5.5.1zm8.6-1.1l-.7-1.8c1.5-.6 2.8-1.4 4.1-2.5l1.3 1.5c-1.5 1.1-3 2.1-4.7 2.8zM50.8 34.9c.2-1.6.2-3.2-.1-4.8l1.9-.4c.3 1.8.4 3.6.2 5.4l-2-.2zm-1-7.6c-.6-1.5-1.4-2.8-2.5-4.1l1.5-1.3c1.2 1.4 2.1 2.9 2.8 4.6l-1.8.8zM26.5 21.7l-1.3-1.5c1.4-1.2 2.9-2.1 4.6-2.8l.7 1.8c-1.5.6-2.8 1.5-4 2.5zm6.9-3.3l-.4-1.9c1.8-.3 3.6-.4 5.4-.2l-.3 1.9c-1.6-.2-3.2-.1-4.7.2zM23.5 43.9c-1.2-1.4-2.1-2.9-2.8-4.6l1.8-.7c.6 1.5 1.4 2.8 2.5 4.1l-1.5 1.2zm-3.8-7.8c-.3-1.8-.4-3.6-.2-5.4l1.9.3c-.2 1.6-.2 3.2.1 4.8l-1.8.3zM28.2 47.6c-.8-.4-1.6-.9-2.3-1.5l1.2-1.5c1.2 1 2.7 1.7 4.2 2.3l-.6 1.8c-.9-.3-1.7-.7-2.5-1.1zm-7.9-20.2c.3-.8.7-1.7 1.1-2.5.4-.8.9-1.6 1.5-2.3l1.5 1.2c-.5.6-.9 1.3-1.3 2s-.7 1.4-1 2.2l-1.8-.6zm29.1 15.7l-1.5-1.2c.5-.6.9-1.3 1.3-2s.7-1.4 1-2.2l1.8.6c-.3.8-.7 1.7-1.1 2.5-.5.8-1 1.6-1.5 2.3zm-4.2-21.9c-1.3-1-2.7-1.7-4.2-2.3l.6-1.8c1.7.6 3.3 1.5 4.7 2.6l-1.1 1.5z"/></g><path fill="#EBB65C" d="M50.1 84.6c-1 1.8-3.2 2.4-4.9 1.5-1.8-1-2.4-3.2-1.5-5 1-1.8 3.2-2.4 5-1.5 1.7 1 2.3 3.2 1.4 5z"/><path fill="#54C4CD" d="M19.8 146.6c-1 1.9-3.5 2.7-5.4 1.6-1.9-1-2.7-3.5-1.6-5.4 1-1.9 3.5-2.7 5.4-1.6 2 1.1 2.7 3.5 1.6 5.4z"/><path fill="#EBB65C" d="M42.2 136.7l2 8.2-8.1-2.3-8-2.4 6-5.8 6.1-5.8z"/><path fill="#54C4CD" d="M196 16.1l-9.2 6.3-.9-11.2-.8-11.2 10.1 4.9 10.1 4.8z"/><path fill="#F3D0B4" d="M171 33.1l-4.7 3.2-.4-5.6-.4-5.6 5 2.4 5.1 2.5z"/><path fill="#E2E2E1" stroke="#E2E2E1" stroke-width="3" stroke-miterlimit="10" stroke-dasharray="4,3" d="M159 197.3h190M0 65.3h203"/><path fill="#54C4CD" d="M169.6 166.6l-13.9 3.9-7.2-25.5 13.9-3.9 9.7 20c1 1.8.4 4.1-1.4 5.1-.4.2-.7.3-1.1.4z"/><path fill="#EBB65C" d="M156.4 233.4l20.4-5.8c.9-.3 1.5-1.2 1.2-2.1l-23.3-82.2-38.5 10.9 38.1 78.3c.4.7 1.3 1.1 2.1.9z"/><path fill="#50565F" d="M207.6 38.6c4.5 15.9-28 39-70.5 51.1l1.4 5 16.4 57.9c42.6-12 82.3-9.4 86.8 6.5l10.1-2.9-32.7-115.4-1.4-5-10.1 2.8z"/><path fill="#E2E2E1" stroke="#E2E2E1" stroke-width="1.9319227199999998" stroke-miterlimit="10" d="M251.733 156.069l-10.103 2.858-34.025-120.275 10.103-2.858z"/><ellipse transform="rotate(-105.807 101.06 133.761)" fill="#54C4CD" cx="101.1" cy="133.8" rx="27.7" ry="27.6"/><path fill="#E2E2E1" d="M110 162.9c1 3.5 4.6 5.5 8.1 4.5l38.6-10.9c4.6-1.3 7.3-6.1 6-10.7l-15.4-54.5c-1.3-4.6-6.1-7.3-10.7-6L97.9 96.2c-3.5 1-5.5 4.6-4.5 8.1l16.6 58.6z"/><path fill="#54C4CD" stroke="#54C4CD" stroke-width="5.795" stroke-miterlimit="10" d="M246.3 68.3c-.3-.1-.5-.2-.7-.5-.4-.6-.3-1.4.3-1.8l20.4-15c.6-.4 1.4-.3 1.9.3.4.6.3 1.4-.3 1.8l-20.4 15c-.4.3-.8.3-1.2.2zM258.5 113.4c-.1-.2-.2-.5-.2-.8.1-.7.8-1.2 1.5-1.1l25.1 3.4c.7.1 1.2.8 1.1 1.5-.1.7-.8 1.2-1.5 1.1l-25.1-3.4c-.3-.1-.7-.3-.9-.7zM260.2 89.5c-.2-.2-.4-.4-.5-.7-.2-.7.2-1.4.9-1.6l24.5-6.5c.7-.2 1.4.2 1.6.9.2.7-.2 1.4-.9 1.6l-24.5 6.5c-.4.2-.8.1-1.1-.2z"/><path fill="#E2E2E1" stroke="#E2E2E1" stroke-width="3" stroke-miterlimit="10" stroke-dasharray="4,3" d="M317 167.3h79"/><path fill="#FFF" d="M52.1 239.2c.5-10.2 6.2-23.7 14.4-34.2 4.5-5.7 6.5-11.3 6.5-14.6 0-11.7-9.4-21.2-21-21.2s-21 9.5-21 21.2c0 3.4 2.1 8.9 6.5 14.6 8.2 10.5 13.8 23.9 14.4 34.2h.2z"/><circle fill="#54C4CD" cx="51.9" cy="189.6" r="8.9"/><g><circle fill-rule="evenodd" clip-rule="evenodd" fill="#F3D0B4" cx="321.2" cy="142.8" r="7.5"/><path fill="#E2E2E1" d="M321.2 160.3c-9.4 0-17.1-7.7-17.1-17.1s7.7-17.1 17.1-17.1 17.1 7.7 17.1 17.1-7.7 17.1-17.1 17.1zm0-29.9c-7.1 0-12.8 5.7-12.8 12.8 0 7.1 5.7 12.8 12.8 12.8 7.1 0 12.8-5.7 12.8-12.8 0-7-5.7-12.8-12.8-12.8z"/></g></svg>