<?xml version="1.0" encoding="utf-8"?>
<!-- Generator: Adobe Illustrator 18.0.0, SVG Export Plug-In . SVG Version: 6.00 Build 0)  -->
<!DOCTYPE svg PUBLIC "-//W3C//DTD SVG 1.1//EN" "http://www.w3.org/Graphics/SVG/1.1/DTD/svg11.dtd">
<svg version="1.1" id="Layer_1" xmlns="http://www.w3.org/2000/svg" xmlns:xlink="http://www.w3.org/1999/xlink" x="0px" y="0px"
	 viewBox="0 0 396 250" enable-background="new 0 0 396 250" xml:space="preserve">
<g>
	<path fill="#54C4CD" d="M124.3,178.8c-1.2,0.2-2.5,0.2-3.6-0.1l0.2-1.3c1.1,0.2,2.1,0.2,3.2,0.1L124.3,178.8L124.3,178.8z
		 M115.4,176.2l0.9-1c0.8,0.7,1.7,1.3,2.7,1.7l-0.5,1.2C117.3,177.6,116.3,177,115.4,176.2z M112.9,169l-1.3,0.2
		c-0.2-1.2-0.1-2.4,0.1-3.6l1.3,0.2C112.8,166.8,112.8,167.9,112.9,169L112.9,169z M113.5,163.8l-1.2-0.5c0.5-1.1,1.1-2.2,1.9-3.1
		l1,0.9C114.5,161.9,113.9,162.8,113.5,163.8L113.5,163.8z M126.6,158.4l0.5-1.2c1.1,0.5,2.2,1.1,3.1,1.9l-0.9,1
		C128.5,159.4,127.6,158.8,126.6,158.4z M124.7,157.8c-1.1-0.2-2.2-0.2-3.2-0.1l-0.2-1.3c1.2-0.2,2.4-0.1,3.6,0.1L124.7,157.8
		L124.7,157.8z M131.3,175l-1-0.9c0.7-0.8,1.3-1.7,1.7-2.7l1.2,0.5C132.7,173,132.1,174.1,131.3,175L131.3,175z M133.9,169.8
		l-1.3-0.2c0.2-1,0.2-2.1,0.1-3.2l1.3-0.2C134.2,167.4,134.1,168.6,133.9,169.8L133.9,169.8z M128.1,177.6c-0.5,0.3-1.1,0.5-1.7,0.7
		l-0.4-1.2c1-0.3,2-0.8,2.8-1.5l0.8,1C129.2,177,128.6,177.3,128.1,177.6L128.1,177.6z M132.3,164.4c-0.2-0.5-0.4-1-0.7-1.5
		s-0.6-1-0.9-1.4l1-0.8c0.4,0.4,0.7,1,1,1.5c0.3,0.6,0.5,1.1,0.7,1.7L132.3,164.4z M112.7,172.9c-0.3-0.6-0.5-1.1-0.7-1.7l1.2-0.4
		c0.2,0.5,0.4,1,0.7,1.5s0.6,1,0.9,1.4l-1,0.8C113.5,174.1,113.1,173.5,112.7,172.9z M116.7,159.7l-0.8-1c1-0.7,2.1-1.3,3.2-1.7
		l0.4,1.2C118.5,158.5,117.5,159,116.7,159.7L116.7,159.7z"/>
</g>
<path fill="#54C4CD" d="M201.7,242.1c1.6-2.2,4.7-2.7,6.9-1.1c2.2,1.6,2.7,4.7,1.1,6.9c-1.6,2.2-4.7,2.7-6.9,1.1
	C200.6,247.4,200.1,244.3,201.7,242.1z"/>
<path fill="#F3D0B4" d="M185,215.7l9.8,3.2l9.8,3.3l-7.7,6.9l-7.8,6.9l-2.1-10.2L185,215.7z"/>
<g>
	<path fill="#54C4CD" d="M356.6,49.4l0.4-1.9c1.6,0.3,3.2,0.3,4.8,0.1l0.3,1.9C360.3,49.7,358.5,49.7,356.6,49.4z M348.8,45.6
		l1.3-1.5c1.3,1.1,2.6,1.9,4.1,2.5l-0.7,1.8C351.8,47.7,350.3,46.7,348.8,45.6z M343.2,35.1c-0.2-1.8-0.1-3.6,0.2-5.4l1.9,0.4
		c-0.3,1.6-0.3,3.2-0.1,4.8C345.2,34.9,343.2,35.1,343.2,35.1z M344.4,26.5c0.7-1.7,1.6-3.2,2.8-4.6l1.5,1.3
		c-1.1,1.3-1.9,2.6-2.5,4.1L344.4,26.5z M365.5,19.2l0.7-1.8c1.7,0.7,3.2,1.6,4.6,2.8l-1.3,1.5C368.3,20.7,367,19.8,365.5,19.2z
		 M357.9,18.2l-0.3-1.9c1.8-0.2,3.6-0.1,5.4,0.2l-0.4,1.9C361.1,18.1,359.5,18,357.9,18.2z M371,42.7c1.1-1.3,1.9-2.6,2.5-4.1
		l1.8,0.7c-0.7,1.7-1.6,3.2-2.8,4.6L371,42.7z M374.5,35.8c0.3-1.6,0.3-3.2,0.1-4.8l1.9-0.3c0.2,1.8,0.1,3.6-0.2,5.4L374.5,35.8z
		 M365.3,48.7l-0.6-1.8c1.5-0.6,3-1.3,4.2-2.3l1.2,1.5c-0.7,0.6-1.5,1.1-2.3,1.5C367,48,366.2,48.4,365.3,48.7z M373.9,28
		c-0.3-0.8-0.6-1.5-1-2.2s-0.8-1.4-1.3-2l1.5-1.2c0.6,0.7,1.1,1.5,1.5,2.3s0.8,1.7,1.1,2.5C375.7,27.4,373.9,28,373.9,28z
		 M345.1,40.8c-0.4-0.8-0.8-1.7-1.1-2.5l1.8-0.6c0.3,0.8,0.6,1.5,1,2.2c0.4,0.7,0.8,1.4,1.3,2l-1.5,1.2
		C346.1,42.4,345.6,41.6,345.1,40.8z M349.7,19.7c1.4-1.1,3-2,4.7-2.6l0.6,1.8c-1.5,0.6-2.9,1.3-4.2,2.3
		C350.8,21.2,349.7,19.7,349.7,19.7z"/>
</g>
<path fill="#EBB65C" d="M347.3,79.6c1.8-0.9,4-0.3,5,1.5c0.9,1.8,0.3,4-1.5,5c-1.7,0.9-3.9,0.3-4.9-1.5
	C345,82.8,345.6,80.6,347.3,79.6z"/>
<path fill="#54C4CD" d="M377.8,141.2c1.9-1.1,4.4-0.3,5.4,1.6c1.1,1.9,0.3,4.4-1.6,5.4c-1.9,1.1-4.4,0.3-5.4-1.6
	C375.1,144.7,375.8,142.3,377.8,141.2z"/>
<path fill="#EBB65C" d="M355.8,128.6l6.1,5.8l6,5.8l-8,2.4l-8.1,2.3l2-8.2L355.8,128.6z"/>
<path fill="#54C4CD" d="M190.7,9.7l10.1-4.8L210.9,0l-0.8,11.2l-0.9,11.2l-9.2-6.3L190.7,9.7z"/>
<path fill="#F3D0B4" d="M220.4,30l5.1-2.5l5-2.4l-0.4,5.6l-0.4,5.6l-4.7-3.2L220.4,30z"/>
<path fill="#E2E2E1" stroke="#E2E2E1" stroke-width="3" stroke-miterlimit="10" stroke-dasharray="4,3" d="M47,197.3h190 M193,65.3
	h203"/>
<path fill="#54C4CD" d="M225.3,166.2c-1.8-1-2.4-3.3-1.4-5.1l9.7-20l13.9,3.9l-7.2,25.5l-13.9-3.9
	C226,166.5,225.7,166.4,225.3,166.2z"/>
<path fill="#EBB65C" d="M239.6,233.4c0.8,0.2,1.7-0.2,2.1-0.9l38.1-78.3l-38.5-10.9L218,225.5c-0.3,0.9,0.3,1.8,1.2,2.1L239.6,233.4
	L239.6,233.4z"/>
<path fill="#50565F" d="M188.4,38.6l-10.1-2.8l-1.4,5l-32.7,115.4l10.1,2.9c4.5-15.9,44.2-18.5,86.8-6.5l16.4-57.9l1.4-5
	C216.4,77.6,183.9,54.5,188.4,38.6L188.4,38.6z"/>
<path fill="#E2E2E1" stroke="#E2E2E1" stroke-width="1.9319" stroke-miterlimit="10" d="M178.3,35.8l10.1,2.9l-34,120.3l-10.1-2.9
	L178.3,35.8z"/>
<ellipse transform="matrix(-0.2724 0.9622 -0.9622 -0.2724 503.9027 -113.6264)" fill="#54C4CD" cx="294.9" cy="133.7" rx="27.7" ry="27.6"/>
<path fill="#E2E2E1" d="M302.6,104.3c1-3.5-1-7.1-4.5-8.1l-38.7-10.9c-4.6-1.3-9.4,1.4-10.7,6l-15.4,54.5c-1.3,4.6,1.4,9.4,6,10.7
	l38.6,10.9c3.5,1,7.1-1,8.1-4.5L302.6,104.3z"/>
<path fill="#54C4CD" stroke="#54C4CD" stroke-width="5.795" stroke-miterlimit="10" d="M149.7,68.3c-0.4,0.1-0.8,0.1-1.2-0.2
	l-20.4-15c-0.6-0.4-0.7-1.2-0.3-1.8c0.5-0.6,1.3-0.7,1.9-0.3l20.4,15c0.6,0.4,0.7,1.2,0.3,1.8C150.2,68.1,150,68.2,149.7,68.3
	L149.7,68.3z M136.6,114.1l-25.1,3.4c-0.7,0.1-1.4-0.4-1.5-1.1s0.4-1.4,1.1-1.5l25.1-3.4c0.7-0.1,1.4,0.4,1.5,1.1
	c0,0.3-0.1,0.6-0.2,0.8C137.3,113.8,136.9,114,136.6,114.1z M134.7,89.7l-24.5-6.5c-0.7-0.2-1.1-0.9-0.9-1.6
	c0.2-0.7,0.9-1.1,1.6-0.9l24.5,6.5c0.7,0.2,1.1,0.9,0.9,1.6c-0.1,0.3-0.3,0.5-0.5,0.7C135.5,89.8,135.1,89.9,134.7,89.7z"/>
<path fill="#E2E2E1" stroke="#E2E2E1" stroke-width="3" stroke-miterlimit="10" stroke-dasharray="4,3" d="M0,167.3h79"/>
<path fill="#FFFFFF" d="M344.1,239.2c0.6-10.3,6.2-23.7,14.4-34.2c4.4-5.7,6.5-11.2,6.5-14.6c0-11.7-9.4-21.2-21-21.2
	s-21,9.5-21,21.2c0,3.3,2,8.9,6.5,14.6c8.2,10.5,13.9,24,14.4,34.2C343.9,239.2,344.1,239.2,344.1,239.2z"/>
<circle fill="#54C4CD" cx="344.1" cy="189.6" r="8.9"/>
<g>
	<circle fill="#F3D0B4" cx="74.8" cy="142.8" r="7.5"/>
	<path fill="#E2E2E1" d="M57.7,143.2c0-9.4,7.7-17.1,17.1-17.1s17.1,7.7,17.1,17.1s-7.7,17.1-17.1,17.1S57.7,152.6,57.7,143.2z
		 M62,143.2c0,7.1,5.7,12.8,12.8,12.8c7.1,0,12.8-5.7,12.8-12.8s-5.7-12.8-12.8-12.8C67.7,130.4,62,136.2,62,143.2z"/>
</g>
</svg>
