<svg xmlns="http://www.w3.org/2000/svg" width="284.1" height="430.9" viewBox="0 0 284.1 430.9"><circle fill="#54C4CD" cx="142" cy="271.2" r="142"/><path fill="#E2E2E1" d="M81.6 273.1v157.8h119.3V273.1"/><path fill="#50565F" d="M213.1 286.9V144.6h-11.3v-22.2H189l-14.8-27.3V75.3L142.1 0l-31.9 74.8-.1 20.3-14.8 27.3H82.5v22.2H71.2V287h141.9z"/><path fill="#F3D0B4" d="M92.1 265.3h100v-100h-100v100z"/><path fill="#FFF" d="M142.1 175c-22.2 0-40.3 18.1-40.3 40.3 0 22.2 18.1 40.3 40.3 40.3 22.2 0 40.3-18.1 40.3-40.3 0-22.2-18.1-40.3-40.3-40.3z"/><path fill="#54C4CD" d="M159.7 193.5l-19.4 21.1s0 .1-.1.1c-.1.1-.1.1-.1.2s-.1.1-.1.2v.4c0 .1 0 .1.1.2 0 .1.1.2.1.2v.1l9.7 13.6c.2.3.6.5 1 .5.3 0 .5-.1.7-.2.6-.4.7-1.2.3-1.8l-9.1-12.8 18.7-20.4c.5-.5.4-1.3-.1-1.8-.4-.1-1.2-.1-1.7.4z"/></svg>