<svg xmlns="http://www.w3.org/2000/svg" width="284.1" height="319.1" viewBox="0 0 284.1 319.1"><circle fill="#54C4CD" cx="142" cy="177" r="142"/><path fill="#50565F" d="M92.2 129h-23V86.2C69.2 37 101.3 0 143.8 0h.6c40.7 0 74.1 34.3 77.6 79.6.2 2.5.3 5.4.3 7.4h-23.2c0-2-.1-4.5-.4-7-3.2-32.3-26.3-56-54.3-56h-.6c-29.3 0-51.5 26.2-51.5 62.2V129z"/><path fill="#FFF" d="M229.2 126v68.4c0 46.6-37.1 83.6-85.2 83.6h-1c-48.1 0-87.8-37-87.8-83.6V126h174z"/><path fill="#F3D0B4" d="M166.3 182.8c0-13.4-10.5-24.2-23.9-24.2s-23.9 10.9-23.9 24.2c0 10.2 5.7 19 15.7 22.5v13.9c0 6.2 3.9 14.9 8.7 14.9h1.2c4.8 0 8.1-8.6 8.1-14.9v-14.7c6-4.1 14.1-12.3 14.1-21.7z"/></svg>