<svg xmlns="http://www.w3.org/2000/svg" width="305.7" height="284.1" viewBox="0 0 305.7 284.1"><circle fill="#54C4CD" cx="152.8" cy="142" r="142"/><path fill="#EBB65C" d="M51.5 238c-1.3 0-2.5 0-3.7-.1l.1-4c3.1.1 6.4.1 9.8-.1l.2 4c-2.2.1-4.3.2-6.4.2zM37.8 237.2c-3.5-.4-6.9-1-10-1.8l1-3.9c2.9.7 6.1 1.3 9.5 1.7l-.5 4zM67.9 237.1l-.4-4c3.2-.3 6.4-.7 9.7-1.2l.6 4c-3.4.5-6.7.9-9.9 1.2zM18.1 232c-3.4-1.6-6.3-3.5-8.8-5.6l2.7-3c2.2 1.9 4.8 3.6 7.8 5l-1.7 3.6zM2.7 218c-1.6-3.1-2.5-6.6-2.7-10.3l4-.3c.2 3.1 1 6.1 2.3 8.7l-1.3.8-2.3 1.1zM4.8 198.2l-3.9-.9c.7-3.1 1.8-6.4 3.2-9.8l3.7 1.6c-1.4 3.2-2.4 6.2-3 9.1zM12.1 180.5l-3.5-2c1.6-2.8 3.5-5.6 5.5-8.4l3.3 2.3c-1.9 2.7-3.7 5.5-5.3 8.1zM23.4 164.7l-3.1-2.6c2.1-2.5 4.3-5 6.6-7.5l2.9 2.7c-2.2 2.5-4.4 5-6.4 7.4zM36.8 150.3l-2.8-2.9c2.3-2.3 4.8-4.6 7.3-6.8l2.7 3c-2.5 2.2-5 4.5-7.2 6.7zM264.4 146.6l-2.7-3c2.5-2.2 4.9-4.5 7.2-6.7l2.8 2.9c-2.3 2.3-4.8 4.6-7.3 6.8zM278.7 132.7l-2.9-2.7c2.3-2.5 4.5-4.9 6.5-7.3l3.1 2.6c-2.1 2.3-4.3 4.9-6.7 7.4zM291.5 117.2l-3.3-2.3c2-2.7 3.8-5.5 5.3-8.1l3.5 2c-1.6 2.7-3.4 5.6-5.5 8.4zM301.6 99.7l-3.7-1.6c1.3-3.1 2.3-6.2 3-9l3.9.9c-.7 3.1-1.7 6.3-3.2 9.7zM301.7 79.8c-.2-3.1-1-6.1-2.3-8.7l-.1-.1 1.9-.9 1.7-.9.1.1c1.6 3.1 2.5 6.6 2.7 10.3l-4 .2zM153 77.3l-1.5-3.7c3.1-1.3 6.2-2.5 9.3-3.7l1.4 3.8c-3.1 1.1-6.2 2.3-9.2 3.6zM293.8 63.9c-2.2-1.9-4.8-3.6-7.8-5l1.7-3.7c3.4 1.6 6.3 3.5 8.8 5.6l-2.7 3.1zM209.1 59l-.9-3.9c3.3-.8 6.6-1.4 9.8-2.1l.8 4c-3.2.6-6.4 1.3-9.7 2zM276.9 55.8c-2.9-.7-6.1-1.3-9.5-1.7l.5-4c3.5.4 6.9 1 10 1.8l-1 3.9zM228.5 55.4l-.6-4c3.4-.5 6.7-.9 9.9-1.2l.4 4c-3.2.3-6.4.7-9.7 1.2zM248 53.4l-.2-4c3.5-.1 6.8-.2 10.1-.1l-.1 4c-3.2 0-6.5 0-9.8.1z"/><path fill="#E2E2E1" d="M157.3 222.5V64.7s.5-37 37.8-26.6c8.6 2.1 22.2 16.2 19.4 29.3 9.2.6 39.9 12.8 28.2 44.3 6.7 5.8 38.2 38.2-4 67.6.9 2.1 16.5 33.9-21.1 37.9-.6 4.6-3.7 39.1-47.1 28.4-6.6-2.3-13.2-7.8-13.2-23.1z"/><path fill="#FFF" d="M185.8 250.6c-4.8 0-10.2-.7-15.9-2.1l-.3-.1c-10.2-3.7-15.2-12.2-15.2-25.9V64.7c0-.4.2-7.8 3.7-15.4 4.7-10.4 13.4-15.9 24.9-15.9 3.9 0 8.3.7 12.9 1.9 8.8 2.2 22.7 15.5 21.9 29.7 7 1.4 18.9 6.4 25.7 16.9 5.4 8.3 6.3 18 2.7 29 4.7 4.5 18.1 18.9 17.1 36.6-.6 12-7.7 23.1-20.9 32.8 2.8 6.8 5.7 17.9.4 26.9-3.9 6.8-11.4 11-22.5 12.5-.5 3.6-1.9 10.2-5.8 16.4-6.1 9.5-16 14.5-28.7 14.5zm-14.3-7.6c5.2 1.3 10 1.9 14.4 1.9 21.1 0 27.4-15 29-27.6l.3-2.6 2.2-.2c10.4-1.1 17.2-4.5 20.4-10 3.3-5.7 2.7-14.3-1.5-23.7-.1-.1-.1-.3-.2-.3l-.9-2.1 1.9-1.3c12.9-9 19.7-19 20.3-29.8.9-17.6-14.8-31.8-16.6-33.4l-1.5-1.3.7-1.8c3.7-9.9 3.2-18.6-1.5-25.8-6.3-9.7-19-14.4-24.3-14.8L211 70l.7-3.2c1.4-6.8-2.5-13.3-5-16.5-4.2-5.5-9.2-8.7-12.4-9.5h-.1c-4.1-1.2-7.8-1.7-11.3-1.7-22 0-22.7 24.4-22.7 25.7v157.7c.1 14.6 6.4 18.7 11.3 20.5z"/><path fill="#FFF" d="M186.3 92.4h-1.5c-1.5 0-2.7-1.3-2.7-2.8 0-1.5 1.3-2.7 2.8-2.7 10.6.3 18.3-2.8 22.8-9.1 3.3-4.6 3.7-9.4 3.7-9.5.1-1.5 1.4-2.7 2.9-2.6 1.5.1 2.7 1.4 2.6 2.9 0 .3-.5 6.3-4.7 12.3-6.6 9.4-17.5 11.5-25.9 11.5zM216.8 138c-.5 0-1.1-.2-1.6-.5-1.2-.9-1.5-2.6-.7-3.8 7.3-10.4-.9-16.6-1.2-16.9-1.2-.9-1.5-2.6-.6-3.9.9-1.2 2.6-1.5 3.8-.6.1.1 12.7 9.7 2.4 24.4-.4.8-1.2 1.3-2.1 1.3z"/><path fill="#FFF" d="M220.3 127.6c-1.4 0-2.6-1.1-2.7-2.6-.1-1.5 1-2.8 2.6-2.9.2 0 15.8-1.3 21.1-14.1.6-1.4 2.2-2.1 3.6-1.5 1.4.6 2.1 2.2 1.5 3.6-6.7 16.1-25 17.5-25.8 17.5h-.3zM206 185.9c-1.7 0-2.7-.2-2.8-.2-1.5-.3-2.5-1.7-2.3-3.2.3-1.5 1.7-2.5 3.2-2.3.1 0 7 1 12.9-3.5 4.8-3.7 7.7-10 8.7-18.9.2-1.5 1.5-2.6 3-2.4 1.5.2 2.6 1.5 2.4 3-1.1 10.5-4.8 18.1-10.9 22.7-5.2 4.2-10.8 4.8-14.2 4.8zM196.8 235.9c-1.1 0-2.2-.7-2.6-1.8-.5-1.4.3-3 1.7-3.5.7-.2 15.9-6 9.7-27.2-.4-1.5.4-3 1.9-3.4 1.5-.4 3 .4 3.4 1.9 2.2 7.5 3.3 18.3-3.6 26.8-4.2 5.2-9.4 7-9.6 7.1-.3.1-.6.1-.9.1zM193.9 121.9c-2 0-4.5-.2-7.1-1.1-5.8-1.8-13.7-6.8-17.9-20.3-.5-1.4.3-3 1.8-3.5s3 .3 3.5 1.8c6.7 21.1 22.6 17.3 23.2 17.2 1.5-.4 3 .5 3.3 2 .4 1.5-.5 3-2 3.3-.1.1-2 .6-4.8.6zM178.6 208.6c-.5 0-1 0-1.6-.1-5.8-.7-10-4.3-11.8-10-1.3-4.1-1.1-7.9-1-8.1.1-1.5 1.4-2.7 3-2.5 1.5.1 2.6 1.4 2.5 3 0 0-.2 3 .8 6.1 1.2 3.6 3.6 5.6 7.3 6.1 8.4 1.1 11.1-15.7 11.2-16.5l2.6-24.6c.2-1.5 1.5-2.6 3-2.5 1.5.2 2.6 1.5 2.5 3l-2.6 24.8c-.2.9-3.1 21.3-15.9 21.3z"/><path fill="#FFF" d="M189.8 173.4c-5.7 0-13.4-2.3-16.4-11-1.2-3.6-1-6.9.6-10 3.4-6.6 12.2-9.3 12.6-9.4 1.5-.4 3 .4 3.4 1.9.4 1.5-.4 3-1.9 3.4-.1 0-7 2.1-9.3 6.7-.9 1.7-1 3.6-.2 5.7 3.1 9 13.4 7.1 13.8 7 1.5-.3 2.9.7 3.2 2.2.3 1.5-.7 2.9-2.2 3.2-1 .2-2.3.3-3.6.3z"/><path fill="#E2E2E1" d="M148.3 222.5V64.7s-.3-37-37.6-26.6c-8.6 2.1-22.1 16.2-19.3 29.3-9.2.6-39.9 12.8-28.2 44.3-6.7 5.8-38.2 38.2 4 67.6-.9 2.1-16.5 33.9 21.1 37.9.6 4.6 3.5 39.1 46.9 28.4 6.7-2.3 13.1-7.8 13.1-23.1z"/><path fill="#FFF" d="M147.7 49.4c-3.3-7.2-10.3-15.9-24.8-15.9-3.9 0-8.3.7-12.9 1.9-8.8 2.2-22.6 15.5-21.7 29.7-7 1.4-18.9 6.4-25.7 16.9-5.4 8.3-6.3 18-2.7 29-4.7 4.5-18 18.9-17.1 36.6.6 12.1 7.7 23.1 20.9 32.8-2.8 6.8-5.6 17.9-.4 26.9 3.9 6.8 11.4 11 22.5 12.5 3 19.9 15.1 30.8 34.1 30.8 4.8 0 10.2-.7 15.9-2.1l.5-.1c10-3.7 15.1-12.1 15.1-25.9V64.7c-.1-.3-.3-7.8-3.7-15.3zm-2.4 173.1c0 7.7-1.2 16.9-11.1 20.5-5.2 1.3-10.1 1.9-14.4 1.9-16.6 0-26.5-9.5-28.7-27.5 0-.2 0-.4-.1-.5l-.3-2.2-2.2-.2c-10.4-1.1-17.2-4.5-20.4-10-3.9-6.7-1.7-15.5.3-20.9 2.7 1.6 5.3 2.5 7.8 2.5.9 0 1.8-.1 2.6-.3 3.2-.8 5.4-2.8 6.7-4.5l.1.1c5.2 3.9 10.9 4.6 14.2 4.6 1.7 0 2.7-.2 2.8-.2 1.5-.3 2.5-1.7 2.3-3.2-.2-1.5-1.7-2.5-3.2-2.3-.1 0-7 1.1-12.9-3.4-4.8-3.7-7.7-10-8.7-18.9-.2-1.5-1.5-2.6-3-2.4-1.5.2-2.6 1.5-2.4 3 .8 7.9 3.1 14.2 6.8 18.8-.7 1.1-2.1 2.6-4.1 3.1-2 .5-4.3-.2-7-2v-.1l-1.9-1.3c-12.9-9-19.8-19-20.3-29.8-.8-14.5 9.8-26.7 14.5-31.4 6.1 8.1 15.6 10.7 20 11.4.3 2.8 1.5 6 3.9 9.5.5.8 1.4 1.2 2.3 1.2.5 0 1.1-.2 1.6-.5 1.2-.9 1.5-2.6.7-3.8-7-10.1.3-16.2 1.2-16.9 1.2-.9 1.5-2.6.6-3.8-.9-1.2-2.6-1.5-3.8-.6-.1.1-4.6 3.5-6 9.4-4.6-.9-14.1-3.9-18.3-13.1-2.8-9-2.1-16.9 2.2-23.6 5.5-8.5 15.9-13.2 22-14.4.4 2.3 1.6 6.4 4.5 10.4 6.7 9.3 17.5 11.4 25.9 11.4h1.5c1.5 0 2.7-1.3 2.7-2.8 0-1.5-1.3-2.7-2.8-2.7h-1.4c-23.4 0-25.1-17.8-25.1-18.6 0-.4-.2-.8-.4-1.2l-.1-.3c-1.4-6.8 2.5-13.3 4.9-16.5 4.1-5.5 9.2-8.7 12.3-9.5h.1c4.1-1.2 8-1.7 11.4-1.7 22.1 0 22.5 24.6 22.5 25.6v157.7z"/><path fill="#FFF" d="M139.4 71.1c-1.1 0-2.1-.6-2.5-1.7-.3-.7-6.9-15.5-27.7-8.2-1.4.5-3-.2-3.5-1.7-.5-1.4.2-3 1.7-3.5 13.4-4.7 22.1-1.5 27 2.1 5.4 3.9 7.5 9 7.6 9.2.6 1.4-.1 3-1.5 3.6-.4.2-.8.2-1.1.2zM98.6 216.2c-1.5 0-2.8-1.3-2.8-2.8 0-.2.1-5.8 3.6-11.4 5.8-9.4 16.4-11.8 24.2-12.2 1.5-.1 2.8 1.1 2.9 2.6.1 1.5-1.1 2.8-2.6 2.9-22.1 1.1-22.5 17.4-22.5 18.1-.1 1.5-1.3 2.8-2.8 2.8zM107.1 151.4h-.3c-1.5-.2-2.6-1.5-2.5-3l2.6-24.8c.1-.9 3.2-23 17.3-21.2 5.8.7 10 4.3 11.8 10 1.3 4.1 1.1 7.9 1 8.1-.1 1.5-1.4 2.6-3 2.5-1.5-.1-2.6-1.4-2.5-3 0 0 .2-3-.8-6.1-1.2-3.6-3.6-5.6-7.3-6.1-8.4-1.1-11.1 15.7-11.2 16.5l-2.6 24.6c.1 1.5-1.1 2.5-2.5 2.5z"/><path fill="#FFF" d="M114.1 168c-1.2 0-2.3-.8-2.6-2-.4-1.5.4-3 1.9-3.4.1 0 7-2.1 9.3-6.7.9-1.7 1-3.6.2-5.7-3.1-9-13.3-7.1-13.8-7-1.5.3-2.9-.7-3.2-2.2-.3-1.5.7-2.9 2.2-3.2 5.3-1 16.4-.2 20.1 10.6 1.2 3.6 1 6.9-.6 10-3.4 6.6-12.2 9.3-12.6 9.4-.4.2-.7.2-.9.2z"/><path fill="#EBB65C" d="M87.7 234.2l-.8-4c3.1-.6 6.4-1.3 9.6-2l.9 3.9c-3.3.8-6.6 1.5-9.7 2.1zM107.1 229.7l-1-3.9c3.1-.8 6.3-1.7 9.5-2.7l1.1 3.9c-3.2 1-6.4 1.9-9.6 2.7zM126.2 224.1l-1.3-3.8c3.1-1 6.2-2.1 9.3-3.2l1.4 3.8c-3.1 1.1-6.3 2.2-9.4 3.2zM145 217.4l-1.4-3.8c3-1.2 6.1-2.4 9.2-3.7l1.5 3.7c-3.1 1.4-6.2 2.6-9.3 3.8zM163.4 209.8l-1.6-3.7c3-1.3 6-2.7 9-4.1l1.7 3.6c-3 1.5-6.1 2.9-9.1 4.2zM181.4 201.4l-1.8-3.6c2.9-1.5 5.9-3 8.8-4.5l1.9 3.6c-2.9 1.5-5.9 3-8.9 4.5zM199.1 192.1l-1.9-3.5c2.9-1.6 5.8-3.2 8.6-4.9l2 3.5c-2.9 1.7-5.8 3.3-8.7 4.9zM233 171.2l-2.3-3.3c2.7-1.9 5.4-3.8 8-5.7l2.4 3.3c-2.6 1.9-5.4 3.8-8.1 5.7zM249.1 159.4l-2.5-3.2c2.6-2 5.2-4.1 7.7-6.2l2.6 3.1c-2.6 2.1-5.2 4.3-7.8 6.3z"/><path fill="#FFF" d="M229.7 186.1c-.9 0-1.8-.1-2.6-.3-5.7-1.4-8.3-7-8.4-7.2-.6-1.4 0-3 1.4-3.6 1.4-.6 3 0 3.6 1.4 0 .1 1.6 3.4 4.7 4.1 2.4.6 5.3-.5 8.7-3.2 1.2-1 2.9-.8 3.9.4 1 1.2.8 2.9-.4 3.9-3.9 3-7.5 4.5-10.9 4.5z"/><path fill="#EBB65C" d="M216.3 182.1l-2.1-3.4c2.8-1.7 5.6-3.5 8.3-5.3l2.2 3.4c-2.7 1.7-5.6 3.5-8.4 5.3z"/></svg>