<?xml version="1.0" encoding="utf-8"?>
<svg width="200" height="438.9" viewBox="116.6159439086914 -3.533816337585449 214.31005096435547 442.4338140487671" xmlns="http://www.w3.org/2000/svg">
  <path fill="#E2E2E1" d="M242.5 429.9c-.1.4-.4.7-.2 1.2.6-.5.3-.7.2-1.2zm3.8-8.7c.1-.3.4-.3.4-.6-.6.1-.8.2-1.2.7.4.3.4 0 .8-.1zm3.7 16.1c-.3-.5-2.4-1.9-3-1.4-.5.4-1.4-.1-1.5 0-.5.6.1 1.7-.1 2.6.7 0 .7.1 1.4.2.6-1.7 1.8.1 3.1.2 0-.5.1-1.2.1-1.6zm-11.2-9.4c-1.2.7-2.5 1.6-2.9 2.5 1.2.2 2.3.4 3-.3.7-.7 1-2.4-.1-2.2zm1.8.9v.6c.3-.4 0-.6 0-.6zM190.8 270c0 1.5 1-.6 1.8-.3.7.3 1.3.7 1.8 1 0-1.1 1.1-1.6 1.8-2.3.8-.8 1.1-1 1.8-1.8.3-.4 1.3-2.1 1.3-2.1 2.7-1.6.3-3 .2-4.7-.2-1.9 1.3-2.5-1-1.9-2.7.6-2.5 3.1-3.9 5-.9 1.3-1.9 1.5-2.4 2.9-.6 1.3-1 3.1-1.4 4.2zm-1 .8c.1.1 0 .4.3.5.1-.2.2-.4.2-.6-.1-.1-.5.1-.5.1zM0 135.9s.1.1 0 0zm163.3 10c-.2 1.4 2 .4 1.3-1-.7-1.6 1.2-4.6-.2-5.5.2.3.2.5.3.8-1.1-.4-.9.3-.5 1.1-1.6 0-1.4 3.4-.9 4.6zm-2-10c-.8-1.5-2.3-2.7-3.3-4.2-1.1.3-3.5 4.2-1.1 4.4-1.3 1.9.6 3.3 1.1 5.2-.6-.8-1.1-1.7-1.9-2.3-.2.7-.6.9-.9 1.3.2-.4.3-.8.5-1.2-2.1 1-3.1-3.2-4.7-3.6.3.7.3 1.6-.3 2.2 1 .2 1.7.9 1.9 1.9-2.1-1.4-.8 1.6-.9 2.4-.8-.4-1.6-2.6-2.1-2.7-1.1-.2-1 1.5-.3 2.2-.4-.1-.9.1-1.3 0 .1 1.1 1.1 1.8 1.4 2.9.3 1.1 1.7 1.3 2.6 1.7.6.2.7-2.3 1.4-2.9.1.5.3.8.1 1.4.3-.3.8-.6 1-.8-.1.7.1 1 0 1.4.4.7.7 0 .3.8 1.3-.6 2.7.8 3.3 1.9-.1 0-4.2-2.8-3.6-.4.3 1.3 1.4 3.1 2.9 2.6-.8.6-.8 1.4 0 2.2.5-.4 1-.3 1.5-.5-.3.4-.6 1.2-.9 1.6 1.1-.3 2.3-.5 3.4-1.1-.2-.3-.2-.3-.3-.6.4.1.5.2.7.5 1-.3.8 3.8 1.7 1.6.4-1.1 1-2 .4-3.3.7.4.8 1.8 1.1 2.1.7.5 2.4 0 3.1-.4-1 1.4-2.4 1.5-3.2 3.4-.6 1.3-.8 4.5 1.5 2.2 1.5-1.5 2.1-3 3-4.6.3-.5 1.9-.7 2.5-1.6.4-.7.2-1.6.5-2.4-1.3.4-1.9-.5-3.2-.3-.6.1-1.6 1.2-2.2 1.1-.3 0-.7-1-1.5-1.1-1-.1-1.1-.9-2.3-.3 1.8-1.2-.2-1.4-1.6-1.1 1.8-.7.7-1.5.3-2.7-.1-.4.6-2.6-1-.8 1.7-1.7.9-6 .4-8.1zm4.1 3.2c0-.8.2-1.6.1-2.4-.5.6-.9 1.7-.1 2.4zm3-65.2c0-.1.3-.2.2-.6-.1 0-.1-.1-.2-.1-.5.7-.1.6 0 .7zm-3.5 72.8c-.7.5-.4 1.6.7 1.6 1.5 0 .2-1.5-.7-1.6zM276.4 10.2c-.1 0-.3.3-.5.3 0-1.4-1.6-.9-2.8-.9.2 1.1.7 2.3 1.8 2.7-.2-.3-.2-.6-.3-.9.6.2 2 .8 2.3 0 .3-.7 0-1-.5-1.2zm-113 163.6c-1.8-1.9-3.6 1.3-4.2.6-.4.2-1.1.4-1.5.6.7.8.9 1.6-.3 2.1.7.8 1.7.9 2.8 1.1 1.1.2.9 1.5 1.6 1.7.5.2 1.6-.4 2.2-.7.8-.4.8.9.4 1.2-1.4 1.1-2.9.5-3.5 2.6-.8 3.1 1.7.2 3.4.7-1 1.3-3.4 2.1-4.9 1.9.4.7 0 .2.1.8-.8-1.9-3.3-1.4-2.3.6 1 1.9 2.8.6 4.4.5 1.7-.2 2.5-1.3 4.4-1.8.5-.1 3.3-1.7 1.3.2 1.1.9 2.8-.3 3.6-1.3 1-1.2-1-.8-1.6-.3.5-.4.9-1.2.9-1.9.8 1 2.7.9 1.2-.8.3 0 .5.1.7.3 0-1.1-1.9-3-3.2-3.5-.8-.3-2.6.1-3.4-.5-1-.8-.3-3.2-2.1-3.5-.1-.2 0-.5 0-.6zm-10.5-16.1c.5-.1.9-.2 1.3-.4-.8-.7-1.8-.6-2.5.3.4 0 .8.1 1.2.1zm-2.7 17.9c-.2 0-.4.1-.6.1.1.4.2.8.5 1.1.3-.9 2-1 3-2.4.7-.9 1.3-1.4 1.8-2.7-2.1-.5-3.4 2.7-4.7 3.9zm11.7 36.6c.6-.3 1.1-.7 1.4-1.4 0 .1.1.2.1.3 2.1-1.7-.8-3.9-.9-5.6-.1-1.4-.3-2.8-.4-4.2-.1-1.4-.4-.5-.9-.4-1.5.3-3.6 2.7-3.2 4.2-.8-.6-.7-1.8-.2-2.6-.7.1-2.2.8-2.7 1.4-.5.7-.1 1.5-.8 2.2 1.2.7-.2 1.7-.3 2.6-.1.7-.4 2 .8 1.8 2-.3 1.7-5.7 4.6-3.9-.3.3-1.5 1.2-1.5 1.6-.1 1.2.6.2.9 1.1.2.5.9 1.1.7 1.7-.1.4-1.4.6-1.6 1.2-.8 2 .7 1.7 1.8 1.2 1-.3.2-1.4 2.2-1.2zm58-128.1c1-.2 1.3 1 1.8 2.1.2.4.5 1.6.8 1.8 1 .6 3.2-.2 3.6-1.1-.9 0-1.6.5-2.5.6.3-.8 1.8-1.1 1.5-1.6-.6-.9-.4-1.1-1.2-2.4-1.2-1.9-5.2-1.8-4 .6zm-59.5 110.1c-.8.7-1 1.8-1.5 2.6 2 1.1 2.8-1.9 2.8-3.3-.3.1-.7.1-.9.2 0-.1.2.5.2.5-.3.3-.4-.2-.6 0zm13.1-8c-.2-.9-1.4-.2-1.1.9.2 1.4 1-.3 1.1-.9zm-12.9 39.5c0 .1-.2.7 0 .4 1-1.7-.9-2.2-2-1.2.9-.2 1.9-.1 2 .8zm11.2-36c.1.5.3.9.6 1.3.1-1 .6-1.9.5-2.9-.5.1-.9.7-1.1 1.6zm-12.5-31.2c-1.7-2.1-3-.9-4.4.9 1.8 1.5 4.1 4.2 4.5-.2h-.6c.1-.5.3-.4.5-.7zm76.3-87.6c.1-.3.2-.5.2-.8 1.1 0 1.3-1.4 2.4-1.5-.1.3-.1.6-.2.9.3-.6.8-.9 1.3-1.2v.9c.8-1 .9-2.6 2.6-2.3 0-.5-.2-1-.4-1.4-.4 1.1-2.3 1.8-3.3 2.3-.1-.2-.1-.2-.3-.3.5-.4.9-1.1 1.2-1.5-.6.2-1.3.4-1.9.6 1.4 1.5-2.3 2.5-1.6 4.3zm12.9-39.5c1.2.4 1.1-1.5.2-1.4-1 .2-.8.9-.2 1.4zm-15.9 40.1c.9.6 1.1 2.2 2 .9-1.7-.8 1.3-3.4-.7-3.4 0-.4.2-.2.2-.6-1.3.4.2 3-1.5 2.3v.8zm4.6 2.9c.1.5.5.8.4 1.4.7-.2 1.2-.5 1.8-.9-.6-.7-.8-.6-.4-1.4-1.1.7-1.5 0-.7-.6-.4-.1-.5-.3-1-.3 0-.2.3-.3.1-.5-.4 0-.7.1-1.2.3 1.3.7 1.2 1.4.2 1.9-.5.2-.9 1.4 0 1.1.3-.2-.1-.8.8-1zm21.6-18.6c.2-.2.5.1.4-.4-1.1 0-1.7.9-1.3 1.9.9-.4 1.2-.9.9-1.5zm5.4-22.1c-.1.3-.2.7-.3 1.1.3-.5.5-.8.7-1.3-.1.4 0 .9-.1 1.4.4-.5.7-1.4.7-2.2 0-.2-.3.3-.3.3.1-.4.1-.8.2-1.2-.8.3-.9 1-.9 1.9zm-6.8-7.3c.7.8 1.5 1.4 2.6.4.1.3.2.5.2.8.2-.4.6-.7.7-1.4.2.2.7.9.8 1.1-2.9.3.5 4.4 1 1.1 0 .2.1.4.1.6.1-.5.3-.8.3-1.5.3.2.6.3.9.6.3-1.1-.6-2-1.2-2.7 1.2.2 1.6 1.3 1.8 2.4.3-.8.5-1.7 1.3-1.8-.4.9-.9 1.9-.9 2.9.2-.1.6-.2.9-.4-1 1.5.4 1.9 0 3.4-.4 1.6-1.5 3.9-1.2 5.5h-.6c.2.2.4.9.6 1.1-1 .1-1.2 1.5-.9 2.3.3.7 1.8-.4 1.1 1.3.3 0 .2-.1.3-.4.1.2.3.7.4.9.3-.8.4-2.3 0-3.2.1.1.1.2.1.3.5-1 .6-2.1.4-3.2 1.7 1.1.9-.7.6-1.8 1.9.3.3-1.4.7-2.3-.4-.2-.4-.3-.6-.6.6-.6.3-.1.3-.9.7-.2.6-.4 1.2-.3 0-.2-.1-.5-.2-.6h.6c-.9-.7-.1-2.6-1.5-1.1.1-.7.4-1.4.7-2.1-.3.3-.6.5-.9.9.2-.3.3-.8.4-1.2h-.9c.2-.2.3-.4.7-.6-.1-.3-.1-1-.2-1.2.5 1.1 1.4 1.3 2.2 0-1.7 0-.8-1.2.3-2.1-.7-.5-1.4-.6-2.1-1.2 1.4-.5 1.9 0 2.3-1.4.4-1.3-.9-.3-1.2.3-.3-1.2 1.3-2.1 1.8-3.3-.8.1-1.3.6-1.3 1.5 0-.2-.1-.5-.1-.6-.3.8-.6 1.5-1 1.8 0-1-.2-1.2-1-.6 0-.4.1-.4.3-.6-.3.2-.6.2-.8.2.5-.6.9-.9 1.6-.8-.1-1.2-1.5-4.4-2.3-1.5-.7-1.6-.9.3.6.9-2.1 0-1.3 1.8-2.9 1.8.6-1.4 1.5-2.6 1.5-4.2-.2.3-.5.4-.7.6.5-.7.6-1.3 0-1.8.1-.1.3-.1.4-.3h-.4c1-1.2 1.2-3.3.7-4.8-.6.6-.5 1.6-.3 2.1-1.1-1.4-1.7-.8-2.3.1-.2.3-1 1.4-1.3 2.3.5.5 1.3 1 2 1.2-1.5 1.2-2-.8-2.6-1.7-.6-1-.8 1-.9 1.1-.3.4-.9.7-1.1 1.1-.5 1.3.6 1.3 1.1.4.7.2.7.2 1.5.3-.8 1.6.6 1.2.7-.3.2 1.2-.4 3.2 1.3 3-.5.9-.2 2.5.9 1.2-.1 1 .9 1.5 1.8 1.8-.5-.1-1 .1-1.4.1.1.2.2.3.3.5-.3-.1-.3-.2-.6-.3-.9 1.2.5 1.5-.4 2.7 0-1.2-1.8-2.5-1.6-.9h-.4c.1.9.1.6-.1 1.2.3-1.2-.2-1.9-1.3-1.5 0 .3.1.3.2.6-.2-.1-.5-.2-.7-.3.1.2.1.4.2.6-2-1.3-3.2-.1-2.5 2.5zm-26.6 60.3c1.9-1.4-1.9-1.5-2.6-.4.5-.1 1 .1 1.5 0-.4.2-.3.3-1 .3.6.7.7 4 2.1 3.1.2-.3-.2-2.4 0-3zm38.5-55c1.2 1.1 1.3-1.3 1.3-2.3.1 0-.4.2-.4.2 0-.3-.1-.7-.2-1-1.3.8-1.1 1.1-.7 3.1zm-41.8 33.7c.9.5.9 3 2 1.8l.3.3c-.1-.3-.2-.7-.3-.9 1.4.2 2.5 1.3 1.9 2.6.6-.6.6-.6 1.2-.9-1.2-1.1-1.3-2.3-3.4-2.8v-.3h.6c1-2.5-1.2.2-2.5-.3 0 .3.1.3.2.5zm-62 140.3c.6-2.3 1.4-3.2 2.4-5.2.7-1.5 1.5-2.9 2.1-4.4.3-.7 1.4-1.6 1.4-2.3.2-3.4-3.3 1.6-4.3 1.9-1 .3-1.9 1.7-2.2 2.7-.5 1.5 1.3.9 2.2.8-1.1 1.1-3.5.9-4.1 2.6-.6 1.5.3 5.6 2.5 3.9zM222 80.6c.2.1.5.2.7.3.7-.7.9-1.7.3-2.5.4 0 .3-.1.7 0 0-.6.2-.7.3-1.1 1.5 2.5-2 4.6 2.4 5.1.6-.5.1-.3 1-.5l-.3-.6c.6.2 2.3-.5 2.3-.6.9 1.5 1 2.8 3.1 3.1-.1 0 2.7-2 2.7-2.1.4-1.7-.8-1.8-1.9-1 .2.3.2.8.4 1.2-2.4.3-.3-1.5-.1-2.1.4-1.1-2 0-2.3.1.1-.3.1-.6.1-.9-.5-.1-.3 0-1-.4-.4-.3-.6.4-1.1.4-1.5-.1-.3-.9-1.7.2-.5.4-1.3-.1-1.7-.4 1.5-.6 1.1-2.1 2.9-2.3-.1-.4 0-.3 0-.6-.6-.3-1.2-.7-1.6-1.2.1-.1.3-.2.4-.3-1.3-1.2-3.7-2.3-5.6-1-1.3 1-1 5.9 0 7.2zm50.5-73.7c.6.4 2.7.7 3.1.2 0 0-.5-1.5-.4-1.7 0-.8 1.5-.8.5-1.5.2-.4.5-1.4 1.3-1.8l-.6-.3c1.1-.6.1-1.5-.7-1.8-.5.9-.4 2-1.4 2.6.8-1.2.9-3.4-.3-1.1-.6 1.2-1.2 2.6-1 4.2-.1-.1-.3-.2-.4-.3.1.6-.1.9-.1 1.5zm-45.5 66c2.2 1.9 3.3-1.5 2.8-1.8-1.1-.5-5.1-.3-2.8 1.8zm41.5-58.1c.4.4.6.7 1.2.7-.2-.5 0-.7 0-1 1.3 1.5 2-.2 1.2-1.6.8-.3.7-1.2.5-1.8-.8-.3-.6-.3-1-.9 1.8.9.8-1.2.1-2.1.6.3 1 .5 1.5 1.2.5-1.1-.2-6-1.6-3.6-.5-1.7-1.1.3-1.1 1.1 0 1.1-.1 2.2.4 3.4-.7-.1-.9-.7-.7-1.5-1.9.3-1.1 4.7-.5 6.1zm3.3 5.9c-.4.3-.7.8-.8 1.4 1.2.6 2.3-1 2.6-2-.6.1-1.2.3-1.8.6zM157.2 415.1c0 .2-.3.2 0 .4.3-.2 0-.2 0-.4zm21.3-205c-1.2 1.5-1.1 3.4-.1 4.9.4.6-.2 2 .3 2.9.7 1.2 3.6 2.4 4.9 1.6 1.4-.9-.1-1.8 1-2.6-1.6-.5-.6-1-.7-1.2-.2-.4-.4-1.9-.5-2.4-.6-2-.9-4.6-3.7-4.4 0 .2.1.4.1.5-.6 0-.7.4-1.3.7zm-7-19.3c-.6-.2-1.2.5-1.5 1.3 1 0 1.7-.4 1.5-1.3zm140.9 173c-1.4-.6-5.4-1.3-2.9 1.3 1.3 1.2 5.6.5 2.9-1.3zm18.2-38.6c.8-10-8.6-13.6-16.7-15.6 0 0 .7.4 1 .5-1.4 1-6.8-1.8-7.3-.5-2-.2-3.7.6-4.4 2.5-.4 1.2-1.9 3.7-1.7 4.8-.9-1.3-1.5-.7-2.6-1.2-.7-.4-1.5-1.7-2.5-2.4-2-1.3-3.8.2-1.6-2.1.8-.9 1.3-2.6 2.4-3.1.6-.2 2.5-1.8 2.9-2.3 2-2.7 0-6.6-1.1-9.4-1.5-4-4.3-5.6-7.8-8.2-1.3-1-2.2-1.9-3.1-3.3-1.2-1.8-1.5-1.6-3.7-1.2-.8.1-2.3 1.1-2.9.5-.9-.9-2.4-1.4-3 0-.2-.1-.6-.4-.7-.5 1.9-1.6 2.8-.7 4.6-.5 2.6.3 4.7-2.1 6.6.5.6.8 1.3 2.2 2.3 2.5 1.1.3 1.5-.5 2.3-.4 1.7.1 3.2 1.1 2 2.9 5.1-3.5-13.5-14.6-4-19.9-1.1-1.2-2.9-1.3-4-2.5-.4-.4.1-1.1-.6-1.5-.4-.2-1.3-.6-1.6-.8-1.6-1.5-.8-4.4-2.8-5.9-.9-.7-.3-1.3-.9-2.1-1.2-1.5-3.4-2.4-5-3.4-2.1-1.3-6.6-1.2-7.9-3.4-.1.7-.4.9-.6 1.3.1 0-.3-.5-.3-.6-1 .4-.2-.2.2-.8.4-.8-1.1-1.2-.1-1.7-3.4-2.8-3.3-7.3-4.8-11.1-1-2.3-2.8-4.9-2.4-7.4.2-1.2-1.7-2.4-1.3-3.8.5-1.4-.3-3.2-.3-4.8 0-2.5-.6-8.1-4-7.4.2-.2.1-.1.4-.2-.3-1-.8-1.2-1.5-.5-2.1-2.9-3.9-6.4-6.1-9.5-1.8-2.5-6.4-2.1-8.7-4.9-.6.5-.8.4-1.6.3 1.4-3-7.2-3.4-5.9-.3-2 .6-2.5 2.7-5.1 2.2-.3 0-.3-.6-.8-.7-1-.1-1.9-.2-2.9-.2-.8-.1-1.4-.4-1.9-.5-2.2-.5-5.3-.6-6.9-1.4-1.2-.5-2.4-2.2-3.4-3.3 1.5.2 2 2.4 3.9 2.4 2.1 0 4.3 1.4 6.3 1 .6-.1 4.2-1.4 4.4-1.8.8-1.8 1.2-2.3 2.6-3.7 1.3-1.3 2.2-2.1 4-1.1 1 .6 4-.7 4.4-1.7.4-.8 1.9-1.3.9-2.1-.6-.5-1.2-1.3-2.1-1.4-1.9-.2-1.9-.8-3.1-1.4.6-.6 1.4-2.8.1-2.9-1.5-.1-.9-.4-2.3.1-1.6.6-6.6 4.8-8.2 2.8 1.6.9 2.9-1.2 3.9-2.2 1.2-1.2 2.5-1.2 4.1-1.5 1.1-.2 3.3 0 4.2-.5.4-.2 1.3-1.1 2.2-1.7 1.9-1.4 2.9-3 3.5-5 .7-2.1.9-4.1 2.9-5.4 1.5-1 3.2-3.8 3.5-5.5.1-.8-.3-1.6.2-2.6.7-1.6 1.8-3 2.6-4.5.3-.6-.3-1.7-.2-2.6.1-1.8 1.2-3.9 1.8-5.5.5-1.3 2.8-2.2 2.9-3.5.1-1.1 1.2-2.1 1.9-2.9-.4-.8-.5-.3 0-.9-.8-.6-.8-1.6-1.1-2.5-.5-1.9-.6-2.4-2-3.9-.8-.9-2.7-2.2-4.3-1.8-1.4.3-1.6 1.7-3.1.7-1.3-.8-1.3.8-2.1.3-.2-.1-3.5 0-3.8.4-1-1.1-3.8-1.2-4.8-1.3-1-.1-2.7-.4-3.7 0-1.6.6-2.1 1.7-4 1-2.5-.9-4.8-2.9-7.4-1.4-.4.2-.5-.5-.8.1-.2.3.2.9-.2 1.2-.8.5-1.1 1.1-2.3.4.2.3.2.7.4 1.1-.5.2-.7.2-1.2 0 .2-.3.3-.5.4-.8-2 .2-2.8 2.1-4.5 2.8-1.2.5-3.9.3-5.3.3.5.3.7.8 1 1.2-1.6.5-2.7 3.3-4.6 2.4.7-.8 1.3-2.1-.3-1.9v-.3c.6.1 1.3-.1 1.8.1-.1-.9.5-1.3 1.6-1.2-.9-1.4 2.2-2.8 2-4.4-.7.2-1.4 1.2-2.1 1.2-1.6.1-1.3-.9-2.9-.2-1.6.7-2.2 3-3.9 3.4.2-.8 2.6-4.1 3-4.1.8 0 1.9-.1 2.7-.4 0 0 3.9-3.1 3-1-.5 1.1.5.7 1 .5 1-.4 2.6-3.3 3.2-4.1.2-.2 1.8-2.5.6-2.4-1.2 0-1.2 2.9-3.2 2.2.2-.7-.2-1.7-1.1-.9-1.2 1-1.8.6-3-.4 0 .2.1.4.1.7-.8-.2-1.3-.9-2-1.1-.7-.2-1.1.7-2-.1-.6-.5-1-1.3-1.5-2 .7.3 1 1.3 1.5 1.5.9.4 1.8 0 2.8 0 .9.1 1.5 1.3 2.2.2.4-.6 1.1-.5 1.7-.2.1-.9.8-2.1-.3-2.7-.8-.4-1.4-.1-1.3-1.2.8.2 1.4.6 1.8 1.1 0-1.1 1.1-1.9 2.2-2.2 1.5-.3.8-1.3 1.6-2.1 2.1-2.3 5.6-3.4 7.6-6.1.9-1.2.8-2.2 2.3-3.1 1.5-.9 2.8-1 4-2.4 1.5-1.7 2.9-4.7 2.3-6.3-.2-.6-1.5-.1-.9-2.1.2-.7 1.1-1.5 1.5-2.2.7-1.6 1-2.7-1.1-2.3-1.6.3-2.2-.9-4.1-.3-1.7.5-.7-.9-1.6-1-1.2-.2-.9 1.5-.2 2 1.9 1.4-1.1.6-1.5.6-.7 0-2.5 1.1-2-.3-2.4-1.1-9.2 5.1-10.4 1.1-.9 1.5-4.9 1.6-4.4 2.9-3.3-2.4-3.4 2-5.6 3.1.4-.8 1.5-2.7 1.4-3.5-.1-1-2.1-2.2-3.1-1.7-.4.2-1.3 2.3-1.7 2.8-.6.9-1.2 2.2-2.4 2.5.4-1 2.3-3.1 2.2-4.1-.1-.7-2-1.8-2.5-2.4 0 1-.1 2.7-.9 3.4.4-.9.2-1.4.1-2.3-.2-1.2-3.1-2.8-3.9-1.8-1 1.2.2 2.9-1.3 3.8-2.3 1.4-.1 2.6 1.3 3.9-.7-.8-1.6-.8-2.3 0 .1.5.1.5.2.9.3-.1.6-.1.9-.3.3.7.3.7.9 1.4-1.1.2-1.8-.7-2.7-1.1-.2.9-.5 1.6-.2 2.5-1 .4.5 2.1 1.1 2.9 1.1 1.7 2.2-.1 3.8.7-.4.1-.8.4-1.2.6.4.3.7.8 1 1.1-1-.9-4.3-2.7-5.1-1.1-1.2-1.2-2 .9-3.4 0-2.1-1.5-1.1 1.5.2 1.9-.1 1.1.4 2.2 1.8 1.9-.3.2-.6.6-1.2.8.4.4.2.7.1.6.8 1.6-.4 2.1-1.6 2.2-.2-.9-1.2-1.9-1.7-.7-.2.5 1 1.3.4 2.1.9-.2 1.5 0 1.5.8.6.3 4.9 2.7 3 3.3 1 1.1 2.8 2 3.2 3.8-1-1.2-2.1-2.1-3.5-3-1-.7-1.6-.1-2.9-1.4-2.1.7 2.4 2.5 3.1 3.9-2.2-.7-4.8-4.3-5-.3-1.3 0-2.5-1.1-2-2.5-.6-.3-.8-.2-1.3-.6-1.8 1.7.5 3.5.6 5.8l-.9-.3c.1.3.3.6.4.9-2.5-.2-.3-4.8-3.1-4.1-1.7.4-1.6 5.1-.8 5.3.6.2 2.3.5 2.5 1.3.4 1.8-2.5-1-2.5.7 0 1-.4 1.2-.1 2.1.1.3 1.9 2.3 2.4 2.4-.3.8-.1.6.4 1.4.8-.9 2.8-.9 3.1.4-.9-.1-2-.2-2.9.1.1.3.1.6.3.8-1.2-.8-1.8-1.2-2.8-2.2-1.3-1.3-.9-.2-1.3.3-.6.9-1.7 4.3.4 4.6-.4.9-.2 2.1 0 3.1.6 2.5 3.7-1.7 4.1-2 .4.7.3 1.3-.4 1.7 2.5 1.2 2.2-1.7 4.1-1.9.1 1.6-3.5 4.3-4.4 2.7-1.2.7-1.9 2-1 2.8-.5-.4 2.5.1 2.2.2.8-.1 1.1-.4 1.8-.7.5-.2.5-.6.9-1 1.1-1 .2 1.1.2.6.1.7-.7.7-.4 1.5.3.7.8 1.2 1.6 1.2-.9 1.5-2.3-1.5-3.7-1.2-1.1.2-1.9 2.9-2.1 4-.1.3 2.4 2.3 2.9 2.4 1.1.2 2.4-1.3 3 0-1.6-.1-2.9.7-4.5-.5-1.4-1.1-3.1.8-3.7 2-.4.9.8.8 1.1 1.1 0 0 .7-.2.9-.1.4.3-.1 1.1.1 1.2 1.3 1 2.1.7 3.5.2-2 3-3.2-.5-4.7-.8-2.1-.4-3.2 4-2.4 4.9-.5 0-1 .2-1.5.2 1.4.6 2.6-.4 4 0-.5.3-.7 1-1 1.3 1.4.8 1.4-.8 2.6-.5-1.1 1.5-7 1.6-2.1 3.4-1.1-.6-1.7.4-2.8 0 .4.4.5.8.7 1.5-.5-.2-1.7-1.3-2.1-1.4-.9-.1-1.6.7-2.5.8-1.2.1-5.7 1.3-2.8 3 1.1.6 1.4-.7 2.5-.4 1.3.4 2.4.2 3.5.7 1.4.6 2.6-1.7 3.9-1.4 1.7.5 2 1 4 .6-1.8 1.2-2.5-.3-4.1-.3-1.2 0-3.8 1.6-2.1 2.7-.1.1-.1.2-.2.3-.7-.8-4.5-1.9-3.6.2.7 1.7 4.4 4.2 5.5 2-.6 1.2 1.1 3.4 2 2.7 1.4-1.1 3.6-5.3 5.2-5.6.4-.1 3-2.4 3.4-2.9.4-.4.6-1.3.9-1.7.5-.7 1.3-1.6 2-2.1-.4 1-2.8 2.9-2.5 3.7.5 1.9 4.1.5 5.2.3-2.1 1.2-5.3.5-6.9 2.1-.3.3.5.4.3.8-.3.5-.9.8-1.2 1.3-.5.7-.8 1.6-1.1 2.4 1 1 2.6-.3 3.7-.8-1 1-2.8 2.7-4 1.1-.2.8-.5 1.6-.9 2.4.1.1.2.2.3.2.2-.7.6-.9 1-1.3 0 1.7 2.8 2.3 4.5 1.6 1.4-.6 1.8-3.2 2.9-4-.8 1.1-1.2 2.3-2 3.4-1.2 1.7-1.7.9-3.5.8-2.2-.1-4.4 1.4-4.6 3.7.6-.1 1.3 0 1.9-.2-.9 1.3-2.4-.1-2.7 1.8-.1.3-.7 2.1-.5 2.3.5.7.4-.2.7-.1.5.3 2.6-.6.6.6-.6.4-1.4 3.1-1.5 4 .7-.7 1.1-1.6 2.1-1.9-.4 1.7-1.4 2.3-.5 3.9-1.6-1.4-4.2 4.5-3.5 5.8.5-1.1 1-4.1 2.6-3.9-.4 1.3-2.8 3.5-2.7 4.9.2 1.9 1.9-.3 2.7-.9-.7.6-2.1 2.6-2.2 3.4-.2 1.6 1 2.3 1.3 3.1 1.4-.3 2.4-2 3.4-3.1-.4 1.8-1.7 2.1-2.7 3.4-.8 1-1.6 2.9-1.9 3.7-.3.7-1.4 3.3-1 4 .3.4.2 3.7-.1 4.2-1.1 2-1.8 1.9-1.4 4.4.3 2.1 1.7.1 2.7.6 2.1 1.1 4.5-3.9 1.6-4.3.5-.5 1.5-2 1.6-2.5.1-.9.2-3 .9-3.3-.1 0-.1-4.2.6-5.3.6-1 2.4-1.5 2.6-2.5.3-1.1-1.6-3.1-1.8-3.6-.5-1.4-1.5-4-.7-5.8.1 3 4-3 4.3-3.6 1.1-1.7 2.6-1.9 3.5-3.8.4-.9 2.4-1.3 3.2-2.1-.3 1.3-1.3 1.5-2.3 2.1-.9.6-.8 1.8-1.5 2.6-.5.6-2 .9-2.3 1.5-.7 1.2-1.8 2.6-2.3 4-.8 2.7-1 6 2.4 6.9-.3-1.6-.6-1.8-.2-3.3.2-.7.3-1.4.7-2-.2 1.3.9 2.1 2 2.6.4-1.4-1.4-3.1-.8-4.1.4 1.2.9 2.7 1.4 3.8.7 1.4.9 1.9 2.1.8 1-1 1.1-3.3.1-4.1 2.4 1.5.9-4.7 1-5.9.3-2.6.4.7.7 1.3.4.8 2.1-3 2.6-3.5.2 2.2-4 5.2-2.3 7.8.4.6 2.1 1.3 1.7 0-.4-1.1-1.5-1.8-1.2-3 .7.8.7 2.5 2 3 .9.3 1.2 1.3 2 1.9 1 .7 2.5.7 3.6 1-1.8 1.3-4.8-.9-6.7-1.1-2.9-.4-2 4.1-1.8 5.6.2 1.1.3 1.7 0 2.9-.1.6-1.2.6-.7 1.3.5.7 1.1 1.1 1.8 1.5.8.5.1.6 1.4 1.1 1.2.5 2.8 1.8 1.6 3.2.9.2 1.4.9 1.5 1.8.1 1.8-1.2 1.5-2.1 2.5-1 1-1.4 2.3-2.3 3.5-.6.8-.4 2.6-.9 3.6-.6 1.4-1.7 2.4-2.9 3.5-.6.6-1.1 3.2-1.1 4.1 0 1 1.6 3.4 1.3 4.1-.8 2.3-2.2-3.2-2.7-3.9-1.6 1.6-1.9 3.9-.4 6.5.4.7 3.1 4.6 3.9 4.8.1 2-.4 2.7 2 3.5-.4-.8-.2-1.1-.2-2 0-.4-1.1-2-1.3-2.6-.5-1.3-1-2.3.4-3.4.8-.6 1.4-.8 2.3-.4.1.1.5 1.1.9 1.3.5.4 1.6.7 2.2 1.1 2.1 1.3 2.9 3.2 5.1 4.1 2 .9 1.3-2.4 1.2-3.2-.1-.8.3-.9 0-1.7-.2-.5-.9-.1-1.1-.8-.4-1.2.1-3.7.9-1.5.6 1.6 2.8 2 3.6.5-.6 1.5.7 3.9 2.5 3.3-.3-.7-.2-1.5.4-2 .4.5 0 1.7.3 2 1.3 1.3 3.4-1.1 4.8-1.7l-.7-.7c.3-.5.5-.8.9-1.5 0 0 .2.5.1.5-.1.2-.7.2.1.5-.1 0-.1-.3-.1-.3.3.1 4.3-.3 4.7-.5 1.1-.7 0-3.2.4-4.3.8.9.9.5 1.2.2 1.3.2 2.9.4 4.3.5 1.2.1 5.8-.3 6.2.3-.8 0-1 .1-1.5.5h1.5c-2.3 1.5-4.7-1.1-6.3 1.3.5.1.9.6 1.3.8-1.5 1.3-2.1-1.2-3.1 1.1-.7 1.8-.6 3.4-1.5 5-.6 1.1-1.8 2-2.1 3.6-.3 1.3-1.4 3.8-1.2 4.8.2 1.3 2.4 3 3.2 4.1 1 1.3.9 2.1 1.4 3.4.3.7 1.5 4.3 2.4 3.9.4-.2 1.1 0 1.4-.3.3-.3-.3-1.6.5-2.2 0 1.1.4 3-.9 3.3.4.7-.1 1.9.3 2.4.6.8 1.5.4 1.9 1.6-.4-1.6 1.3-2.2 1.8-3.6.2-.5.3-3.1.9-2 .4.8 0 3.3 1.9 2.1.6-.4 2.6-2.5 2.7-3.3.5 1.1-1.2 1.7-1.1 2.2.4 1.8 1.5 1.8.5 3.7-.2.5-2 1.2-2 2 0 1.3 1.1 1.4 1.9.7-.6 1-.6 1.6-1.3 2.5-4-1.9-6 8.3-.2 7.6-2.5 2.4-5.1 5-3.5 8.5.9 1.9 1.7 4.9 3.8 5.9 2.3 1.1 2-.9 4-.7-.4.1-1 .4-1.1.9-.2 1-.3.7-1.2 1.1-1.2.6-2.8 0-3.4-1.6-.4-1.1-.7-3-2-3.3 0 0-2.5 1.2-2.6 1.3-.8 1.3 2.6 3.9 2 5.8-.8-1.4-2.5-2.2-3.7-3.1-2.2-1.5-2.8-.8-5.4.4-3.2 1.6-5.2.1-7.8-1 .4.5.7 1.1 1 1.7-1.6 0-2.7 1.3-4.1 1.7-.9.3-1.6.1-2.5.4-1.2.4-3.4 3.4-3.9 4.6-.1-.2-.2-.4-.3-.5-.4.9 0 2.2-.5 3.1-.6 1.1-2.9 2.5-4 3.2-1.8 1.3-4.1 2.9-4.7 5.2.7-.1 2.4-.8 3.2-.8.5.1 1.2-.1 1.7.5.8.9.8-.7.7-.6.8-.8.6-2.8 2.4-2.8 1.2 0 1.9-.5 3-.8 1-.3 1.8.4 2.8-.4.7.1 0 .4.9 0 .1.1.1.3.3.3-3.1 1.2-1.1 8.3 1.6 6.5-1 1-2.6 2.1-2.9 3.7-.5 3.1 1.9 2.7 3.7 2.5-.7 1.6-3.1.4-2.4 2.3.6 1.8-1.8 5.8-2.8 7.2-1.3 1.9-3.5 2.4-5.1 3.9-.4.4-1.5 1.3-1.9 1.4-1.1.3-4-.9-3.4 1.3-.9-1.1-2.5.8-3.4 1.5-.8.7.3 2-1.9.9-.2 1.6-4.2-1-3.2.9-.6 1-2.3 2.3-3.7 2.8-1.6.6-.7.8-1.4 2 1.8-.2 4.1-.8 4.2 1.5.1 1.8-1.2 2.8-2.9 3 .8.2 1.5.7 1.4 1.5.1-.4.4 0 .3-.8 1.3-.2 4.4 1 5.5-.2.6-.7.3-1.8-.5-2 .8-.2 1.6-.2 2.3-.7-1.2.4-1.5 1.8-.4 2.8-1.4 0-2.7 1.3-4.3.7 0 .2.1.3.1.5-.7-.2-1.3-.1-1.8 0 1.4 1.1 2.5 3.2 4.4 2.3.6-.3.6-1 1.2-1.2 1-.2 2.4-.3 3.1-.2.4-1 .5-2.3 1.4-2.8 1.5-.9 3.2.5 4.7-.5-1-1.5.7 0 1.3-1.4-.1.9-.2 2 1.2 1.9-.5.1-.7.3-1.5.2.6 1.7 1.7 1.9 3.3 1.7 1-.2 2.4 1.1 3.3 0 .6 1.7-3.4 2.5-3.4 1.1-.9 1-1.1 1-.9 2.3 0 .1-.8.7-.1.8.4 0 1.7.9 1.8.4.2-.7 3.3-.7 3.7-.3.2 0 .9-.2 1.1-.3-.6-.6-.8-1.4.1-1.7 2-.8 2.4-.3 3.5.8.8.9.8 2.1 1.3 2.8.7 1.1 1.3.6 2.1 1.3 2.2 1.8 2 2.4 5 2.6 1.1.1 4.4.4 5.1-.4.7-.8.2-1.7 1-2.6.9-1.2 2.5-1.5 3.4-2.8 1.6 2.9 6.6-1.9 7.8-3.3.7-.8 1.6-1.9 2.5-2.5.8-.6 2-.6 2.1-1.7.9 1.1-2.5 3.1-3.4 4.2-1.1 1.5-1.5 3.8-3 5-.7.6-1.3.5-2 .9-1.1.6-2 2.2-2.8 3.1-.2.2-.8-.2-1.1.4 0 .1.4.4 0 .8-.7.7.1 1.3-1 1.3.5 1 .7 3.5 0 4.4-.1-.1-.2-.2-.3-.2.2-.4.1-.4.1-.7-1.1.8-6.6 1.6-7.8 1.1-2.2-1-5.5-2-8-2-2.1 0-4.7.9-7 1.1-.4 0-3.4.6-2.7 1.1.9.6 0 1.2-.7 1.1 1.2 1.8 1 4.4-1.5 5.2-1.1.3-2.8-.6-4-.6-.4 0-.6 2.1-.7 2.6-.4 3.5-.4 5.9-3.2 8.4-1.2 1-.7 1.1-1.6 2.1-1 1.2-1.4 1.6-3.3 1.3-.3 1.4.8 1.6 1.6 2.5-.6-.3-1.4-.4-1.9-.2 0-.5-.3-1-.3-1.4-2.1 1.1-1.2 2-2.1 4.1-.4.9-1.7.7-2.1 1.2-.4.5.2 1.2-.2 1.8-.9 1.5-4 3.5-5.3 4.1-.8.4-.5 1.7-1.7.6-.8-.8-2.5.6-3.4 1.1-1.4.8-1.9 1.8-1.6 3.2.2.9 1.1 2.1 2.7 1 .9-.6.8-.7.8-1.7 0-1.9 4.6.4 5.1.9 1.3 1.2.8 3.2 2.4 4 .2-.8 5.1-4.7 1.4-4.6 1-.4 1-1.1 1.8-1.6-.9-1.2.1-2.8.9 0 1.2-2.6 3.8-2.2 4.8-4 .1-.2.2-1.8.3-1.9.7-.8 1.8-.9 1.9.2 1.6-.7 3.7-.1 5.4-1.2 2-1.3 3.5 0 4.8 1 .1-.4.2-.8.3-1.1h-.6c.1-.1.1-.2.2-.3h-.6c.2-.1.3-.3.7-.4-.8-.3-1.4-.1-2.1-.7 1.4.5 1.8-.5 1.2-1.4.3-.2.5-.5.7-.7.3 0 .5.1.9 0-.9 1.1-.7 3.5 1.2 3-.6 1 .9 2.3 1.7 2.5.3 0 1-.8 1.6-.7 1.1.2 1.8 2.3 2.6 2.8.6.4 2.9 1.3 3.9.3.2-.2 0-2.3.3-2.9.4-.8 1-.4 1.3-1.5 1.1.9 1.4-1 1.8-1.9-1.9.5-1.8-1.7 0-1.6-.6-1.6-.4-3.1.6-4.5.8-1 0-1.8-.1-2.9 1.3 1.5 1.2 2.8 3.6 1.4.8-.5.9-1.1 2-1.6.6-.3 1.6-.3 2.2-.4 2.4-.4 4.1-1.6 6.9-.5 2.3.9 7.3 3.3 6.8 6.2 1.4-1.1-.2-1.3-.1-2.3.3-2.1 1.4-1.4 2.7-1.3 3.3.4 6.8 2.6 8.6-.4-.2-1.4-1.8-.8-2.2-2.3-.3.2-.7.3-1 .5.2-.5.6-1 .9-1.4.6 1.1 1.9.3 2.1 1.7.5-.6 1.2-1.2 2-1.2 1.2-.1 2.4-.4 3.5-.4 1 0 2.4 1.1 2.8.2.6-1.1 1.8-1 3.1-1.4-.1-.2-.2-.3-.3-.5 4.1-.5.8-2.8-1-4.4 2.1 1.2 3.6 2.7 5.7 3.7.3.2.6 1.2 1.3.9 1-.4 0-1.8-.6-2.1 3.6-1.4.5 2.3 2 2.1.9-.1.4-1.9 1.2-2.1.8-.2 2-.1 1.8.8 1.6-.3.7.9.8 1 .1.2-.8.4 0 .9.5.3 1.8 1.5 2.4 1.2.6-.3 0-.8.2-1.2.2-.5.6.2 1 0 2.6-.9 4.4-.7 7-1.1 1.8-.3 3.1-1.2 4.8-.9 1.9.4 3.9 1.3 5.8 1.8 1 .3 2.5 1.3 3.8.9.9-.3 1.9-2.3 2.9-2.8 1.6-.8 4.3-.2 5.7-1.5.7-.7 1.4-1.7 2.4-2 1.1-.4 2.6 1.2 3.5.9.7-.3.8-3 1.6-4.2 1.1-1.6 2.1-1.2 3.7-1.6 2.9-.9 5-2.6 4.5-6.1-.1-.7-.8-1.5-.6-2.2.1-.4 1.1.1 1.2-.6.6-2.6-2.2-1.5-4.1-1.3-3.5.3-6.1 1.1-9.7.7-.9-.1-2.4-3.5-1.7-.7-1.2-.4-2.6.2-3.4-1 .9-.3 1.6-1.2 2.6-1 .8.2 1.4-.2.7-1-.5-.6-3.1-.8-3.7-.7-1.3.2-1.8 1.5-3.2 1.3 1.1-.3 1.1-1.7 1.9-1.9 1.3-.3 2-.3 3.2-.5.8-.1 2.8-.1 3.6-.4.8-.3 4.8-3.3 2.5-3.1.6-.6 1.1-2.4.7-3.2-.3-.7.2-.6-.7-.9-.2-.1-3 1.4-3.3 1.7-.5-.6-.6-.6-1.3-.9 1.4-.9 2.6-.2 3.7-.9.3-.2.2-1 .4-1.3.7-.7 1.8-.9 1.8-2 .8 1.6 1.1 2.5 2.9 2.2 1.5-.2 3.8-1.8 3.6-3.5-.4.7-1.2.7-1.9.1.7-.7 1.7-1.3 1.8-2.4-1.2.5-3.4.4-4.6-.2 1.4-.4 2.8.3 3.9-.2 1.5-.7-1.5-1.2-2-2.4.9.3 4 2.9 4.1 2.8.8-1.3 2.3-2.2 2.6-3.7 4.3.1 2.1-5.3 3.5-7.7 2.8-2.3 5.1-6.6 3.9-9.1zm-60.7 62.6c-.4-.6-1.5-.8-2.5-1.2-3.3-1.3-2.1.6-4.7 1 0-.1.2-.4.1-.5-1.4.6-2.6 1.1-3.2 2.5 2.3-1.7 4.8 3 7.8 2.1 1.1-.3 1.1-1.4 1.7-2.4.4-.8 2.2-.1.8-1.5zm-98.1-123.7c.4.2 2-1.1 2.4-2.2.3-.8.5-2.8-.6-3.1-.6-.2-2.1 1-2.8 1.2 1.7-1.5 2.3-4.3.8-5.6.3-.1.6-.3 1-.4-.6-.2-1.3-.5-1.9-.8.1-.6.2-.9.3-1.5 3.3.1 3.4 3.7 2.7 5.8-.3 1 1.1 3.9 2.1 2.2-.2-.6.1-2.5.6-3.2.9-1.3-.5-2.6-.6-4.2-.1-.6-.9-3.1-1.3-3.6-1.1-1.4-2.8-.2-4.4-.8-1.6-.6-2.4 2.5-3.3 2.7-1.3.3.4-3.1 1.1-3.6 2-1.5 3.9-1 3.1-4.3-.1-.6-1-1.9-1.8-1.7-1 .3 1.2 2.3 1.4 2.9-.7-1-1.4-1.3-2-2.4-.4-.7-.2-1.4-.9-2-.7-.6-.6-1.6-1.4-2.3-1.5-1.4-1.2-.3-1.1-2.6 0-.7-.5-1.1-1.2-1.1-1.3.1-.3-1.3-.3-2.1.1-3.1-1.3-3.8-4-3.3-1.8.3-4.1-2.3-6-1.3-2.4 1.2-4.9 2.9-8 2.6-1.5-.1-1.7-1.6-1.9.6-.1.8-.6 2.1-1 2.8-1.7 2.6-2.6.2-5.1 1.2.1-.2.1-.5.2-.7-1.4 1.2-2.7.8-3.4 2.8-.5 1.5-.4 3.5-1.3 5.2-.4.8-1 1.4-1.6 2.1-.4.5-.1 1.3-.3 1.6-.5.6-.1.1-1.4.6-.9.3-2.2 1.1-3.3 1.2-.6.1-1-.9-1.5-.9-.4 0-1.4 1.1-1.9 1.3.6 1.3 2.9 3.8 4.7 2.7-.2 2.1-3.7 3.6-5.8 3.1-1.1-.2-1.1 1.2-1.7 1.8-.7.6-1.6.8-2.4 1.2.5 1.2 1.9 3.8 3.4 3.8.8 0 .7 1.8 1.6 2.2 1.5.6 1.4.4 1.5 2.2.1 1.3 1.1 1.5 2.2 1.4 1.5-.1 1.8.5 3 1.4 1.7 1.3 2.4 1 4.5.6-.1.1-.2.2-.2.3.7.5 1.4.8 2.5.8-.6-.8-.7-1.5.3-1.8-.1.4.1 1.1 0 1.6 1-1.1.3-2.1 1.1-2.9.9-1 1.4-.2 1.7-1.4.2-.8-.6-1.6-1.1-2.3.4-.5.1-.6.4-1.1.1-.1 1.1-.3 1.4-.5.5-.5.9-2.1 1.7-2.3 1.8-.5 5.3 3.7 3.6 4.9 1.2.4 1.1 1.6 1.8 2.5 1.2 1.4 1.7-.1 2.7.7 1.3 1.2.3 2.2.4 3.5 0 .9-.4 1.3.7 1.9.5.2.4-.7.9-.4-.1 0 3.5-.2 3.3-.1 1.6-.6.7-1.4 1.7-2-.1.1 1.6.5 1.7.3.3-.5 3.4 1.4 3.9 1.6-1.2.7.3 1.1 1.1.7 1.2-.6 2.7-1.9 3.2-3 .4-.8-.1-3.8.7-4.1 1.3-.7 3-1.2 4.1-.4zm7.9 89.1c.1-.1.4-.2.6-.3-.5-.2-.4-.2-.9-.1 0 .1.3.3.3.4zm93 31.7c.3-1.7-.8-.5-1.4.3.5.2 1.2.3 1.8.3 0-.3-.2-.4-.4-.6zm-82.4-67.5s.4.2.2-.5c-.1.1-.1.3-.2.5zm4.8-18.4c-.2-1.8-3-2.5-2.1-.5-.2-.5 1.9 1.4 1.8 1.3 1 .9.6-.4.3-.8zm-20.5-115.8c.3-.3.6-.7.7-1.1-.7.1-1.6.4-1.8 1.3.5.1.7-.1 1.1-.2zm17.8 172.9c.3.2.1.7.6.2-.2-.1-.5-.1-.6-.2zm9.3-60.9c0-1.5-2.1-1.9-3.3-1.8-2.9.3-2.7 1-2.9 3.1-.2 2 .6 5.6 2.5 6.4.3-.4 1.2-.7 1.3-.8-.5.6-.5 1.1-.6 1.8 3 0 5.9-3.8 7.9-6.1-1.5-.8-2.3.7-3.4.2-.5-.2-1-2.3-1.5-2.8zM178.9 348c-.1.3-.5.4-.1.9.2-.3.1-.6.1-.9zm14.2 24.6c0-.4.2-.7 0-1.2-.3.5 0 .8 0 1.2zm-7.3-165.5c0-1.3-.7-3.3-1.5-4.2-1.4-1.8-2.9-1.9-2.1.6.5 1.6 2.3 3.1 2.9 4.6.7 1.8.6-.6.7-1zm-45-92c.1 1.1.6 3 1.9 1.5-.2.4-.3.5-.6.8h.6c-.2.1-.4.5-.7.8.9 0 1.8-.3 2.6-.6-.8.5-1.7 1-2.6 1.1 0 .2.1.3.1.6-.7.1-.8.4-1.3.8.7.5.8.8 1.5.5.2.7 3.4 1.9 4.4 1.7-.1.4-.2.8-.3 1-1.3-.4-3.4.7-1.3 1.7-1.5-.4-2.6 1.3-3.5 2.2-.2-.8-1.1-1.6-.8-.4.3 1.2 2 2.4 2.8 3.3.8.9 3.4-2.7 2.9-3.7.5.4 1 .5 1.5.8 0-.4-.1-.1-.2-.5 1.5.1 1.4-1.4.2-1.9-.5-.2-.5-.6-.1-1 .2-.2 2.3.7 2.7.7-.1-.8-.1-1.1-.7-1.6.8-.7-.7-1.6-1.1-2.6-.4-1.2.1-.9.9-1.9.9-1.1.5-1 2.4-1-1.2.5-2.6.9-2.5 2.8.1 1 .9 2.6 1.9 3-.1-.4-.1-1.3-.2-1.7.5 1.1 2.6 2.4 1.7.5.7.4 2.1-.1 2.1-1.1s-1.7-1-1.9-1.9c1.7.6 3.2.9 4.1-.8-.4 0-.7-.2-1-.3.6-.3 1-1.8.1-2.3-1.2-.7-3.6 1.6-4.8.6 1.2.1 3-.6 3.6-1.4.6-.7 1.2-.3 1.6-1.1.3-.8-.2-1.5-.5-2.5 2.9 1.8 4.8.6 5.3-2-1.3.1-3.5 3.5-4.6.9.8 0 3.8-3.9 4.3-4.7-2.1-.1 0-2 0-2.7.1-1.4-1.4-5-2.9-3-3.1 4.1-7.6 5.4-11 8.4.9.6.6 3 2.3 3.9l-.6.9c-.4-1.4-2.3-1.8-2.9-.4-.4.9.4 1.8.3 2.9-.9-1.2-1.1-2.9-1.7-4.2h.6c-.3-.3-2.5-1.6-2.9-1.2-.6.8-.5 1.7.5 2-.6.2-1.4.3-2.1.3.7 1.1-.7 1.7-.1 2.8zm.8 9.5c.3-.3.8-.1.7-.9 1.5 1.3 1.1-1 .4-.7-.7.3-1.1.8-1.1 1.6zm-8.7 12.3c1.3-.3 2 .7 3.5.8l-.6.3c.5 1.6 1.9 1.7 3.2 1.3 4-1.4-1.4-1.1-2.4-1.3.9-2.1 3.5 1.2 4.4-1.9-1.2.6-1.1-.5-2.1-.8-.1-.4-.2-.6-.3-.8v-.3c.8-.1 2.9 2.2 3 .5.1-1.3-1.5-1-2.4-1.1 1.6-1.7-1-.9-1.9-.3.2.2.3.4.4.5-1.2 0-1.9-.6-1.2-1.6-.6.7-1.1 1.5-1.8 2.1-.1-.2-.3-.3-.4-.5.4-.2.4-.3.6-.5-.8 0-1.2.1-1.9 0-.6 1.5-2.2 3-.1 3.6zm6.7-5.7c.2-.4.6-.4.2-.9-.5.2-1 .5-1.3 1.1.5.1.7 0 1.1-.2zm20.5 49.1c.4 0 .8 0 1.1-.1-1.1-2.5-2.9-.2-1.1.1zm-13.6-.7c1.8-.7 3.8-3.1.1-1.9-.7.2-3.2 1.1-3.1 1.5.4 1.2.7 2 2.2 2-.2-.9.2-1.2.8-1.6zm-.5-69c0 .2.4 0 .3.4l-.3.3c.5.1 1.3.1 1.8 0-.3-1.2-1-1.3-1.9-1.9-.3.4-.1.7.1 1.2zm-12.9 51.2c1.1-.4.8-1.6 2.2-1.6-.2-.7-.6-1.3-1.3-1.6.3-1 .5-.8-.3-1.4 0 1.1-4.3 4.9-.6 4.6zM157.5 413s-.5 0 0 .6c.3-.3 0-.5 0-.6zm-20.1-262.6c.8-.5 1.3-2.1 1.7-2.9-1.3-.9-3.6-1.3-4.3-3 1.2-.3 2.6 2.9 3.7 1.4-.6-.2-1.3-.7-1.6-1.1.4.1.4 0 .7 0-.9-.6-2-2-3.1-.9-.7.7.1 2 .3 3 .1.7-.8 2.7-1.3 3.3 1.2.5 1 2.7 1.3 3.9.4 1.4 3.3 2.2 3.8.7-1-.6-1.9-1.1-2.8-1.4.6.1 1 0 1.6.3 1-2.1-.5-2.9-1.8-3.7.7.1 1.2.2 1.8.4zm19.7 262.7s-.3 0-.2.5c.3-.2.1-.3.2-.5zm1.2.7c0 1 0 .9 0 0zm-20.7-273.1c-.5-.4-4.1-.8-2.9 1.5 1 2 5.9 1.4 3-.4.6-.1 1-.5 1.3-.5-.5-.3-1.3-.6-1.4-.6zm21.1 272.1c-.4 0-.3-.4-.6-.1.5.4.9.1.6.1zm-49.8-286.1c-.7.1.3 1.4 1.1.3-.3-.2-.7-.2-1.1-.3z"/>
</svg>